SplineFontDB: 1.0
FontName: DejaVuSansMono
FullName: DejaVu Sans Mono
FamilyName: DejaVu Sans Mono
Weight: Book
Copyright: Copyright (c) 2003 by Bitstream, Inc. All Rights Reserved.\nDejaVu changes are in public domain\n
Version: 2.2
ItalicAngle: 0
UnderlinePosition: -213
UnderlineWidth: 141
Ascent: 1556
Descent: 492
Order2: 1
NeedsXUIDChange: 1
FSType: 0
PfmFamily: 17
TTFWeight: 400
TTFWidth: 5
LineGap: 0
VLineGap: 0
Panose: 2 11 6 9 3 8 4 2 2 4
OS2TypoAscent: 1556
OS2TypoAOffset: 0
OS2TypoDescent: -492
OS2TypoDOffset: 0
OS2TypoLinegap: 410
OS2WinAscent: 1901
OS2WinAOffset: 0
OS2WinDescent: 483
OS2WinDOffset: 0
HheadAscent: 1901
HheadAOffset: 0
HheadDescent: -483
HheadDOffset: 0
OS2Vendor: 'PfEd'
ScriptLang: 2
 1 DFLT 1 dflt 
 1 latn 1 dflt 
TtfTable: prep 1819
\H79^'sa'0"[O+/'`aO"!s',:J,f]Q'EJ+4!s'&8rW!$$&c`OE!s&u6rW!$$&-2\0!s&o4RK*Ej
%KQJ.!s&k:lUM+E,lnGTI/j?M$ihRR!s&c01&qCW$36@l!s&].rW!$$#QP>7!s&W,rW!$$"ooqL
!s&Q*rW!$$"98o3!s&K(,le#J!W`3"!s&Ef=oJO&rWE+I"8r-#qu-]o1'@?a"8I9Hp\'OLp\k9h
^]aB(=U"MX"876Jp%0R7oiVCi5Qp^+"7u(:"nVQmnh1+8rWDZh"7IuImM#cjQ36L>7g88Y"73Pt
d6R^7lUM'Bl!st_Q36A^"6f^dkN3]ekPbSG)[#4$"6=5"j8K/?]*%$M)$T!q"5k%!hj+B$rWD!U
"5MWG"l0(ZgD'hEQ35gm'a<:i"5&S@"kXOlf6mbP3Wmol$O,'A"4[;Pe'\R,e,BHt$3S]T"47#L
c\`;<cQ!&4('Dh\"3d&5bDRYMbPhUdrWC8j"3CHDa8Q1\rWC-.%0a]L"2k*?_YsYRrWBrq$O+<[
"2>6H^:h,^^A\5J]Nk]S]*#`s"MD>m"h\+C]KcV3,m1aX"1a^"\;roZ\,HK<O$NrXq?+-o%0a-<
"1)M?Z=F'B%KipJ"0_\+Y5U]b"0MP)XSr=&&d,05"0&4/"fX6ZW"&p-V@a!0-j-=Y"/VeF"f6VL
Ub)\DrWAno"/5\rTV!)*TO\.sSe)'t)$?HA".]c$SGiV[RLKFirWASu".>N/"e#>lQnAK-O$Nr9
Q33G<]*4N""-o*V"dQ\%Q%0"%O<k'p>m$<V"I&feP5YQGO<k'm]*"-@"-8?d"ckqONf=DMNYDST
$Nl?G,mB6<",i$K"cFZ/M@frIrW@uU",HjXL4p3CLAh:/&Hd^c",$RTJe:<QJl;c&rW@[q"+PcJ
"b6LRIXM<H*Wpfh"+(L[HN""jrW@?C"*J\o"a(=XFgqGP5hZ?_$j1Ue"EP1XF$KkKrW@0>"*"5A
Df/JWDjCKCD(#R*;Zgkb")Rr=CGH!,rW?ji").N5B=e7XrW?a2"(_B5@q$J_A,ZR>!"]<C*WojM
"(;*1?iC.6=pkL?%Kg!I"'inL>?VC<>8.0C$NjQ2"'?6>=8i;&rW?.>)$O"q"'#7%;uQksrW?#G
"&St!:D<n+rW>jq/HnlJ"&-</9.0m78JhV'2ZlW=&d:iD"%Yit"\AUp7mdmm7q;]k72Q1t])tJ=

StartChar: .notdef
Encoding: 0 -1 0
AltUni: 0
Width: 1233
Flags: W
Fore
104 -362 m 1,0,-1
 104 1444 l 1,1,-1
 1128 1444 l 1,2,-1
 1128 -362 l 1,3,-1
 104 -362 l 1,0,-1
219 -248 m 1,4,-1
 1014 -248 l 1,5,-1
 1014 1329 l 1,6,-1
 219 1329 l 1,7,-1
 219 -248 l 1,4,-1
EndSplineSet
EndChar
StartChar: exclam
Encoding: 33 33 33
Width: 1233
Flags: W
Fore
516 1493 m 1,0,-1
 719 1493 l 1,1,-1
 719 838 l 1,2,-1
 698 481 l 1,3,-1
 537 481 l 1,4,-1
 516 838 l 1,5,-1
 516 1493 l 1,0,-1
516 254 m 1,6,-1
 719 254 l 1,7,-1
 719 0 l 1,8,-1
 516 0 l 1,9,-1
 516 254 l 1,6,-1
EndSplineSet
EndChar
StartChar: quotedbl
Encoding: 34 34 34
Width: 1233
Flags: W
Fore
895 1493 m 1,0,-1
 895 938 l 1,1,-1
 721 938 l 1,2,-1
 721 1493 l 1,3,-1
 895 1493 l 1,0,-1
512 1493 m 1,4,-1
 512 938 l 1,5,-1
 338 938 l 1,6,-1
 338 1493 l 1,7,-1
 512 1493 l 1,4,-1
EndSplineSet
EndChar
StartChar: numbersign
Encoding: 35 35 35
Width: 1233
Flags: W
Fore
684 1470 m 1,0,-1
 580 1055 l 1,1,-1
 825 1055 l 1,2,-1
 930 1470 l 1,3,-1
 1090 1470 l 1,4,-1
 985 1055 l 1,5,-1
 1229 1055 l 1,6,-1
 1229 901 l 1,7,-1
 948 901 l 1,8,-1
 864 567 l 1,9,-1
 1114 567 l 1,10,-1
 1114 414 l 1,11,-1
 825 414 l 1,12,-1
 721 0 l 1,13,-1
 561 0 l 1,14,-1
 666 414 l 1,15,-1
 420 414 l 1,16,-1
 315 0 l 1,17,-1
 156 0 l 1,18,-1
 260 414 l 1,19,-1
 2 414 l 1,20,-1
 2 567 l 1,21,-1
 299 567 l 1,22,-1
 383 901 l 1,23,-1
 117 901 l 1,24,-1
 117 1055 l 1,25,-1
 420 1055 l 1,26,-1
 524 1470 l 1,27,-1
 684 1470 l 1,0,-1
788 901 m 1,28,-1
 543 901 l 1,29,-1
 459 567 l 1,30,-1
 705 567 l 1,31,-1
 788 901 l 1,28,-1
EndSplineSet
EndChar
StartChar: dollar
Encoding: 36 36 36
Width: 1233
Flags: W
Fore
692 580 m 1,0,-1
 692 146 l 1,1,2
 802 149 802 149 864 207 c 128,-1,3
 926 265 926 265 926 365 c 0,4,5
 926 458 926 458 870 509.5 c 128,-1,6
 814 561 814 561 692 580 c 1,0,-1
592 770 m 1,7,-1
 592 1183 l 1,8,9
 488 1179 488 1179 429.5 1123 c 128,-1,10
 371 1067 371 1067 371 973 c 0,11,12
 371 887 371 887 425.5 837 c 128,-1,13
 480 787 480 787 592 770 c 1,7,-1
692 -301 m 1,14,-1
 592 -301 l 1,15,-1
 591 0 l 1,16,17
 489 5 489 5 388.5 28 c 128,-1,18
 288 51 288 51 190 92 c 1,19,-1
 190 272 l 1,20,21
 290 210 290 210 391.5 177 c 128,-1,22
 493 144 493 144 592 142 c 1,23,-1
 592 600 l 1,24,25
 392 631 392 631 291 722 c 128,-1,26
 190 813 190 813 190 963 c 0,27,28
 190 1120 190 1120 295.5 1213.5 c 128,-1,29
 401 1307 401 1307 592 1321 c 1,30,-1
 592 1556 l 1,31,-1
 692 1556 l 1,32,-1
 693 1321 l 1,33,34
 772 1316 772 1316 853 1301 c 128,-1,35
 934 1286 934 1286 1018 1260 c 1,36,-1
 1018 1087 l 1,37,38
 933 1130 933 1130 852.5 1153.5 c 128,-1,39
 772 1177 772 1177 692 1181 c 1,40,-1
 692 750 l 1,41,42
 898 719 898 719 1006 622 c 128,-1,43
 1114 525 1114 525 1114 371 c 0,44,45
 1114 217 1114 217 997.5 114 c 128,-1,46
 881 11 881 11 693 2 c 1,47,-1
 692 -301 l 1,14,-1
EndSplineSet
EndChar
StartChar: percent
Encoding: 37 37 37
Width: 1233
Flags: W
Fore
696 319 m 0,0,1
 696 241 696 241 748.5 188 c 128,-1,2
 801 135 801 135 879 135 c 0,3,4
 956 135 956 135 1009.5 188.5 c 128,-1,5
 1063 242 1063 242 1063 319 c 0,6,7
 1063 396 1063 396 1009 450 c 128,-1,8
 955 504 955 504 879 504 c 0,9,10
 801 504 801 504 748.5 451 c 128,-1,11
 696 398 696 398 696 319 c 0,0,1
561 319 m 0,12,13
 561 454 561 454 653 546.5 c 128,-1,14
 745 639 745 639 879 639 c 0,15,16
 943 639 943 639 1000.5 615 c 128,-1,17
 1058 591 1058 591 1104 545 c 0,18,19
 1150 498 1150 498 1175 440 c 128,-1,20
 1200 382 1200 382 1200 319 c 0,21,22
 1200 186 1200 186 1107 93 c 128,-1,23
 1014 0 1014 0 879 0 c 0,24,25
 743 0 743 0 652 91.5 c 128,-1,26
 561 183 561 183 561 319 c 0,12,13
121 465 m 1,27,-1
 86 561 l 1,28,-1
 1128 979 l 1,29,-1
 1169 883 l 1,30,-1
 121 465 l 1,27,-1
168 1112 m 0,31,32
 168 1033 168 1033 220.5 980.5 c 128,-1,33
 273 928 273 928 352 928 c 0,34,35
 429 928 429 928 483 981.5 c 128,-1,36
 537 1035 537 1035 537 1112 c 0,37,38
 537 1189 537 1189 483 1242.5 c 128,-1,39
 429 1296 429 1296 352 1296 c 0,40,41
 275 1296 275 1296 221.5 1243 c 128,-1,42
 168 1190 168 1190 168 1112 c 0,31,32
33 1112 m 0,43,44
 33 1247 33 1247 125 1339.5 c 128,-1,45
 217 1432 217 1432 352 1432 c 0,46,47
 416 1432 416 1432 474.5 1408 c 128,-1,48
 533 1384 533 1384 578 1339 c 0,49,50
 623 1294 623 1294 647.5 1235.5 c 128,-1,51
 672 1177 672 1177 672 1112 c 0,52,53
 672 978 672 978 579 885.5 c 128,-1,54
 486 793 486 793 352 793 c 0,55,56
 217 793 217 793 125 885 c 128,-1,57
 33 977 33 977 33 1112 c 0,43,44
EndSplineSet
EndChar
StartChar: ampersand
Encoding: 38 38 38
Width: 1233
Flags: W
Fore
547 907 m 2,0,-1
 963 348 l 1,1,2
 1002 397 1002 397 1021 472 c 128,-1,3
 1040 547 1040 547 1040 651 c 0,4,5
 1040 683 1040 683 1037 753 c 1,6,-1
 1036 760 l 1,7,-1
 1200 760 l 1,8,-1
 1200 721 l 2,9,10
 1200 560 1200 560 1163 438.5 c 128,-1,11
 1126 317 1126 317 1051 229 c 1,12,-1
 1221 0 l 1,13,-1
 1008 0 l 1,14,-1
 930 109 l 1,15,16
 847 39 847 39 754 5 c 128,-1,17
 661 -29 661 -29 555 -29 c 0,18,19
 339 -29 339 -29 198 105.5 c 128,-1,20
 57 240 57 240 57 444 c 0,21,22
 57 581 57 581 126 698 c 128,-1,23
 195 815 195 815 334 915 c 1,24,25
 284 987 284 987 260 1056 c 128,-1,26
 236 1125 236 1125 236 1196 c 0,27,28
 236 1346 236 1346 335.5 1433 c 128,-1,29
 435 1520 435 1520 608 1520 c 0,30,31
 673 1520 673 1520 738.5 1508 c 128,-1,32
 804 1496 804 1496 874 1473 c 1,33,-1
 874 1290 l 1,34,35
 815 1329 815 1329 752.5 1347.5 c 128,-1,36
 690 1366 690 1366 621 1366 c 0,37,38
 524 1366 524 1366 468 1320.5 c 128,-1,39
 412 1275 412 1275 412 1198 c 0,40,41
 412 1139 412 1139 441 1074.5 c 128,-1,42
 470 1010 470 1010 547 907 c 2,0,-1
416 803 m 1,43,44
 324 730 324 730 278.5 648.5 c 128,-1,45
 233 567 233 567 233 475 c 0,46,47
 233 324 233 324 333 224.5 c 128,-1,48
 433 125 433 125 588 125 c 0,49,50
 630 125 630 125 676 137 c 128,-1,51
 722 149 722 149 766 172 c 0,52,53
 793 187 793 187 810.5 198.5 c 128,-1,54
 828 210 828 210 844 223 c 1,55,-1
 416 803 l 1,43,44
EndSplineSet
EndChar
StartChar: quotesingle
Encoding: 39 39 39
Width: 1233
Flags: W
Fore
702 1493 m 1,0,-1
 702 938 l 1,1,-1
 528 938 l 1,2,-1
 528 1493 l 1,3,-1
 702 1493 l 1,0,-1
EndSplineSet
EndChar
StartChar: parenleft
Encoding: 40 40 40
Width: 1233
Flags: W
Fore
885 1554 m 1,0,1
 752 1326 752 1326 686.5 1099.5 c 128,-1,2
 621 873 621 873 621 643 c 0,3,4
 621 414 621 414 686.5 187 c 128,-1,5
 752 -40 752 -40 885 -270 c 1,6,-1
 725 -270 l 1,7,8
 574 -32 574 -32 500 193.5 c 128,-1,9
 426 419 426 419 426 643 c 0,10,11
 426 866 426 866 500 1092 c 128,-1,12
 574 1318 574 1318 725 1554 c 1,13,-1
 885 1554 l 1,0,1
EndSplineSet
EndChar
StartChar: parenright
Encoding: 41 41 41
Width: 1233
Flags: W
Fore
348 1554 m 1,0,-1
 508 1554 l 1,1,2
 659 1318 659 1318 733 1092 c 128,-1,3
 807 866 807 866 807 643 c 0,4,5
 807 418 807 418 733 192 c 128,-1,6
 659 -34 659 -34 508 -270 c 1,7,-1
 348 -270 l 1,8,9
 481 -38 481 -38 546.5 189 c 128,-1,10
 612 416 612 416 612 643 c 0,11,12
 612 871 612 871 546.5 1098 c 128,-1,13
 481 1325 481 1325 348 1554 c 1,0,-1
EndSplineSet
EndChar
StartChar: asterisk
Encoding: 42 42 42
Width: 1233
Flags: W
Fore
1067 1247 m 1,0,-1
 709 1053 l 1,1,-1
 1067 858 l 1,2,-1
 1010 760 l 1,3,-1
 674 963 l 1,4,-1
 674 586 l 1,5,-1
 559 586 l 1,6,-1
 559 963 l 1,7,-1
 223 760 l 1,8,-1
 166 858 l 1,9,-1
 524 1053 l 1,10,-1
 166 1247 l 1,11,-1
 223 1346 l 1,12,-1
 559 1143 l 1,13,-1
 559 1520 l 1,14,-1
 674 1520 l 1,15,-1
 674 1143 l 1,16,-1
 1010 1346 l 1,17,-1
 1067 1247 l 1,0,-1
EndSplineSet
EndChar
StartChar: plus
Encoding: 43 43 43
Width: 1233
Flags: W
Fore
700 1171 m 1,0,-1
 700 727 l 1,1,-1
 1145 727 l 1,2,-1
 1145 557 l 1,3,-1
 700 557 l 1,4,-1
 700 113 l 1,5,-1
 532 113 l 1,6,-1
 532 557 l 1,7,-1
 88 557 l 1,8,-1
 88 727 l 1,9,-1
 532 727 l 1,10,-1
 532 1171 l 1,11,-1
 700 1171 l 1,0,-1
EndSplineSet
EndChar
StartChar: comma
Encoding: 44 44 44
Width: 1233
Flags: W
Fore
502 303 m 1,0,-1
 754 303 l 1,1,-1
 754 96 l 1,2,-1
 557 -287 l 1,3,-1
 403 -287 l 1,4,-1
 502 96 l 1,5,-1
 502 303 l 1,0,-1
EndSplineSet
EndChar
StartChar: hyphen
Encoding: 45 45 45
Width: 1233
Flags: W
Fore
356 643 m 1,0,-1
 877 643 l 1,1,-1
 877 479 l 1,2,-1
 356 479 l 1,3,-1
 356 643 l 1,0,-1
EndSplineSet
EndChar
StartChar: period
Encoding: 46 46 46
Width: 1233
Flags: W
Fore
489 305 m 1,0,-1
 741 305 l 1,1,-1
 741 0 l 1,2,-1
 489 0 l 1,3,-1
 489 305 l 1,0,-1
EndSplineSet
EndChar
StartChar: slash
Encoding: 47 47 47
Width: 1233
Flags: W
Fore
889 1493 m 1,0,-1
 1079 1493 l 1,1,-1
 293 -190 l 1,2,-1
 102 -190 l 1,3,-1
 889 1493 l 1,0,-1
EndSplineSet
EndChar
StartChar: zero
Encoding: 48 48 48
Width: 1233
Flags: W
Fore
483 750 m 0,0,1
 483 805 483 805 521.5 845 c 128,-1,2
 560 885 560 885 614 885 c 0,3,4
 670 885 670 885 710 845 c 128,-1,5
 750 805 750 805 750 750 c 0,6,7
 750 694 750 694 710.5 655 c 128,-1,8
 671 616 671 616 614 616 c 0,9,10
 558 616 558 616 520.5 654 c 128,-1,11
 483 692 483 692 483 750 c 0,0,1
616 1360 m 0,12,13
 475 1360 475 1360 405.5 1208 c 128,-1,14
 336 1056 336 1056 336 745 c 0,15,16
 336 435 336 435 405.5 283 c 128,-1,17
 475 131 475 131 616 131 c 0,18,19
 758 131 758 131 827.5 283 c 128,-1,20
 897 435 897 435 897 745 c 0,21,22
 897 1056 897 1056 827.5 1208 c 128,-1,23
 758 1360 758 1360 616 1360 c 0,12,13
616 1520 m 0,24,25
 855 1520 855 1520 977.5 1324 c 128,-1,26
 1100 1128 1100 1128 1100 745 c 0,27,28
 1100 363 1100 363 977.5 167 c 128,-1,29
 855 -29 855 -29 616 -29 c 0,30,31
 377 -29 377 -29 255 167 c 128,-1,32
 133 363 133 363 133 745 c 0,33,34
 133 1128 133 1128 255 1324 c 128,-1,35
 377 1520 377 1520 616 1520 c 0,24,25
EndSplineSet
EndChar
StartChar: one
Encoding: 49 49 49
Width: 1233
Flags: W
Fore
270 170 m 1,0,-1
 584 170 l 1,1,-1
 584 1311 l 1,2,-1
 246 1235 l 1,3,-1
 246 1419 l 1,4,-1
 582 1493 l 1,5,-1
 784 1493 l 1,6,-1
 784 170 l 1,7,-1
 1094 170 l 1,8,-1
 1094 0 l 1,9,-1
 270 0 l 1,10,-1
 270 170 l 1,0,-1
EndSplineSet
EndChar
StartChar: two
Encoding: 50 50 50
Width: 1233
Flags: W
Fore
373 170 m 1,0,-1
 1059 170 l 1,1,-1
 1059 0 l 1,2,-1
 152 0 l 1,3,-1
 152 170 l 1,4,5
 339 367 339 367 479 518 c 128,-1,6
 619 669 619 669 672 731 c 1,7,8
 772 853 772 853 807 928.5 c 128,-1,9
 842 1004 842 1004 842 1083 c 0,10,11
 842 1208 842 1208 768.5 1279 c 128,-1,12
 695 1350 695 1350 567 1350 c 0,13,14
 476 1350 476 1350 376 1317 c 128,-1,15
 276 1284 276 1284 164 1217 c 1,16,-1
 164 1421 l 1,17,18
 267 1470 267 1470 366.5 1495 c 128,-1,19
 466 1520 466 1520 563 1520 c 0,20,21
 782 1520 782 1520 915.5 1403.5 c 128,-1,22
 1049 1287 1049 1287 1049 1098 c 0,23,24
 1049 1002 1049 1002 1004.5 906 c 128,-1,25
 960 810 960 810 860 694 c 0,26,27
 804 629 804 629 697.5 514 c 128,-1,28
 591 399 591 399 373 170 c 1,0,-1
EndSplineSet
EndChar
StartChar: three
Encoding: 51 51 51
Width: 1233
Flags: W
Fore
776 799 m 1,0,1
 923 760 923 760 1001 660.5 c 128,-1,2
 1079 561 1079 561 1079 412 c 0,3,4
 1079 206 1079 206 940.5 88.5 c 128,-1,5
 802 -29 802 -29 557 -29 c 0,6,7
 454 -29 454 -29 347 -10 c 128,-1,8
 240 9 240 9 137 45 c 1,9,-1
 137 246 l 1,10,11
 239 193 239 193 338 167 c 128,-1,12
 437 141 437 141 535 141 c 0,13,14
 701 141 701 141 790 216 c 128,-1,15
 879 291 879 291 879 432 c 0,16,17
 879 562 879 562 790 638.5 c 128,-1,18
 701 715 701 715 549 715 c 2,19,-1
 395 715 l 1,20,-1
 395 881 l 1,21,-1
 549 881 l 2,22,23
 688 881 688 881 766 942 c 128,-1,24
 844 1003 844 1003 844 1112 c 0,25,26
 844 1227 844 1227 771.5 1288.5 c 128,-1,27
 699 1350 699 1350 565 1350 c 0,28,29
 476 1350 476 1350 381 1330 c 128,-1,30
 286 1310 286 1310 182 1270 c 1,31,-1
 182 1456 l 1,32,33
 303 1488 303 1488 397.5 1504 c 128,-1,34
 492 1520 492 1520 565 1520 c 0,35,36
 783 1520 783 1520 913.5 1410.5 c 128,-1,37
 1044 1301 1044 1301 1044 1120 c 0,38,39
 1044 997 1044 997 975.5 915 c 128,-1,40
 907 833 907 833 776 799 c 1,0,1
EndSplineSet
EndChar
StartChar: four
Encoding: 52 52 52
Width: 1233
Flags: W
Fore
735 1309 m 1,0,-1
 264 520 l 1,1,-1
 735 520 l 1,2,-1
 735 1309 l 1,0,-1
702 1493 m 1,3,-1
 936 1493 l 1,4,-1
 936 520 l 1,5,-1
 1135 520 l 1,6,-1
 1135 356 l 1,7,-1
 936 356 l 1,8,-1
 936 0 l 1,9,-1
 735 0 l 1,10,-1
 735 356 l 1,11,-1
 102 356 l 1,12,-1
 102 547 l 1,13,-1
 702 1493 l 1,3,-1
EndSplineSet
EndChar
StartChar: five
Encoding: 53 53 53
Width: 1233
Flags: W
Fore
207 1493 m 1,0,-1
 963 1493 l 1,1,-1
 963 1323 l 1,2,-1
 391 1323 l 1,3,-1
 391 956 l 1,4,5
 434 972 434 972 477.5 979.5 c 128,-1,6
 521 987 521 987 565 987 c 0,7,8
 797 987 797 987 933 850 c 128,-1,9
 1069 713 1069 713 1069 479 c 0,10,11
 1069 243 1069 243 926.5 107 c 128,-1,12
 784 -29 784 -29 537 -29 c 0,13,14
 418 -29 418 -29 319.5 -13 c 128,-1,15
 221 3 221 3 143 35 c 1,16,-1
 143 240 l 1,17,18
 235 190 235 190 328 165.5 c 128,-1,19
 421 141 421 141 518 141 c 0,20,21
 685 141 685 141 775.5 229 c 128,-1,22
 866 317 866 317 866 479 c 0,23,24
 866 639 866 639 772.5 728 c 128,-1,25
 679 817 679 817 512 817 c 0,26,27
 431 817 431 817 354 798.5 c 128,-1,28
 277 780 277 780 207 743 c 1,29,-1
 207 1493 l 1,0,-1
EndSplineSet
EndChar
StartChar: six
Encoding: 54 54 54
Width: 1233
Flags: W
Fore
991 1460 m 1,0,-1
 991 1274 l 1,1,2
 928 1311 928 1311 857 1330.5 c 128,-1,3
 786 1350 786 1350 709 1350 c 0,4,5
 517 1350 517 1350 418 1205.5 c 128,-1,6
 319 1061 319 1061 319 780 c 1,7,8
 367 880 367 880 452 933.5 c 128,-1,9
 537 987 537 987 647 987 c 0,10,11
 863 987 863 987 981.5 854.5 c 128,-1,12
 1100 722 1100 722 1100 479 c 0,13,14
 1100 237 1100 237 978 104 c 128,-1,15
 856 -29 856 -29 635 -29 c 0,16,17
 375 -29 375 -29 254 157.5 c 128,-1,18
 133 344 133 344 133 745 c 0,19,20
 133 1123 133 1123 278.5 1321.5 c 128,-1,21
 424 1520 424 1520 700 1520 c 0,22,23
 774 1520 774 1520 848 1504.5 c 128,-1,24
 922 1489 922 1489 991 1460 c 1,0,-1
631 829 m 0,25,26
 502 829 502 829 428 736 c 128,-1,27
 354 643 354 643 354 479 c 0,28,29
 354 315 354 315 428 222 c 128,-1,30
 502 129 502 129 631 129 c 0,31,32
 765 129 765 129 833 217.5 c 128,-1,33
 901 306 901 306 901 479 c 0,34,35
 901 653 901 653 833 741 c 128,-1,36
 765 829 765 829 631 829 c 0,25,26
EndSplineSet
EndChar
StartChar: seven
Encoding: 55 55 55
Width: 1233
Flags: W
Fore
139 1493 m 1,0,-1
 1079 1493 l 1,1,-1
 1079 1407 l 1,2,-1
 545 0 l 1,3,-1
 334 0 l 1,4,-1
 854 1323 l 1,5,-1
 139 1323 l 1,6,-1
 139 1493 l 1,0,-1
EndSplineSet
EndChar
StartChar: eight
Encoding: 56 56 56
Width: 1233
Flags: W
Fore
616 709 m 0,0,1
 481 709 481 709 407.5 633.5 c 128,-1,2
 334 558 334 558 334 420 c 0,3,4
 334 282 334 282 408.5 205.5 c 128,-1,5
 483 129 483 129 616 129 c 0,6,7
 752 129 752 129 825.5 204.5 c 128,-1,8
 899 280 899 280 899 420 c 0,9,10
 899 557 899 557 824.5 633 c 128,-1,11
 750 709 750 709 616 709 c 0,0,1
440 793 m 1,12,13
 311 826 311 826 238.5 916 c 128,-1,14
 166 1006 166 1006 166 1133 c 0,15,16
 166 1311 166 1311 287 1415.5 c 128,-1,17
 408 1520 408 1520 616 1520 c 0,18,19
 825 1520 825 1520 946 1415.5 c 128,-1,20
 1067 1311 1067 1311 1067 1133 c 0,21,22
 1067 1006 1067 1006 994.5 916 c 128,-1,23
 922 826 922 826 793 793 c 1,24,25
 943 760 943 760 1022.5 660 c 128,-1,26
 1102 560 1102 560 1102 401 c 0,27,28
 1102 199 1102 199 973 85 c 128,-1,29
 844 -29 844 -29 616 -29 c 0,30,31
 388 -29 388 -29 259.5 84.5 c 128,-1,32
 131 198 131 198 131 399 c 0,33,34
 131 559 131 559 210.5 659.5 c 128,-1,35
 290 760 290 760 440 793 c 1,12,13
367 1114 m 0,36,37
 367 994 367 994 431 931 c 128,-1,38
 495 868 495 868 616 868 c 0,39,40
 738 868 738 868 802 931 c 128,-1,41
 866 994 866 994 866 1114 c 0,42,43
 866 1236 866 1236 802.5 1300 c 128,-1,44
 739 1364 739 1364 616 1364 c 0,45,46
 495 1364 495 1364 431 1299.5 c 128,-1,47
 367 1235 367 1235 367 1114 c 0,36,37
EndSplineSet
EndChar
StartChar: nine
Encoding: 57 57 57
Width: 1233
Flags: W
Fore
596 662 m 0,0,1
 725 662 725 662 798.5 755 c 128,-1,2
 872 848 872 848 872 1012 c 0,3,4
 872 1176 872 1176 798.5 1269 c 128,-1,5
 725 1362 725 1362 596 1362 c 0,6,7
 462 1362 462 1362 394 1273.5 c 128,-1,8
 326 1185 326 1185 326 1012 c 0,9,10
 326 838 326 838 393.5 750 c 128,-1,11
 461 662 461 662 596 662 c 0,0,1
236 31 m 1,12,-1
 236 217 l 1,13,14
 299 180 299 180 370 160.5 c 128,-1,15
 441 141 441 141 518 141 c 0,16,17
 710 141 710 141 808.5 285.5 c 128,-1,18
 907 430 907 430 907 711 c 1,19,20
 860 611 860 611 775 557.5 c 128,-1,21
 690 504 690 504 580 504 c 0,22,23
 364 504 364 504 245.5 637 c 128,-1,24
 127 770 127 770 127 1014 c 0,25,26
 127 1255 127 1255 248.5 1387.5 c 128,-1,27
 370 1520 370 1520 592 1520 c 0,28,29
 852 1520 852 1520 973 1333 c 128,-1,30
 1094 1146 1094 1146 1094 745 c 0,31,32
 1094 368 1094 368 948.5 169.5 c 128,-1,33
 803 -29 803 -29 526 -29 c 0,34,35
 453 -29 453 -29 379 -13.5 c 128,-1,36
 305 2 305 2 236 31 c 1,12,-1
EndSplineSet
EndChar
StartChar: colon
Encoding: 58 58 58
Width: 1233
Flags: W
Fore
489 1063 m 1,0,-1
 741 1063 l 1,1,-1
 741 760 l 1,2,-1
 489 760 l 1,3,-1
 489 1063 l 1,0,-1
489 305 m 1,4,-1
 741 305 l 1,5,-1
 741 0 l 1,6,-1
 489 0 l 1,7,-1
 489 305 l 1,4,-1
EndSplineSet
EndChar
StartChar: semicolon
Encoding: 59 59 59
Width: 1233
Flags: W
Fore
502 303 m 1,0,-1
 754 303 l 1,1,-1
 754 96 l 1,2,-1
 557 -287 l 1,3,-1
 403 -287 l 1,4,-1
 502 96 l 1,5,-1
 502 303 l 1,0,-1
489 1063 m 1,6,-1
 741 1063 l 1,7,-1
 741 760 l 1,8,-1
 489 760 l 1,9,-1
 489 1063 l 1,6,-1
EndSplineSet
EndChar
StartChar: less
Encoding: 60 60 60
Width: 1233
Flags: W
Fore
1145 961 m 1,0,-1
 295 641 l 1,1,-1
 1145 324 l 1,2,-1
 1145 141 l 1,3,-1
 88 559 l 1,4,-1
 88 725 l 1,5,-1
 1145 1143 l 1,6,-1
 1145 961 l 1,0,-1
EndSplineSet
EndChar
StartChar: equal
Encoding: 61 61 61
Width: 1233
Flags: W
Fore
88 524 m 1,0,-1
 1145 524 l 1,1,-1
 1145 352 l 1,2,-1
 88 352 l 1,3,-1
 88 524 l 1,0,-1
88 930 m 1,4,-1
 1145 930 l 1,5,-1
 1145 760 l 1,6,-1
 88 760 l 1,7,-1
 88 930 l 1,4,-1
EndSplineSet
EndChar
StartChar: greater
Encoding: 62 62 62
Width: 1233
Flags: W
Fore
88 961 m 1,0,-1
 88 1143 l 1,1,-1
 1145 725 l 1,2,-1
 1145 559 l 1,3,-1
 88 141 l 1,4,-1
 88 324 l 1,5,-1
 938 641 l 1,6,-1
 88 961 l 1,0,-1
EndSplineSet
EndChar
StartChar: question
Encoding: 63 63 63
Width: 1233
Flags: W
Fore
684 401 m 1,0,-1
 494 401 l 1,1,-1
 494 555 l 2,2,3
 494 653 494 653 524.5 721.5 c 128,-1,4
 555 790 555 790 639 872 c 2,5,-1
 729 961 l 1,6,7
 791 1020 791 1020 814.5 1064 c 128,-1,8
 838 1108 838 1108 838 1157 c 0,9,10
 838 1246 838 1246 772.5 1301 c 128,-1,11
 707 1356 707 1356 598 1356 c 0,12,13
 520 1356 520 1356 431 1321.5 c 128,-1,14
 342 1287 342 1287 244 1219 c 1,15,-1
 244 1407 l 1,16,17
 338 1464 338 1464 433.5 1492 c 128,-1,18
 529 1520 529 1520 633 1520 c 0,19,20
 819 1520 819 1520 929.5 1424 c 128,-1,21
 1040 1328 1040 1328 1040 1167 c 0,22,23
 1040 1091 1040 1091 1006.5 1025.5 c 128,-1,24
 973 960 973 960 879 868 c 2,25,-1
 791 782 l 2,26,27
 722 716 722 716 703 674 c 128,-1,28
 684 632 684 632 684 571 c 2,29,-1
 684 524 l 1,30,-1
 684 401 l 1,0,-1
487 254 m 1,31,-1
 690 254 l 1,32,-1
 690 0 l 1,33,-1
 487 0 l 1,34,-1
 487 254 l 1,31,-1
EndSplineSet
EndChar
StartChar: at
Encoding: 64 64 64
Width: 1233
Flags: W
Fore
1038 545 m 0,0,1
 1038 674 1038 674 974 751.5 c 128,-1,2
 910 829 910 829 803 829 c 0,3,4
 696 829 696 829 631.5 751.5 c 128,-1,5
 567 674 567 674 567 545 c 0,6,7
 567 415 567 415 631.5 337.5 c 128,-1,8
 696 260 696 260 803 260 c 0,9,10
 910 260 910 260 974 337.5 c 128,-1,11
 1038 415 1038 415 1038 545 c 0,0,1
1178 135 m 1,12,-1
 1034 135 l 1,13,-1
 1034 246 l 1,14,15
 997 183 997 183 931.5 149 c 128,-1,16
 866 115 866 115 784 115 c 0,17,18
 623 115 623 115 517.5 236 c 128,-1,19
 412 357 412 357 412 545 c 0,20,21
 412 733 412 733 517.5 854 c 128,-1,22
 623 975 623 975 784 975 c 0,23,24
 864 975 864 975 931 940 c 128,-1,25
 998 905 998 905 1034 844 c 1,26,-1
 1034 907 l 2,27,28
 1034 1063 1034 1063 946 1158 c 128,-1,29
 858 1253 858 1253 713 1253 c 0,30,31
 467 1253 467 1253 321.5 1061.5 c 128,-1,32
 176 870 176 870 176 543 c 0,33,34
 176 214 176 214 341 19 c 128,-1,35
 506 -176 506 -176 780 -176 c 0,36,37
 834 -176 834 -176 888 -166 c 128,-1,38
 942 -156 942 -156 999 -135 c 1,39,-1
 1047 -270 l 1,40,41
 984 -295 984 -295 922.5 -307 c 128,-1,42
 861 -319 861 -319 803 -319 c 0,43,44
 446 -319 446 -319 236.5 -86 c 128,-1,45
 27 147 27 147 27 543 c 0,46,47
 27 933 27 933 215 1164 c 128,-1,48
 403 1395 403 1395 719 1395 c 0,49,50
 928 1395 928 1395 1053 1262 c 128,-1,51
 1178 1129 1178 1129 1178 905 c 2,52,-1
 1178 135 l 1,12,-1
EndSplineSet
EndChar
StartChar: A
Encoding: 65 65 65
Width: 1233
Flags: W
Fore
616 1315 m 1,0,-1
 403 551 l 1,1,-1
 829 551 l 1,2,-1
 616 1315 l 1,0,-1
494 1493 m 1,3,-1
 739 1493 l 1,4,-1
 1196 0 l 1,5,-1
 987 0 l 1,6,-1
 877 389 l 1,7,-1
 354 389 l 1,8,-1
 246 0 l 1,9,-1
 37 0 l 1,10,-1
 494 1493 l 1,3,-1
EndSplineSet
EndChar
StartChar: B
Encoding: 66 66 66
Width: 1233
Flags: W
Fore
369 713 m 1,0,-1
 369 166 l 1,1,-1
 608 166 l 2,2,3
 784 166 784 166 859 227.5 c 128,-1,4
 934 289 934 289 934 430 c 0,5,6
 934 576 934 576 855 644.5 c 128,-1,7
 776 713 776 713 608 713 c 2,8,-1
 369 713 l 1,0,-1
369 1327 m 1,9,-1
 369 877 l 1,10,-1
 604 877 l 2,11,12
 750 877 750 877 815.5 933 c 128,-1,13
 881 989 881 989 881 1114 c 0,14,15
 881 1227 881 1227 816.5 1277 c 128,-1,16
 752 1327 752 1327 604 1327 c 2,17,-1
 369 1327 l 1,9,-1
166 1493 m 1,18,-1
 608 1493 l 2,19,20
 837 1493 837 1493 961 1394 c 128,-1,21
 1085 1295 1085 1295 1085 1114 c 0,22,23
 1085 977 1085 977 1019.5 898 c 128,-1,24
 954 819 954 819 823 799 c 1,25,26
 970 777 970 777 1053.5 673.5 c 128,-1,27
 1137 570 1137 570 1137 410 c 0,28,29
 1137 207 1137 207 1004 103.5 c 128,-1,30
 871 0 871 0 608 0 c 2,31,-1
 166 0 l 1,32,-1
 166 1493 l 1,18,-1
EndSplineSet
EndChar
StartChar: C
Encoding: 67 67 67
Width: 1233
Flags: W
Fore
1073 53 m 1,0,1
 996 12 996 12 915 -8.5 c 128,-1,2
 834 -29 834 -29 743 -29 c 0,3,4
 456 -29 456 -29 297.5 174 c 128,-1,5
 139 377 139 377 139 745 c 0,6,7
 139 1111 139 1111 298.5 1315.5 c 128,-1,8
 458 1520 458 1520 743 1520 c 0,9,10
 834 1520 834 1520 915 1499.5 c 128,-1,11
 996 1479 996 1479 1073 1438 c 1,12,-1
 1073 1231 l 1,13,14
 999 1292 999 1292 914 1324 c 128,-1,15
 829 1356 829 1356 743 1356 c 0,16,17
 546 1356 546 1356 448 1204 c 128,-1,18
 350 1052 350 1052 350 745 c 0,19,20
 350 439 350 439 448 287 c 128,-1,21
 546 135 546 135 743 135 c 0,22,23
 831 135 831 135 915.5 167 c 128,-1,24
 1000 199 1000 199 1073 260 c 1,25,-1
 1073 53 l 1,0,1
EndSplineSet
EndChar
StartChar: D
Encoding: 68 68 68
Width: 1233
Flags: W
Fore
436 166 m 2,0,1
 691 166 691 166 792 291.5 c 128,-1,2
 893 417 893 417 893 745 c 0,3,4
 893 1076 893 1076 792.5 1201.5 c 128,-1,5
 692 1327 692 1327 436 1327 c 2,6,-1
 340 1327 l 1,7,-1
 340 166 l 1,8,-1
 436 166 l 2,0,1
440 1493 m 2,9,10
 782 1493 782 1493 944 1311 c 128,-1,11
 1106 1129 1106 1129 1106 745 c 0,12,13
 1106 363 1106 363 944 181.5 c 128,-1,14
 782 0 782 0 440 0 c 2,15,-1
 137 0 l 1,16,-1
 137 1493 l 1,17,-1
 440 1493 l 2,9,10
EndSplineSet
EndChar
StartChar: E
Encoding: 69 69 69
Width: 1233
Flags: W
Fore
197 1493 m 1,0,-1
 1083 1493 l 1,1,-1
 1083 1323 l 1,2,-1
 399 1323 l 1,3,-1
 399 881 l 1,4,-1
 1053 881 l 1,5,-1
 1053 711 l 1,6,-1
 399 711 l 1,7,-1
 399 170 l 1,8,-1
 1102 170 l 1,9,-1
 1102 0 l 1,10,-1
 197 0 l 1,11,-1
 197 1493 l 1,0,-1
EndSplineSet
EndChar
StartChar: F
Encoding: 70 70 70
Width: 1233
Flags: W
Fore
233 1493 m 1,0,-1
 1112 1493 l 1,1,-1
 1112 1323 l 1,2,-1
 436 1323 l 1,3,-1
 436 883 l 1,4,-1
 1049 883 l 1,5,-1
 1049 713 l 1,6,-1
 436 713 l 1,7,-1
 436 0 l 1,8,-1
 233 0 l 1,9,-1
 233 1493 l 1,0,-1
EndSplineSet
EndChar
StartChar: G
Encoding: 71 71 71
Width: 1233
Flags: W
Fore
1104 123 m 1,0,1
 1023 48 1023 48 921.5 9.5 c 128,-1,2
 820 -29 820 -29 702 -29 c 0,3,4
 418 -29 418 -29 260 174.5 c 128,-1,5
 102 378 102 378 102 745 c 0,6,7
 102 1111 102 1111 262 1315.5 c 128,-1,8
 422 1520 422 1520 707 1520 c 0,9,10
 801 1520 801 1520 887 1493.5 c 128,-1,11
 973 1467 973 1467 1053 1413 c 1,12,-1
 1053 1206 l 1,13,14
 972 1283 972 1283 887 1319.5 c 128,-1,15
 802 1356 802 1356 707 1356 c 0,16,17
 510 1356 510 1356 411.5 1203.5 c 128,-1,18
 313 1051 313 1051 313 745 c 0,19,20
 313 434 313 434 408.5 284.5 c 128,-1,21
 504 135 504 135 702 135 c 0,22,23
 769 135 769 135 819.5 150.5 c 128,-1,24
 870 166 870 166 911 199 c 1,25,-1
 911 600 l 1,26,-1
 694 600 l 1,27,-1
 694 766 l 1,28,-1
 1104 766 l 1,29,-1
 1104 123 l 1,0,1
EndSplineSet
EndChar
StartChar: H
Encoding: 72 72 72
Width: 1233
Flags: W
Fore
137 1493 m 1,0,-1
 340 1493 l 1,1,-1
 340 881 l 1,2,-1
 893 881 l 1,3,-1
 893 1493 l 1,4,-1
 1096 1493 l 1,5,-1
 1096 0 l 1,6,-1
 893 0 l 1,7,-1
 893 711 l 1,8,-1
 340 711 l 1,9,-1
 340 0 l 1,10,-1
 137 0 l 1,11,-1
 137 1493 l 1,0,-1
EndSplineSet
EndChar
StartChar: I
Encoding: 73 73 73
Width: 1233
Flags: W
Fore
201 1493 m 1,0,-1
 1030 1493 l 1,1,-1
 1030 1323 l 1,2,-1
 717 1323 l 1,3,-1
 717 170 l 1,4,-1
 1030 170 l 1,5,-1
 1030 0 l 1,6,-1
 201 0 l 1,7,-1
 201 170 l 1,8,-1
 514 170 l 1,9,-1
 514 1323 l 1,10,-1
 201 1323 l 1,11,-1
 201 1493 l 1,0,-1
EndSplineSet
EndChar
StartChar: J
Encoding: 74 74 74
Width: 1233
Flags: W
Fore
109 61 m 1,0,-1
 109 297 l 1,1,2
 200 216 200 216 297 175.5 c 128,-1,3
 394 135 394 135 498 135 c 0,4,5
 641 135 641 135 697.5 209.5 c 128,-1,6
 754 284 754 284 754 487 c 2,7,-1
 754 1323 l 1,8,-1
 373 1323 l 1,9,-1
 373 1493 l 1,10,-1
 956 1493 l 1,11,-1
 956 487 l 2,12,13
 956 205 956 205 850.5 88 c 128,-1,14
 745 -29 745 -29 498 -29 c 0,15,16
 402 -29 402 -29 307 -7 c 128,-1,17
 212 15 212 15 109 61 c 1,0,-1
EndSplineSet
EndChar
StartChar: K
Encoding: 75 75 75
Width: 1233
Flags: W
Fore
137 1493 m 1,0,-1
 340 1493 l 1,1,-1
 340 829 l 1,2,-1
 971 1493 l 1,3,-1
 1208 1493 l 1,4,-1
 627 883 l 1,5,-1
 1225 0 l 1,6,-1
 981 0 l 1,7,-1
 494 748 l 1,8,-1
 340 584 l 1,9,-1
 340 0 l 1,10,-1
 137 0 l 1,11,-1
 137 1493 l 1,0,-1
EndSplineSet
EndChar
StartChar: L
Encoding: 76 76 76
Width: 1233
Flags: W
Fore
215 1493 m 1,0,-1
 418 1493 l 1,1,-1
 418 170 l 1,2,-1
 1139 170 l 1,3,-1
 1139 0 l 1,4,-1
 215 0 l 1,5,-1
 215 1493 l 1,0,-1
EndSplineSet
EndChar
StartChar: M
Encoding: 77 77 77
Width: 1233
Flags: W
Fore
86 1493 m 1,0,-1
 356 1493 l 1,1,-1
 614 733 l 1,2,-1
 874 1493 l 1,3,-1
 1145 1493 l 1,4,-1
 1145 0 l 1,5,-1
 958 0 l 1,6,-1
 958 1319 l 1,7,-1
 692 532 l 1,8,-1
 539 532 l 1,9,-1
 272 1319 l 1,10,-1
 272 0 l 1,11,-1
 86 0 l 1,12,-1
 86 1493 l 1,0,-1
EndSplineSet
EndChar
StartChar: N
Encoding: 78 78 78
Width: 1233
Flags: W
Fore
139 1493 m 1,0,-1
 395 1493 l 1,1,-1
 899 264 l 1,2,-1
 899 1493 l 1,3,-1
 1094 1493 l 1,4,-1
 1094 0 l 1,5,-1
 838 0 l 1,6,-1
 334 1229 l 1,7,-1
 334 0 l 1,8,-1
 139 0 l 1,9,-1
 139 1493 l 1,0,-1
EndSplineSet
EndChar
StartChar: O
Encoding: 79 79 79
Width: 1233
Flags: W
Fore
905 745 m 0,0,1
 905 1074 905 1074 837.5 1215 c 128,-1,2
 770 1356 770 1356 616 1356 c 0,3,4
 463 1356 463 1356 395.5 1215 c 128,-1,5
 328 1074 328 1074 328 745 c 0,6,7
 328 417 328 417 395.5 276 c 128,-1,8
 463 135 463 135 616 135 c 0,9,10
 770 135 770 135 837.5 275.5 c 128,-1,11
 905 416 905 416 905 745 c 0,0,1
1116 745 m 0,12,13
 1116 355 1116 355 992.5 163 c 128,-1,14
 869 -29 869 -29 616 -29 c 0,15,16
 363 -29 363 -29 240 162 c 128,-1,17
 117 353 117 353 117 745 c 0,18,19
 117 1136 117 1136 240.5 1328 c 128,-1,20
 364 1520 364 1520 616 1520 c 0,21,22
 869 1520 869 1520 992.5 1328 c 128,-1,23
 1116 1136 1116 1136 1116 745 c 0,12,13
EndSplineSet
EndChar
StartChar: P
Encoding: 80 80 80
Width: 1233
Flags: W
Fore
399 1327 m 1,0,-1
 399 766 l 1,1,-1
 633 766 l 2,2,3
 773 766 773 766 851.5 840 c 128,-1,4
 930 914 930 914 930 1047 c 0,5,6
 930 1180 930 1180 852 1253.5 c 128,-1,7
 774 1327 774 1327 633 1327 c 2,8,-1
 399 1327 l 1,0,-1
197 1493 m 1,9,-1
 633 1493 l 2,10,11
 883 1493 883 1493 1012 1379.5 c 128,-1,12
 1141 1266 1141 1266 1141 1047 c 0,13,14
 1141 826 1141 826 1012.5 713 c 128,-1,15
 884 600 884 600 633 600 c 2,16,-1
 399 600 l 1,17,-1
 399 0 l 1,18,-1
 197 0 l 1,19,-1
 197 1493 l 1,9,-1
EndSplineSet
EndChar
StartChar: Q
Encoding: 81 81 81
Width: 1233
Flags: W
Fore
655 -27 m 1,0,1
 648 -27 648 -27 635 -28 c 128,-1,2
 622 -29 622 -29 614 -29 c 0,3,4
 364 -29 364 -29 240.5 163 c 128,-1,5
 117 355 117 355 117 745 c 0,6,7
 117 1136 117 1136 240.5 1328 c 128,-1,8
 364 1520 364 1520 616 1520 c 0,9,10
 869 1520 869 1520 992.5 1328 c 128,-1,11
 1116 1136 1116 1136 1116 745 c 0,12,13
 1116 451 1116 451 1047.5 271.5 c 128,-1,14
 979 92 979 92 840 20 c 1,15,-1
 1040 -170 l 1,16,-1
 889 -270 l 1,17,-1
 655 -27 l 1,0,1
905 745 m 0,18,19
 905 1074 905 1074 837.5 1215 c 128,-1,20
 770 1356 770 1356 616 1356 c 0,21,22
 463 1356 463 1356 395.5 1215 c 128,-1,23
 328 1074 328 1074 328 745 c 0,24,25
 328 417 328 417 395.5 276 c 128,-1,26
 463 135 463 135 616 135 c 0,27,28
 770 135 770 135 837.5 275.5 c 128,-1,29
 905 416 905 416 905 745 c 0,18,19
EndSplineSet
EndChar
StartChar: R
Encoding: 82 82 82
Width: 1233
Flags: W
Fore
760 705 m 1,0,1
 838 685 838 685 893 629.5 c 128,-1,2
 948 574 948 574 1030 408 c 2,3,-1
 1233 0 l 1,4,-1
 1016 0 l 1,5,-1
 838 377 l 1,6,7
 761 538 761 538 699.5 584.5 c 128,-1,8
 638 631 638 631 539 631 c 2,9,-1
 346 631 l 1,10,-1
 346 0 l 1,11,-1
 143 0 l 1,12,-1
 143 1493 l 1,13,-1
 559 1493 l 2,14,15
 805 1493 805 1493 936 1382 c 128,-1,16
 1067 1271 1067 1271 1067 1061 c 0,17,18
 1067 913 1067 913 986.5 819.5 c 128,-1,19
 906 726 906 726 760 705 c 1,0,1
346 1327 m 1,20,-1
 346 797 l 1,21,-1
 567 797 l 2,22,23
 712 797 712 797 783 862 c 128,-1,24
 854 927 854 927 854 1061 c 0,25,26
 854 1190 854 1190 778.5 1258.5 c 128,-1,27
 703 1327 703 1327 559 1327 c 2,28,-1
 346 1327 l 1,20,-1
EndSplineSet
EndChar
StartChar: S
Encoding: 83 83 83
Width: 1233
Flags: W
Fore
1012 1442 m 1,0,-1
 1012 1237 l 1,1,2
 920 1296 920 1296 827.5 1326 c 128,-1,3
 735 1356 735 1356 641 1356 c 0,4,5
 498 1356 498 1356 415 1289.5 c 128,-1,6
 332 1223 332 1223 332 1110 c 0,7,8
 332 1011 332 1011 386.5 959 c 128,-1,9
 441 907 441 907 590 872 c 2,10,-1
 696 848 l 2,11,12
 906 799 906 799 1002 694 c 128,-1,13
 1098 589 1098 589 1098 408 c 0,14,15
 1098 195 1098 195 966 83 c 128,-1,16
 834 -29 834 -29 582 -29 c 0,17,18
 477 -29 477 -29 371 -6.5 c 128,-1,19
 265 16 265 16 158 61 c 1,20,-1
 158 276 l 1,21,22
 273 203 273 203 375.5 169 c 128,-1,23
 478 135 478 135 582 135 c 0,24,25
 735 135 735 135 820 203.5 c 128,-1,26
 905 272 905 272 905 395 c 0,27,28
 905 507 905 507 846.5 566 c 128,-1,29
 788 625 788 625 643 657 c 2,30,-1
 535 682 l 2,31,32
 327 729 327 729 233 824 c 128,-1,33
 139 919 139 919 139 1079 c 0,34,35
 139 1279 139 1279 273.5 1399.5 c 128,-1,36
 408 1520 408 1520 631 1520 c 0,37,38
 717 1520 717 1520 812 1500.5 c 128,-1,39
 907 1481 907 1481 1012 1442 c 1,0,-1
EndSplineSet
EndChar
StartChar: T
Encoding: 84 84 84
Width: 1233
Flags: W
Fore
47 1493 m 1,0,-1
 1186 1493 l 1,1,-1
 1186 1323 l 1,2,-1
 719 1323 l 1,3,-1
 719 0 l 1,4,-1
 516 0 l 1,5,-1
 516 1323 l 1,6,-1
 47 1323 l 1,7,-1
 47 1493 l 1,0,-1
EndSplineSet
EndChar
StartChar: U
Encoding: 85 85 85
Width: 1233
Flags: W
Fore
147 573 m 2,0,-1
 147 1493 l 1,1,-1
 350 1493 l 1,2,-1
 350 481 l 2,3,4
 350 372 350 372 356 325.5 c 128,-1,5
 362 279 362 279 377 254 c 1,6,7
 409 195 409 195 469.5 165 c 128,-1,8
 530 135 530 135 616 135 c 0,9,10
 703 135 703 135 763 165 c 128,-1,11
 823 195 823 195 856 254 c 0,12,13
 871 279 871 279 877 325 c 128,-1,14
 883 371 883 371 883 479 c 2,15,-1
 883 573 l 1,16,-1
 883 1493 l 1,17,-1
 1085 1493 l 1,18,-1
 1085 573 l 2,19,20
 1085 344 1085 344 1056.5 247.5 c 128,-1,21
 1028 151 1028 151 958 88 c 0,22,23
 892 29 892 29 807 0 c 128,-1,24
 722 -29 722 -29 616 -29 c 0,25,26
 511 -29 511 -29 426 0 c 128,-1,27
 341 29 341 29 274 88 c 0,28,29
 205 150 205 150 176 248.5 c 128,-1,30
 147 347 147 347 147 573 c 2,0,-1
EndSplineSet
EndChar
StartChar: V
Encoding: 86 86 86
Width: 1233
Flags: W
Fore
616 170 m 1,0,-1
 967 1493 l 1,1,-1
 1176 1493 l 1,2,-1
 739 0 l 1,3,-1
 494 0 l 1,4,-1
 57 1493 l 1,5,-1
 266 1493 l 1,6,-1
 616 170 l 1,0,-1
EndSplineSet
EndChar
StartChar: W
Encoding: 87 87 87
Width: 1233
Flags: W
Fore
0 1493 m 1,0,-1
 197 1493 l 1,1,-1
 340 281 l 1,2,-1
 510 1083 l 1,3,-1
 721 1083 l 1,4,-1
 893 279 l 1,5,-1
 1036 1493 l 1,6,-1
 1233 1493 l 1,7,-1
 1010 0 l 1,8,-1
 819 0 l 1,9,-1
 616 887 l 1,10,-1
 414 0 l 1,11,-1
 223 0 l 1,12,-1
 0 1493 l 1,0,-1
EndSplineSet
EndChar
StartChar: X
Encoding: 88 88 88
Width: 1233
Flags: W
Fore
86 1493 m 1,0,-1
 303 1493 l 1,1,-1
 631 930 l 1,2,-1
 965 1493 l 1,3,-1
 1182 1493 l 1,4,-1
 735 791 l 1,5,-1
 1214 0 l 1,6,-1
 997 0 l 1,7,-1
 631 643 l 1,8,-1
 236 0 l 1,9,-1
 18 0 l 1,10,-1
 518 791 l 1,11,-1
 86 1493 l 1,0,-1
EndSplineSet
EndChar
StartChar: Y
Encoding: 89 89 89
Width: 1233
Flags: W
Fore
37 1493 m 1,0,-1
 252 1493 l 1,1,-1
 616 834 l 1,2,-1
 979 1493 l 1,3,-1
 1196 1493 l 1,4,-1
 717 670 l 1,5,-1
 717 0 l 1,6,-1
 514 0 l 1,7,-1
 514 670 l 1,8,-1
 37 1493 l 1,0,-1
EndSplineSet
EndChar
StartChar: Z
Encoding: 90 90 90
Width: 1233
Flags: W
Fore
178 1493 m 1,0,-1
 1147 1493 l 1,1,-1
 1147 1339 l 1,2,-1
 367 170 l 1,3,-1
 1169 170 l 1,4,-1
 1169 0 l 1,5,-1
 156 0 l 1,6,-1
 156 154 l 1,7,-1
 915 1323 l 1,8,-1
 178 1323 l 1,9,-1
 178 1493 l 1,0,-1
EndSplineSet
EndChar
StartChar: bracketleft
Encoding: 91 91 91
Width: 1233
Flags: W
Fore
463 1556 m 1,0,-1
 887 1556 l 1,1,-1
 887 1413 l 1,2,-1
 647 1413 l 1,3,-1
 647 -127 l 1,4,-1
 887 -127 l 1,5,-1
 887 -270 l 1,6,-1
 463 -270 l 1,7,-1
 463 1556 l 1,0,-1
EndSplineSet
EndChar
StartChar: backslash
Encoding: 92 92 92
Width: 1233
Flags: W
Fore
293 1493 m 1,0,-1
 1079 -190 l 1,1,-1
 889 -190 l 1,2,-1
 102 1493 l 1,3,-1
 293 1493 l 1,0,-1
EndSplineSet
EndChar
StartChar: bracketright
Encoding: 93 93 93
Width: 1233
Flags: W
Fore
770 1556 m 1,0,-1
 770 -270 l 1,1,-1
 346 -270 l 1,2,-1
 346 -127 l 1,3,-1
 586 -127 l 1,4,-1
 586 1413 l 1,5,-1
 346 1413 l 1,6,-1
 346 1556 l 1,7,-1
 770 1556 l 1,0,-1
EndSplineSet
EndChar
StartChar: asciicircum
Encoding: 94 94 94
Width: 1233
Flags: W
Fore
705 1493 m 1,0,-1
 1161 936 l 1,1,-1
 983 936 l 1,2,-1
 616 1331 l 1,3,-1
 250 936 l 1,4,-1
 72 936 l 1,5,-1
 528 1493 l 1,6,-1
 705 1493 l 1,0,-1
EndSplineSet
EndChar
StartChar: underscore
Encoding: 95 95 95
Width: 1233
Flags: W
Fore
1233 -403 m 1,0,-1
 1233 -483 l 1,1,-1
 0 -483 l 1,2,-1
 0 -403 l 1,3,-1
 1233 -403 l 1,0,-1
EndSplineSet
EndChar
StartChar: grave
Encoding: 96 96 96
Width: 1233
Flags: W
Fore
477 1638 m 1,0,-1
 758 1262 l 1,1,-1
 604 1262 l 1,2,-1
 279 1638 l 1,3,-1
 477 1638 l 1,0,-1
EndSplineSet
EndChar
StartChar: a
Encoding: 97 97 97
Width: 1233
Flags: W
Fore
702 563 m 1,0,-1
 641 563 l 2,1,2
 480 563 480 563 398.5 506.5 c 128,-1,3
 317 450 317 450 317 338 c 0,4,5
 317 237 317 237 378 181 c 128,-1,6
 439 125 439 125 547 125 c 0,7,8
 699 125 699 125 786 230.5 c 128,-1,9
 873 336 873 336 874 522 c 1,10,-1
 874 563 l 1,11,-1
 702 563 l 1,0,-1
1059 639 m 2,12,-1
 1059 0 l 1,13,-1
 874 0 l 1,14,-1
 874 166 l 1,15,16
 815 66 815 66 725.5 18.5 c 128,-1,17
 636 -29 636 -29 508 -29 c 0,18,19
 337 -29 337 -29 235 67.5 c 128,-1,20
 133 164 133 164 133 326 c 0,21,22
 133 513 133 513 258.5 610 c 128,-1,23
 384 707 384 707 627 707 c 2,24,-1
 874 707 l 1,25,-1
 874 736 l 1,26,27
 873 870 873 870 806 930.5 c 128,-1,28
 739 991 739 991 592 991 c 0,29,30
 498 991 498 991 402 964 c 128,-1,31
 306 937 306 937 215 885 c 1,32,-1
 215 1069 l 1,33,34
 317 1108 317 1108 410.5 1127.5 c 128,-1,35
 504 1147 504 1147 592 1147 c 0,36,37
 731 1147 731 1147 829.5 1106 c 128,-1,38
 928 1065 928 1065 989 983 c 0,39,40
 1027 933 1027 933 1043 859.5 c 128,-1,41
 1059 786 1059 786 1059 639 c 2,12,-1
EndSplineSet
EndChar
StartChar: b
Encoding: 98 98 98
Width: 1233
Flags: W
Fore
918 559 m 0,0,1
 918 773 918 773 850 882 c 128,-1,2
 782 991 782 991 649 991 c 0,3,4
 515 991 515 991 446 881.5 c 128,-1,5
 377 772 377 772 377 559 c 0,6,7
 377 347 377 347 446 237 c 128,-1,8
 515 127 515 127 649 127 c 0,9,10
 782 127 782 127 850 236 c 128,-1,11
 918 345 918 345 918 559 c 0,0,1
377 977 m 1,12,13
 421 1059 421 1059 498.5 1103 c 128,-1,14
 576 1147 576 1147 678 1147 c 0,15,16
 880 1147 880 1147 996 991.5 c 128,-1,17
 1112 836 1112 836 1112 563 c 0,18,19
 1112 286 1112 286 995.5 128.5 c 128,-1,20
 879 -29 879 -29 676 -29 c 0,21,22
 576 -29 576 -29 499.5 14.5 c 128,-1,23
 423 58 423 58 377 141 c 1,24,-1
 377 0 l 1,25,-1
 193 0 l 1,26,-1
 193 1556 l 1,27,-1
 377 1556 l 1,28,-1
 377 977 l 1,12,13
EndSplineSet
EndChar
StartChar: c
Encoding: 99 99 99
Width: 1233
Flags: W
Fore
1061 57 m 1,0,1
 987 14 987 14 908.5 -7.5 c 128,-1,2
 830 -29 830 -29 748 -29 c 0,3,4
 488 -29 488 -29 341.5 127 c 128,-1,5
 195 283 195 283 195 559 c 0,6,7
 195 835 195 835 341.5 991 c 128,-1,8
 488 1147 488 1147 748 1147 c 0,9,10
 829 1147 829 1147 906 1126 c 128,-1,11
 983 1105 983 1105 1061 1061 c 1,12,-1
 1061 868 l 1,13,14
 988 933 988 933 914.5 962 c 128,-1,15
 841 991 841 991 748 991 c 0,16,17
 575 991 575 991 482 879 c 128,-1,18
 389 767 389 767 389 559 c 0,19,20
 389 352 389 352 482.5 239.5 c 128,-1,21
 576 127 576 127 748 127 c 0,22,23
 844 127 844 127 920 156.5 c 128,-1,24
 996 186 996 186 1061 248 c 1,25,-1
 1061 57 l 1,0,1
EndSplineSet
EndChar
StartChar: d
Encoding: 100 100 100
Width: 1233
Flags: W
Fore
858 977 m 1,0,-1
 858 1556 l 1,1,-1
 1042 1556 l 1,2,-1
 1042 0 l 1,3,-1
 858 0 l 1,4,-1
 858 141 l 1,5,6
 812 58 812 58 735.5 14.5 c 128,-1,7
 659 -29 659 -29 559 -29 c 0,8,9
 356 -29 356 -29 239.5 128.5 c 128,-1,10
 123 286 123 286 123 563 c 0,11,12
 123 836 123 836 240 991.5 c 128,-1,13
 357 1147 357 1147 559 1147 c 0,14,15
 660 1147 660 1147 737 1103.5 c 128,-1,16
 814 1060 814 1060 858 977 c 1,0,-1
317 559 m 0,17,18
 317 345 317 345 385 236 c 128,-1,19
 453 127 453 127 586 127 c 0,20,21
 719 127 719 127 788.5 237 c 128,-1,22
 858 347 858 347 858 559 c 0,23,24
 858 772 858 772 788.5 881.5 c 128,-1,25
 719 991 719 991 586 991 c 0,26,27
 453 991 453 991 385 882 c 128,-1,28
 317 773 317 773 317 559 c 0,17,18
EndSplineSet
EndChar
StartChar: e
Encoding: 101 101 101
Width: 1233
Flags: W
Fore
1112 606 m 2,0,-1
 1112 516 l 1,1,-1
 315 516 l 1,2,-1
 315 510 l 2,3,4
 315 327 315 327 410.5 227 c 128,-1,5
 506 127 506 127 680 127 c 0,6,7
 768 127 768 127 864 155 c 128,-1,8
 960 183 960 183 1069 240 c 1,9,-1
 1069 57 l 1,10,11
 964 14 964 14 866.5 -7.5 c 128,-1,12
 769 -29 769 -29 678 -29 c 0,13,14
 417 -29 417 -29 270 127.5 c 128,-1,15
 123 284 123 284 123 559 c 0,16,17
 123 827 123 827 267 987 c 128,-1,18
 411 1147 411 1147 651 1147 c 0,19,20
 865 1147 865 1147 988.5 1002 c 128,-1,21
 1112 857 1112 857 1112 606 c 2,0,-1
928 660 m 1,22,23
 924 822 924 822 851.5 906.5 c 128,-1,24
 779 991 779 991 643 991 c 0,25,26
 510 991 510 991 424 903 c 128,-1,27
 338 815 338 815 322 659 c 1,28,-1
 928 660 l 1,22,23
EndSplineSet
EndChar
StartChar: f
Encoding: 102 102 102
Width: 1233
Flags: W
Fore
1063 1556 m 1,0,-1
 1063 1403 l 1,1,-1
 854 1403 l 2,2,3
 755 1403 755 1403 716.5 1362.5 c 128,-1,4
 678 1322 678 1322 678 1219 c 2,5,-1
 678 1120 l 1,6,-1
 1063 1120 l 1,7,-1
 1063 977 l 1,8,-1
 678 977 l 1,9,-1
 678 0 l 1,10,-1
 494 0 l 1,11,-1
 494 977 l 1,12,-1
 195 977 l 1,13,-1
 195 1120 l 1,14,-1
 494 1120 l 1,15,-1
 494 1198 l 2,16,17
 494 1382 494 1382 578.5 1469 c 128,-1,18
 663 1556 663 1556 842 1556 c 2,19,-1
 1063 1556 l 1,0,-1
EndSplineSet
EndChar
StartChar: g
Encoding: 103 103 103
Width: 1233
Flags: W
Fore
858 569 m 0,0,1
 858 776 858 776 790.5 883.5 c 128,-1,2
 723 991 723 991 594 991 c 0,3,4
 459 991 459 991 388 883.5 c 128,-1,5
 317 776 317 776 317 569 c 0,6,7
 317 362 317 362 388.5 253.5 c 128,-1,8
 460 145 460 145 596 145 c 0,9,10
 723 145 723 145 790.5 254 c 128,-1,11
 858 363 858 363 858 569 c 0,0,1
1042 72 m 2,12,13
 1042 -180 1042 -180 923 -310 c 128,-1,14
 804 -440 804 -440 573 -440 c 0,15,16
 497 -440 497 -440 414 -426 c 128,-1,17
 331 -412 331 -412 248 -385 c 1,18,-1
 248 -203 l 1,19,20
 346 -249 346 -249 426 -271 c 128,-1,21
 506 -293 506 -293 573 -293 c 0,22,23
 722 -293 722 -293 790 -212 c 128,-1,24
 858 -131 858 -131 858 45 c 2,25,-1
 858 53 l 1,26,-1
 858 178 l 1,27,28
 814 84 814 84 738 38 c 128,-1,29
 662 -8 662 -8 553 -8 c 0,30,31
 357 -8 357 -8 240 149 c 128,-1,32
 123 306 123 306 123 569 c 0,33,34
 123 833 123 833 240 990 c 128,-1,35
 357 1147 357 1147 553 1147 c 0,36,37
 661 1147 661 1147 736 1104 c 128,-1,38
 811 1061 811 1061 858 971 c 1,39,-1
 858 1116 l 1,40,-1
 1042 1116 l 1,41,-1
 1042 72 l 2,12,13
EndSplineSet
EndChar
StartChar: h
Encoding: 104 104 104
Width: 1233
Flags: W
Fore
1051 694 m 2,0,-1
 1051 0 l 1,1,-1
 866 0 l 1,2,-1
 866 694 l 2,3,4
 866 845 866 845 813 916 c 128,-1,5
 760 987 760 987 647 987 c 0,6,7
 518 987 518 987 448.5 895.5 c 128,-1,8
 379 804 379 804 379 633 c 2,9,-1
 379 0 l 1,10,-1
 195 0 l 1,11,-1
 195 1556 l 1,12,-1
 379 1556 l 1,13,-1
 379 952 l 1,14,15
 428 1048 428 1048 512 1097.5 c 128,-1,16
 596 1147 596 1147 711 1147 c 0,17,18
 882 1147 882 1147 966.5 1034.5 c 128,-1,19
 1051 922 1051 922 1051 694 c 2,0,-1
EndSplineSet
EndChar
StartChar: i
Encoding: 105 105 105
Width: 1233
Flags: W
Fore
256 1120 m 1,0,-1
 727 1120 l 1,1,-1
 727 143 l 1,2,-1
 1092 143 l 1,3,-1
 1092 0 l 1,4,-1
 178 0 l 1,5,-1
 178 143 l 1,6,-1
 543 143 l 1,7,-1
 543 977 l 1,8,-1
 256 977 l 1,9,-1
 256 1120 l 1,0,-1
543 1556 m 1,10,-1
 727 1556 l 1,11,-1
 727 1323 l 1,12,-1
 543 1323 l 1,13,-1
 543 1556 l 1,10,-1
EndSplineSet
EndChar
StartChar: j
Encoding: 106 106 106
Width: 1233
Flags: W
Fore
600 -20 m 2,0,-1
 600 977 l 1,1,-1
 283 977 l 1,2,-1
 283 1120 l 1,3,-1
 784 1120 l 1,4,-1
 784 -20 l 2,5,6
 784 -215 784 -215 694.5 -320.5 c 128,-1,7
 605 -426 605 -426 440 -426 c 2,8,-1
 186 -426 l 1,9,-1
 186 -270 l 1,10,-1
 420 -270 l 2,11,12
 510 -270 510 -270 555 -207.5 c 128,-1,13
 600 -145 600 -145 600 -20 c 2,0,-1
600 1556 m 1,14,-1
 784 1556 l 1,15,-1
 784 1323 l 1,16,-1
 600 1323 l 1,17,-1
 600 1556 l 1,14,-1
EndSplineSet
EndChar
StartChar: k
Encoding: 107 107 107
Width: 1233
Flags: W
Fore
236 1556 m 1,0,-1
 426 1556 l 1,1,-1
 426 655 l 1,2,-1
 909 1120 l 1,3,-1
 1133 1120 l 1,4,-1
 692 698 l 1,5,-1
 1202 0 l 1,6,-1
 977 0 l 1,7,-1
 563 578 l 1,8,-1
 426 449 l 1,9,-1
 426 0 l 1,10,-1
 236 0 l 1,11,-1
 236 1556 l 1,0,-1
EndSplineSet
EndChar
StartChar: l
Encoding: 108 108 108
Width: 1233
Flags: W
Fore
639 406 m 2,0,1
 639 282 639 282 684.5 219 c 128,-1,2
 730 156 730 156 819 156 c 2,3,-1
 1034 156 l 1,4,-1
 1034 0 l 1,5,-1
 801 0 l 2,6,7
 636 0 636 0 545.5 106 c 128,-1,8
 455 212 455 212 455 406 c 2,9,-1
 455 1423 l 1,10,-1
 160 1423 l 1,11,-1
 160 1567 l 1,12,-1
 639 1567 l 1,13,-1
 639 406 l 2,0,1
EndSplineSet
EndChar
StartChar: m
Encoding: 109 109 109
Width: 1233
Flags: W
Fore
676 1006 m 1,0,1
 710 1078 710 1078 762.5 1112.5 c 128,-1,2
 815 1147 815 1147 889 1147 c 0,3,4
 1024 1147 1024 1147 1079.5 1042.5 c 128,-1,5
 1135 938 1135 938 1135 649 c 2,6,-1
 1135 0 l 1,7,-1
 967 0 l 1,8,-1
 967 641 l 2,9,10
 967 878 967 878 940.5 935.5 c 128,-1,11
 914 993 914 993 844 993 c 0,12,13
 764 993 764 993 734.5 931.5 c 128,-1,14
 705 870 705 870 705 641 c 2,15,-1
 705 0 l 1,16,-1
 537 0 l 1,17,-1
 537 641 l 2,18,19
 537 881 537 881 508.5 937 c 128,-1,20
 480 993 480 993 406 993 c 0,21,22
 333 993 333 993 304.5 931.5 c 128,-1,23
 276 870 276 870 276 641 c 2,24,-1
 276 0 l 1,25,-1
 109 0 l 1,26,-1
 109 1120 l 1,27,-1
 276 1120 l 1,28,-1
 276 1024 l 1,29,30
 309 1084 309 1084 358.5 1115.5 c 128,-1,31
 408 1147 408 1147 471 1147 c 0,32,33
 547 1147 547 1147 597.5 1112 c 128,-1,34
 648 1077 648 1077 676 1006 c 1,0,1
EndSplineSet
EndChar
StartChar: n
Encoding: 110 110 110
Width: 1233
Flags: W
Fore
1051 694 m 2,0,-1
 1051 0 l 1,1,-1
 866 0 l 1,2,-1
 866 694 l 2,3,4
 866 845 866 845 813 916 c 128,-1,5
 760 987 760 987 647 987 c 0,6,7
 518 987 518 987 448.5 895.5 c 128,-1,8
 379 804 379 804 379 633 c 2,9,-1
 379 0 l 1,10,-1
 195 0 l 1,11,-1
 195 1120 l 1,12,-1
 379 1120 l 1,13,-1
 379 952 l 1,14,15
 428 1048 428 1048 512 1097.5 c 128,-1,16
 596 1147 596 1147 711 1147 c 0,17,18
 882 1147 882 1147 966.5 1034.5 c 128,-1,19
 1051 922 1051 922 1051 694 c 2,0,-1
EndSplineSet
EndChar
StartChar: o
Encoding: 111 111 111
Width: 1233
Flags: W
Fore
616 991 m 0,0,1
 476 991 476 991 404 882 c 128,-1,2
 332 773 332 773 332 559 c 0,3,4
 332 346 332 346 404 236.5 c 128,-1,5
 476 127 476 127 616 127 c 0,6,7
 757 127 757 127 829 236.5 c 128,-1,8
 901 346 901 346 901 559 c 0,9,10
 901 773 901 773 829 882 c 128,-1,11
 757 991 757 991 616 991 c 0,0,1
616 1147 m 0,12,13
 849 1147 849 1147 972.5 996 c 128,-1,14
 1096 845 1096 845 1096 559 c 0,15,16
 1096 272 1096 272 973 121.5 c 128,-1,17
 850 -29 850 -29 616 -29 c 0,18,19
 383 -29 383 -29 260 121.5 c 128,-1,20
 137 272 137 272 137 559 c 0,21,22
 137 845 137 845 260 996 c 128,-1,23
 383 1147 383 1147 616 1147 c 0,12,13
EndSplineSet
EndChar
StartChar: p
Encoding: 112 112 112
Width: 1233
Flags: W
Fore
375 141 m 1,0,-1
 375 -426 l 1,1,-1
 190 -426 l 1,2,-1
 190 1120 l 1,3,-1
 375 1120 l 1,4,-1
 375 977 l 1,5,6
 421 1060 421 1060 497.5 1103.5 c 128,-1,7
 574 1147 574 1147 674 1147 c 0,8,9
 877 1147 877 1147 992.5 990 c 128,-1,10
 1108 833 1108 833 1108 555 c 0,11,12
 1108 282 1108 282 992 126.5 c 128,-1,13
 876 -29 876 -29 674 -29 c 0,14,15
 572 -29 572 -29 495.5 14.5 c 128,-1,16
 419 58 419 58 375 141 c 1,0,-1
915 559 m 0,17,18
 915 773 915 773 847.5 882 c 128,-1,19
 780 991 780 991 647 991 c 0,20,21
 513 991 513 991 444 881.5 c 128,-1,22
 375 772 375 772 375 559 c 0,23,24
 375 347 375 347 444 237 c 128,-1,25
 513 127 513 127 647 127 c 0,26,27
 780 127 780 127 847.5 236 c 128,-1,28
 915 345 915 345 915 559 c 0,17,18
EndSplineSet
EndChar
StartChar: q
Encoding: 113 113 113
Width: 1233
Flags: W
Fore
332 555 m 0,0,1
 332 341 332 341 399.5 232 c 128,-1,2
 467 123 467 123 600 123 c 0,3,4
 733 123 733 123 801.5 232.5 c 128,-1,5
 870 342 870 342 870 555 c 0,6,7
 870 768 870 768 801.5 877.5 c 128,-1,8
 733 987 733 987 600 987 c 0,9,10
 467 987 467 987 399.5 878 c 128,-1,11
 332 769 332 769 332 555 c 0,0,1
870 139 m 1,12,13
 825 56 825 56 748.5 11.5 c 128,-1,14
 672 -33 672 -33 571 -33 c 0,15,16
 370 -33 370 -33 253.5 122.5 c 128,-1,17
 137 278 137 278 137 551 c 0,18,19
 137 829 137 829 253 986 c 128,-1,20
 369 1143 369 1143 571 1143 c 0,21,22
 671 1143 671 1143 747.5 1099.5 c 128,-1,23
 824 1056 824 1056 870 973 c 1,24,-1
 870 1116 l 1,25,-1
 1055 1116 l 1,26,-1
 1055 -430 l 1,27,-1
 870 -430 l 1,28,-1
 870 139 l 1,12,13
EndSplineSet
EndChar
StartChar: r
Encoding: 114 114 114
Width: 1233
Flags: W
Fore
1155 889 m 1,0,1
 1096 935 1096 935 1035 956 c 128,-1,2
 974 977 974 977 901 977 c 0,3,4
 729 977 729 977 638 869 c 128,-1,5
 547 761 547 761 547 557 c 2,6,-1
 547 0 l 1,7,-1
 362 0 l 1,8,-1
 362 1120 l 1,9,-1
 547 1120 l 1,10,-1
 547 901 l 1,11,12
 593 1020 593 1020 688.5 1083.5 c 128,-1,13
 784 1147 784 1147 915 1147 c 0,14,15
 983 1147 983 1147 1042 1130 c 128,-1,16
 1101 1113 1101 1113 1155 1077 c 1,17,-1
 1155 889 l 1,0,1
EndSplineSet
EndChar
StartChar: s
Encoding: 115 115 115
Width: 1233
Flags: W
Fore
973 1081 m 1,0,-1
 973 901 l 1,1,2
 894 947 894 947 814 970 c 128,-1,3
 734 993 734 993 651 993 c 0,4,5
 526 993 526 993 464.5 952.5 c 128,-1,6
 403 912 403 912 403 829 c 0,7,8
 403 754 403 754 449 717 c 128,-1,9
 495 680 495 680 678 645 c 2,10,-1
 752 631 l 2,11,12
 889 605 889 605 959.5 527 c 128,-1,13
 1030 449 1030 449 1030 324 c 0,14,15
 1030 158 1030 158 912 64.5 c 128,-1,16
 794 -29 794 -29 584 -29 c 0,17,18
 501 -29 501 -29 410 -11.5 c 128,-1,19
 319 6 319 6 213 41 c 1,20,-1
 213 231 l 1,21,22
 316 178 316 178 410 151.5 c 128,-1,23
 504 125 504 125 588 125 c 0,24,25
 710 125 710 125 777 174.5 c 128,-1,26
 844 224 844 224 844 313 c 0,27,28
 844 441 844 441 599 490 c 2,29,-1
 591 492 l 1,30,-1
 522 506 l 2,31,32
 363 537 363 537 290 610.5 c 128,-1,33
 217 684 217 684 217 811 c 0,34,35
 217 972 217 972 326 1059.5 c 128,-1,36
 435 1147 435 1147 637 1147 c 0,37,38
 727 1147 727 1147 810 1130.5 c 128,-1,39
 893 1114 893 1114 973 1081 c 1,0,-1
EndSplineSet
EndChar
StartChar: t
Encoding: 116 116 116
Width: 1233
Flags: W
Fore
614 1438 m 1,0,-1
 614 1120 l 1,1,-1
 1032 1120 l 1,2,-1
 1032 977 l 1,3,-1
 614 977 l 1,4,-1
 614 369 l 2,5,6
 614 245 614 245 661 196 c 128,-1,7
 708 147 708 147 825 147 c 2,8,-1
 1032 147 l 1,9,-1
 1032 0 l 1,10,-1
 807 0 l 2,11,12
 600 0 600 0 515 83 c 128,-1,13
 430 166 430 166 430 369 c 2,14,-1
 430 977 l 1,15,-1
 131 977 l 1,16,-1
 131 1120 l 1,17,-1
 430 1120 l 1,18,-1
 430 1438 l 1,19,-1
 614 1438 l 1,0,-1
EndSplineSet
EndChar
StartChar: u
Encoding: 117 117 117
Width: 1233
Flags: W
Fore
195 424 m 2,0,-1
 195 1118 l 1,1,-1
 379 1118 l 1,2,-1
 379 424 l 2,3,4
 379 273 379 273 432.5 202 c 128,-1,5
 486 131 486 131 598 131 c 0,6,7
 728 131 728 131 797 222.5 c 128,-1,8
 866 314 866 314 866 485 c 2,9,-1
 866 1118 l 1,10,-1
 1051 1118 l 1,11,-1
 1051 0 l 1,12,-1
 866 0 l 1,13,-1
 866 168 l 1,14,15
 817 71 817 71 732.5 21 c 128,-1,16
 648 -29 648 -29 535 -29 c 0,17,18
 363 -29 363 -29 279 83.5 c 128,-1,19
 195 196 195 196 195 424 c 2,0,-1
EndSplineSet
EndChar
StartChar: v
Encoding: 118 118 118
Width: 1233
Flags: W
Fore
100 1120 m 1,0,-1
 291 1120 l 1,1,-1
 616 180 l 1,2,-1
 942 1120 l 1,3,-1
 1133 1120 l 1,4,-1
 735 0 l 1,5,-1
 498 0 l 1,6,-1
 100 1120 l 1,0,-1
EndSplineSet
EndChar
StartChar: w
Encoding: 119 119 119
Width: 1233
Flags: W
Fore
0 1120 m 1,0,-1
 182 1120 l 1,1,-1
 377 215 l 1,2,-1
 537 793 l 1,3,-1
 694 793 l 1,4,-1
 856 215 l 1,5,-1
 1051 1120 l 1,6,-1
 1233 1120 l 1,7,-1
 971 0 l 1,8,-1
 795 0 l 1,9,-1
 616 614 l 1,10,-1
 438 0 l 1,11,-1
 262 0 l 1,12,-1
 0 1120 l 1,0,-1
EndSplineSet
EndChar
StartChar: x
Encoding: 120 120 120
Width: 1233
Flags: W
Fore
1118 1120 m 1,0,-1
 717 584 l 1,1,-1
 1157 0 l 1,2,-1
 944 0 l 1,3,-1
 616 449 l 1,4,-1
 289 0 l 1,5,-1
 76 0 l 1,6,-1
 516 584 l 1,7,-1
 115 1120 l 1,8,-1
 319 1120 l 1,9,-1
 616 715 l 1,10,-1
 911 1120 l 1,11,-1
 1118 1120 l 1,0,-1
EndSplineSet
EndChar
StartChar: y
Encoding: 121 121 121
Width: 1233
Flags: W
Fore
858 360 m 1,0,1
 812 243 812 243 741 52 c 0,2,3
 642 -212 642 -212 608 -270 c 0,4,5
 562 -348 562 -348 493 -387 c 128,-1,6
 424 -426 424 -426 332 -426 c 2,7,-1
 184 -426 l 1,8,-1
 184 -272 l 1,9,-1
 293 -272 l 2,10,11
 374 -272 374 -272 420 -225 c 128,-1,12
 466 -178 466 -178 537 18 c 1,13,-1
 104 1120 l 1,14,-1
 299 1120 l 1,15,-1
 631 244 l 1,16,-1
 958 1120 l 1,17,-1
 1153 1120 l 1,18,-1
 858 360 l 1,0,1
EndSplineSet
EndChar
StartChar: z
Encoding: 122 122 122
Width: 1233
Flags: W
Fore
227 1122 m 1,0,-1
 1040 1122 l 1,1,-1
 1040 954 l 1,2,-1
 397 150 l 1,3,-1
 1040 150 l 1,4,-1
 1040 0 l 1,5,-1
 203 0 l 1,6,-1
 203 170 l 1,7,-1
 846 975 l 1,8,-1
 227 975 l 1,9,-1
 227 1122 l 1,0,-1
EndSplineSet
EndChar
StartChar: braceleft
Encoding: 123 123 123
Width: 1233
Flags: W
Fore
1012 -190 m 1,0,-1
 1012 -334 l 1,1,-1
 948 -334 l 2,2,3
 699 -334 699 -334 614.5 -260 c 128,-1,4
 530 -186 530 -186 530 35 c 2,5,-1
 530 274 l 2,6,7
 530 425 530 425 476.5 483 c 128,-1,8
 423 541 423 541 283 541 c 2,9,-1
 221 541 l 1,10,-1
 221 684 l 1,11,-1
 283 684 l 2,12,13
 424 684 424 684 477 741 c 128,-1,14
 530 798 530 798 530 948 c 2,15,-1
 530 1188 l 2,16,17
 530 1409 530 1409 614.5 1482.5 c 128,-1,18
 699 1556 699 1556 948 1556 c 2,19,-1
 1012 1556 l 1,20,-1
 1012 1413 l 1,21,-1
 942 1413 l 2,22,23
 802 1413 802 1413 759.5 1369.5 c 128,-1,24
 717 1326 717 1326 717 1184 c 2,25,-1
 717 936 l 2,26,27
 717 779 717 779 671.5 708 c 128,-1,28
 626 637 626 637 516 612 c 1,29,30
 627 585 627 585 672 514 c 128,-1,31
 717 443 717 443 717 287 c 2,32,-1
 717 39 l 2,33,34
 717 -104 717 -104 759.5 -147 c 128,-1,35
 802 -190 802 -190 942 -190 c 2,36,-1
 1012 -190 l 1,0,-1
EndSplineSet
EndChar
StartChar: bar
Encoding: 124 124 124
Width: 1233
Flags: W
Fore
702 1565 m 1,0,-1
 702 -483 l 1,1,-1
 530 -483 l 1,2,-1
 530 1565 l 1,3,-1
 702 1565 l 1,0,-1
EndSplineSet
EndChar
StartChar: braceright
Encoding: 125 125 125
Width: 1233
Flags: W
Fore
221 -190 m 1,0,-1
 289 -190 l 2,1,2
 430 -190 430 -190 473 -146 c 128,-1,3
 516 -102 516 -102 516 39 c 2,4,-1
 516 287 l 2,5,6
 516 443 516 443 561 514 c 128,-1,7
 606 585 606 585 717 612 c 1,8,9
 607 637 607 637 561.5 708 c 128,-1,10
 516 779 516 779 516 936 c 2,11,-1
 516 1184 l 2,12,13
 516 1325 516 1325 473 1369 c 128,-1,14
 430 1413 430 1413 289 1413 c 2,15,-1
 221 1413 l 1,16,-1
 221 1556 l 1,17,-1
 283 1556 l 2,18,19
 532 1556 532 1556 616 1482.5 c 128,-1,20
 700 1409 700 1409 700 1188 c 2,21,-1
 700 948 l 2,22,23
 700 798 700 798 753.5 741 c 128,-1,24
 807 684 807 684 948 684 c 2,25,-1
 1012 684 l 1,26,-1
 1012 541 l 1,27,-1
 948 541 l 2,28,29
 807 541 807 541 753.5 483 c 128,-1,30
 700 425 700 425 700 274 c 2,31,-1
 700 35 l 2,32,33
 700 -186 700 -186 616 -260 c 128,-1,34
 532 -334 532 -334 283 -334 c 2,35,-1
 221 -334 l 1,36,-1
 221 -190 l 1,0,-1
EndSplineSet
EndChar
StartChar: asciitilde
Encoding: 126 126 126
Width: 1233
Flags: W
Fore
1145 780 m 1,0,-1
 1145 606 l 1,1,2
 1070 547 1070 547 998.5 519.5 c 128,-1,3
 927 492 927 492 848 492 c 0,4,5
 758 492 758 492 645 543 c 0,6,7
 623 553 623 553 612 557 c 0,8,9
 535 590 535 590 483.5 602 c 128,-1,10
 432 614 432 614 381 614 c 0,11,12
 302 614 302 614 231.5 584.5 c 128,-1,13
 161 555 161 555 88 492 c 1,14,-1
 88 666 l 1,15,16
 166 726 166 726 239 753 c 128,-1,17
 312 780 312 780 395 780 c 0,18,19
 448 780 448 780 498 769 c 128,-1,20
 548 758 548 758 622 727 c 0,21,22
 634 722 634 722 655 712 c 0,23,24
 771 657 771 657 864 657 c 0,25,26
 934 657 934 657 1002.5 687.5 c 128,-1,27
 1071 718 1071 718 1145 780 c 1,0,-1
EndSplineSet
EndChar
StartChar: exclamdown
Encoding: 161 161 161
Width: 1233
Flags: W
Fore
516 1239 m 1,0,-1
 516 1493 l 1,1,-1
 719 1493 l 1,2,-1
 719 1239 l 1,3,-1
 516 1239 l 1,0,-1
516 0 m 1,4,-1
 516 655 l 1,5,-1
 537 1012 l 1,6,-1
 698 1012 l 1,7,-1
 719 655 l 1,8,-1
 719 0 l 1,9,-1
 516 0 l 1,4,-1
EndSplineSet
EndChar
StartChar: cent
Encoding: 162 162 162
Width: 1233
Flags: W
Fore
1061 1077 m 1,0,-1
 1061 905 l 1,1,2
 994 945 994 945 929 967 c 128,-1,3
 864 989 864 989 801 993 c 1,4,-1
 801 123 l 1,5,6
 864 128 864 128 929.5 150.5 c 128,-1,7
 995 173 995 173 1061 213 c 1,8,-1
 1061 41 l 1,9,10
 988 10 988 10 923 -7 c 128,-1,11
 858 -24 858 -24 801 -27 c 1,12,-1
 801 -313 l 1,13,-1
 698 -313 l 1,14,-1
 698 -27 l 1,15,16
 473 -5 473 -5 343 151.5 c 128,-1,17
 213 308 213 308 213 559 c 0,18,19
 213 809 213 809 344.5 967.5 c 128,-1,20
 476 1126 476 1126 698 1145 c 1,21,-1
 698 1432 l 1,22,-1
 801 1432 l 1,23,-1
 801 1145 l 1,24,25
 858 1142 858 1142 923 1125 c 128,-1,26
 988 1108 988 1108 1061 1077 c 1,0,-1
698 127 m 1,27,-1
 698 991 l 1,28,29
 566 979 566 979 486 861 c 128,-1,30
 406 743 406 743 406 559 c 0,31,32
 406 375 406 375 486 257.5 c 128,-1,33
 566 140 566 140 698 127 c 1,27,-1
EndSplineSet
EndChar
StartChar: sterling
Encoding: 163 163 163
Width: 1233
Flags: W
Fore
1092 1462 m 1,0,-1
 1092 1278 l 1,1,2
 1030 1322 1030 1322 966.5 1344 c 128,-1,3
 903 1366 903 1366 836 1366 c 0,4,5
 702 1366 702 1366 638.5 1276.5 c 128,-1,6
 575 1187 575 1187 575 995 c 2,7,-1
 575 778 l 1,8,-1
 946 778 l 1,9,-1
 946 635 l 1,10,-1
 575 635 l 1,11,-1
 575 170 l 1,12,-1
 1112 170 l 1,13,-1
 1112 0 l 1,14,-1
 139 0 l 1,15,-1
 139 170 l 1,16,-1
 375 170 l 1,17,-1
 375 635 l 1,18,-1
 176 635 l 1,19,-1
 176 778 l 1,20,-1
 375 778 l 1,21,-1
 375 1016 l 2,22,23
 375 1270 375 1270 484.5 1395 c 128,-1,24
 594 1520 594 1520 817 1520 c 0,25,26
 882 1520 882 1520 950.5 1505.5 c 128,-1,27
 1019 1491 1019 1491 1092 1462 c 1,0,-1
EndSplineSet
EndChar
StartChar: currency
Encoding: 164 164 164
Width: 1233
Flags: W
Fore
868 643 m 0,0,1
 868 733 868 733 806 794.5 c 128,-1,2
 744 856 744 856 653 856 c 0,3,4
 563 856 563 856 500.5 794.5 c 128,-1,5
 438 733 438 733 438 643 c 0,6,7
 438 551 438 551 500.5 488.5 c 128,-1,8
 563 426 563 426 653 426 c 0,9,10
 744 426 744 426 806 489 c 128,-1,11
 868 552 868 552 868 643 c 0,0,1
844 924 m 1,12,-1
 1010 1090 l 1,13,-1
 1100 997 l 1,14,-1
 934 831 l 1,15,16
 964 782 964 782 978.5 735.5 c 128,-1,17
 993 689 993 689 993 641 c 0,18,19
 993 591 993 591 978 545.5 c 128,-1,20
 963 500 963 500 932 455 c 1,21,-1
 1100 289 l 1,22,-1
 1006 195 l 1,23,-1
 840 362 l 1,24,25
 794 331 794 331 748.5 316 c 128,-1,26
 703 301 703 301 653 301 c 0,27,28
 605 301 605 301 557 315.5 c 128,-1,29
 509 330 509 330 461 358 c 1,30,-1
 297 195 l 1,31,-1
 205 285 l 1,32,-1
 371 451 l 1,33,34
 340 502 340 502 325.5 548.5 c 128,-1,35
 311 595 311 595 311 641 c 0,36,37
 311 691 311 691 326.5 737.5 c 128,-1,38
 342 784 342 784 373 829 c 1,39,-1
 205 995 l 1,40,-1
 299 1090 l 1,41,-1
 465 922 l 1,42,43
 511 953 511 953 556.5 968 c 128,-1,44
 602 983 602 983 653 983 c 0,45,46
 699 983 699 983 746 968.5 c 128,-1,47
 793 954 793 954 844 924 c 1,12,-1
EndSplineSet
EndChar
StartChar: yen
Encoding: 165 165 165
Width: 1233
Flags: W
Fore
37 1493 m 1,0,-1
 252 1493 l 1,1,-1
 616 834 l 1,2,-1
 979 1493 l 1,3,-1
 1196 1493 l 1,4,-1
 866 932 l 1,5,-1
 1118 932 l 1,6,-1
 1118 821 l 1,7,-1
 803 821 l 1,8,-1
 717 670 l 1,9,-1
 717 635 l 1,10,-1
 1118 635 l 1,11,-1
 1118 524 l 1,12,-1
 717 524 l 1,13,-1
 717 0 l 1,14,-1
 514 0 l 1,15,-1
 514 524 l 1,16,-1
 115 524 l 1,17,-1
 115 635 l 1,18,-1
 514 635 l 1,19,-1
 514 670 l 1,20,-1
 424 821 l 1,21,-1
 115 821 l 1,22,-1
 115 932 l 1,23,-1
 358 932 l 1,24,-1
 37 1493 l 1,0,-1
EndSplineSet
EndChar
StartChar: brokenbar
Encoding: 166 166 166
Width: 1233
Flags: W
Fore
702 1432 m 1,0,-1
 702 674 l 1,1,-1
 530 674 l 1,2,-1
 530 1432 l 1,3,-1
 702 1432 l 1,0,-1
702 408 m 1,4,-1
 702 -350 l 1,5,-1
 530 -350 l 1,6,-1
 530 408 l 1,7,-1
 702 408 l 1,4,-1
EndSplineSet
EndChar
StartChar: section
Encoding: 167 167 167
Width: 1233
Flags: W
Fore
936 1462 m 1,0,-1
 936 1298 l 1,1,2
 853 1337 853 1337 781.5 1356.5 c 128,-1,3
 710 1376 710 1376 653 1376 c 0,4,5
 556 1376 556 1376 502.5 1336 c 128,-1,6
 449 1296 449 1296 449 1225 c 0,7,8
 449 1135 449 1135 654 1020 c 0,9,10
 680 1005 680 1005 694 997 c 0,11,12
 906 878 906 878 971 801 c 128,-1,13
 1036 724 1036 724 1036 623 c 0,14,15
 1036 533 1036 533 990.5 463 c 128,-1,16
 945 393 945 393 852 340 c 1,17,18
 913 288 913 288 942 233.5 c 128,-1,19
 971 179 971 179 971 115 c 0,20,21
 971 -27 971 -27 869 -111 c 128,-1,22
 767 -195 767 -195 594 -195 c 0,23,24
 521 -195 521 -195 443.5 -180.5 c 128,-1,25
 366 -166 366 -166 279 -137 c 1,26,-1
 279 27 l 1,27,28
 366 -12 366 -12 440 -31.5 c 128,-1,29
 514 -51 514 -51 571 -51 c 0,30,31
 673 -51 673 -51 729.5 -9 c 128,-1,32
 786 33 786 33 786 109 c 0,33,34
 786 211 786 211 565 334 c 2,35,-1
 541 348 l 2,36,37
 327 468 327 468 263 544.5 c 128,-1,38
 199 621 199 621 199 723 c 0,39,40
 199 814 199 814 245.5 885.5 c 128,-1,41
 292 957 292 957 383 1006 c 1,42,43
 323 1050 323 1050 293.5 1106 c 128,-1,44
 264 1162 264 1162 264 1231 c 0,45,46
 264 1361 264 1361 364 1440.5 c 128,-1,47
 464 1520 464 1520 631 1520 c 0,48,49
 703 1520 703 1520 779.5 1505.5 c 128,-1,50
 856 1491 856 1491 936 1462 c 1,0,-1
485 936 m 1,51,52
 423 891 423 891 392.5 846 c 128,-1,53
 362 801 362 801 362 754 c 0,54,55
 362 678 362 678 432.5 610.5 c 128,-1,56
 503 543 503 543 750 410 c 1,57,58
 812 455 812 455 842 500 c 128,-1,59
 872 545 872 545 872 592 c 0,60,61
 872 668 872 668 800.5 736 c 128,-1,62
 729 804 729 804 485 936 c 1,51,52
EndSplineSet
EndChar
StartChar: dieresis
Encoding: 168 168 168
Width: 1233
Flags: W
Fore
319 1552 m 1,0,-1
 522 1552 l 1,1,-1
 522 1350 l 1,2,-1
 319 1350 l 1,3,-1
 319 1552 l 1,0,-1
711 1552 m 1,4,-1
 913 1552 l 1,5,-1
 913 1350 l 1,6,-1
 711 1350 l 1,7,-1
 711 1552 l 1,4,-1
EndSplineSet
Ligature: 0 0 'liga' space uni0308
EndChar
StartChar: copyright
Encoding: 169 169 169
Width: 1233
Flags: W
Fore
864 1071 m 1,0,-1
 864 963 l 1,1,2
 806 991 806 991 750.5 1004.5 c 128,-1,3
 695 1018 695 1018 637 1018 c 0,4,5
 520 1018 520 1018 452.5 943.5 c 128,-1,6
 385 869 385 869 385 741 c 0,7,8
 385 609 385 609 455 538 c 128,-1,9
 525 467 525 467 655 467 c 0,10,11
 711 467 711 467 762.5 479.5 c 128,-1,12
 814 492 814 492 864 518 c 1,13,-1
 864 414 l 1,14,15
 812 391 812 391 755 380 c 128,-1,16
 698 369 698 369 637 369 c 0,17,18
 457 369 457 369 353.5 469 c 128,-1,19
 250 569 250 569 250 741 c 0,20,21
 250 914 250 914 354 1015 c 128,-1,22
 458 1116 458 1116 637 1116 c 0,23,24
 698 1116 698 1116 755 1105 c 128,-1,25
 812 1094 812 1094 864 1071 c 1,0,-1
616 1255 m 0,26,27
 510 1255 510 1255 419.5 1218 c 128,-1,28
 329 1181 329 1181 254 1106 c 0,29,30
 179 1031 179 1031 140.5 939 c 128,-1,31
 102 847 102 847 102 741 c 0,32,33
 102 637 102 637 140.5 545.5 c 128,-1,34
 179 454 179 454 254 379 c 0,35,36
 330 303 330 303 420.5 265 c 128,-1,37
 511 227 511 227 616 227 c 0,38,39
 722 227 722 227 812.5 265 c 128,-1,40
 903 303 903 303 979 379 c 0,41,42
 1055 455 1055 455 1092.5 545.5 c 128,-1,43
 1130 636 1130 636 1130 741 c 0,44,45
 1130 847 1130 847 1092 939 c 128,-1,46
 1054 1031 1054 1031 979 1106 c 0,47,48
 904 1181 904 1181 813.5 1218 c 128,-1,49
 723 1255 723 1255 616 1255 c 0,26,27
616 1358 m 0,50,51
 743 1358 743 1358 852 1313 c 128,-1,52
 961 1268 961 1268 1051 1178 c 0,53,54
 1141 1087 1141 1087 1187 977 c 128,-1,55
 1233 867 1233 867 1233 741 c 0,56,57
 1233 616 1233 616 1187.5 507 c 128,-1,58
 1142 398 1142 398 1051 307 c 0,59,60
 960 216 960 216 851 170.5 c 128,-1,61
 742 125 742 125 616 125 c 0,62,63
 491 125 491 125 382 170.5 c 128,-1,64
 273 216 273 216 182 307 c 0,65,66
 91 398 91 398 45.5 507 c 128,-1,67
 0 616 0 616 0 741 c 0,68,69
 0 867 0 867 46 977 c 128,-1,70
 92 1087 92 1087 182 1178 c 0,71,72
 272 1268 272 1268 381 1313 c 128,-1,73
 490 1358 490 1358 616 1358 c 0,50,51
EndSplineSet
EndChar
StartChar: ordfeminine
Encoding: 170 170 170
Width: 1233
Flags: W
Fore
684 1104 m 2,0,1
 540 1104 540 1104 478 1070 c 128,-1,2
 416 1036 416 1036 416 958 c 0,3,4
 416 894 416 894 459.5 855.5 c 128,-1,5
 503 817 503 817 575 817 c 0,6,7
 680 817 680 817 745.5 888.5 c 128,-1,8
 811 960 811 960 811 1075 c 2,9,-1
 811 1104 l 1,10,-1
 684 1104 l 2,0,1
954 1165 m 2,11,-1
 954 717 l 1,12,-1
 811 717 l 1,13,-1
 811 829 l 1,14,15
 762 764 762 764 696.5 731 c 128,-1,16
 631 698 631 698 549 698 c 0,17,18
 420 698 420 698 345 766 c 128,-1,19
 270 834 270 834 270 950 c 0,20,21
 270 1079 270 1079 363.5 1149 c 128,-1,22
 457 1219 457 1219 629 1219 c 2,23,-1
 811 1219 l 1,24,-1
 811 1223 l 2,25,26
 811 1313 811 1313 751.5 1359 c 128,-1,27
 692 1405 692 1405 575 1405 c 0,28,29
 524 1405 524 1405 461.5 1387.5 c 128,-1,30
 399 1370 399 1370 332 1337 c 1,31,-1
 332 1464 l 1,32,33
 400 1492 400 1492 467.5 1506 c 128,-1,34
 535 1520 535 1520 598 1520 c 0,35,36
 782 1520 782 1520 868 1434 c 128,-1,37
 954 1348 954 1348 954 1165 c 2,11,-1
293 592 m 1,38,-1
 961 592 l 1,39,-1
 961 469 l 1,40,-1
 293 469 l 1,41,-1
 293 592 l 1,38,-1
EndSplineSet
EndChar
StartChar: guillemotleft
Encoding: 171 171 171
Width: 1233
Flags: W
Fore
588 1059 m 1,0,-1
 588 868 l 1,1,-1
 287 600 l 1,2,-1
 588 332 l 1,3,-1
 588 141 l 1,4,-1
 119 559 l 1,5,-1
 119 641 l 1,6,-1
 588 1059 l 1,0,-1
1042 1059 m 1,7,-1
 1042 868 l 1,8,-1
 741 600 l 1,9,-1
 1042 332 l 1,10,-1
 1042 141 l 1,11,-1
 573 559 l 1,12,-1
 573 641 l 1,13,-1
 1042 1059 l 1,7,-1
EndSplineSet
EndChar
StartChar: logicalnot
Encoding: 172 172 172
Width: 1233
Flags: W
Fore
88 862 m 1,0,-1
 1145 862 l 1,1,-1
 1145 371 l 1,2,-1
 977 371 l 1,3,-1
 977 690 l 1,4,-1
 88 690 l 1,5,-1
 88 862 l 1,0,-1
EndSplineSet
EndChar
StartChar: sfthyphen
Encoding: 173 173 173
Width: 1233
Flags: W
Fore
356 643 m 1,0,-1
 877 643 l 1,1,-1
 877 479 l 1,2,-1
 356 479 l 1,3,-1
 356 643 l 1,0,-1
EndSplineSet
EndChar
StartChar: registered
Encoding: 174 174 174
Width: 1233
Flags: W
Fore
600 1100 m 2,0,1
 747 1100 747 1100 819 1051 c 128,-1,2
 891 1002 891 1002 891 901 c 0,3,4
 891 830 891 830 847 783.5 c 128,-1,5
 803 737 803 737 723 723 c 1,6,7
 742 718 742 718 771 684.5 c 128,-1,8
 800 651 800 651 838 592 c 1,9,-1
 952 406 l 1,10,-1
 809 406 l 1,11,-1
 702 580 l 2,12,13
 653 660 653 660 622.5 681 c 128,-1,14
 592 702 592 702 547 702 c 2,15,-1
 492 702 l 1,16,-1
 492 406 l 1,17,-1
 362 406 l 1,18,-1
 362 1100 l 1,19,-1
 600 1100 l 2,0,1
594 1016 m 2,20,-1
 492 1016 l 1,21,-1
 492 784 l 1,22,-1
 594 784 l 2,23,24
 684 784 684 784 721 811 c 128,-1,25
 758 838 758 838 758 901 c 0,26,27
 758 963 758 963 721 989.5 c 128,-1,28
 684 1016 684 1016 594 1016 c 2,20,-1
616 1358 m 0,29,30
 743 1358 743 1358 852 1313 c 128,-1,31
 961 1268 961 1268 1051 1178 c 0,32,33
 1141 1087 1141 1087 1187 977 c 128,-1,34
 1233 867 1233 867 1233 741 c 0,35,36
 1233 616 1233 616 1187.5 507 c 128,-1,37
 1142 398 1142 398 1051 307 c 0,38,39
 960 216 960 216 851 170.5 c 128,-1,40
 742 125 742 125 616 125 c 0,41,42
 491 125 491 125 382 170.5 c 128,-1,43
 273 216 273 216 182 307 c 0,44,45
 91 398 91 398 45.5 507 c 128,-1,46
 0 616 0 616 0 741 c 0,47,48
 0 867 0 867 46 977 c 128,-1,49
 92 1087 92 1087 182 1178 c 0,50,51
 272 1268 272 1268 381 1313 c 128,-1,52
 490 1358 490 1358 616 1358 c 0,29,30
616 1255 m 0,53,54
 510 1255 510 1255 419.5 1218 c 128,-1,55
 329 1181 329 1181 254 1106 c 0,56,57
 179 1031 179 1031 140.5 939 c 128,-1,58
 102 847 102 847 102 741 c 0,59,60
 102 637 102 637 140.5 545.5 c 128,-1,61
 179 454 179 454 254 379 c 0,62,63
 330 303 330 303 420.5 265 c 128,-1,64
 511 227 511 227 616 227 c 0,65,66
 722 227 722 227 812.5 265 c 128,-1,67
 903 303 903 303 979 379 c 0,68,69
 1055 455 1055 455 1092.5 545.5 c 128,-1,70
 1130 636 1130 636 1130 741 c 0,71,72
 1130 847 1130 847 1092 939 c 128,-1,73
 1054 1031 1054 1031 979 1106 c 0,74,75
 904 1181 904 1181 813.5 1218 c 128,-1,76
 723 1255 723 1255 616 1255 c 0,53,54
EndSplineSet
EndChar
StartChar: macron
Encoding: 175 175 175
Width: 1233
Flags: W
Fore
317 1526 m 1,0,-1
 915 1526 l 1,1,-1
 915 1378 l 1,2,-1
 317 1378 l 1,3,-1
 317 1526 l 1,0,-1
EndSplineSet
Ligature: 0 0 'liga' space uni0304
EndChar
StartChar: degree
Encoding: 176 176 176
Width: 1233
Flags: W
Fore
616 1520 m 0,0,1
 681 1520 681 1520 739.5 1495.5 c 128,-1,2
 798 1471 798 1471 842 1425 c 0,3,4
 887 1380 887 1380 910.5 1323 c 128,-1,5
 934 1266 934 1266 934 1200 c 0,6,7
 934 1068 934 1068 841 976.5 c 128,-1,8
 748 885 748 885 614 885 c 0,9,10
 479 885 479 885 389 975 c 128,-1,11
 299 1065 299 1065 299 1200 c 0,12,13
 299 1334 299 1334 391 1427 c 128,-1,14
 483 1520 483 1520 616 1520 c 0,0,1
616 1391 m 0,15,16
 537 1391 537 1391 481.5 1335.5 c 128,-1,17
 426 1280 426 1280 426 1200 c 0,18,19
 426 1120 426 1120 480.5 1066 c 128,-1,20
 535 1012 535 1012 614 1012 c 0,21,22
 694 1012 694 1012 750.5 1067 c 128,-1,23
 807 1122 807 1122 807 1200 c 0,24,25
 807 1279 807 1279 751 1335 c 128,-1,26
 695 1391 695 1391 616 1391 c 0,15,16
EndSplineSet
EndChar
StartChar: plusminus
Encoding: 177 177 177
Width: 1233
Flags: W
Fore
88 170 m 1,0,-1
 1145 170 l 1,1,-1
 1145 0 l 1,2,-1
 88 0 l 1,3,-1
 88 170 l 1,0,-1
700 1171 m 1,4,-1
 700 842 l 1,5,-1
 1145 842 l 1,6,-1
 1145 672 l 1,7,-1
 700 672 l 1,8,-1
 700 340 l 1,9,-1
 532 340 l 1,10,-1
 532 672 l 1,11,-1
 88 672 l 1,12,-1
 88 842 l 1,13,-1
 532 842 l 1,14,-1
 532 1171 l 1,15,-1
 700 1171 l 1,4,-1
EndSplineSet
EndChar
StartChar: twosuperior
Encoding: 178 178 178
Width: 1233
Flags: W
Fore
483 782 m 1,0,-1
 893 782 l 1,1,-1
 893 668 l 1,2,-1
 322 668 l 1,3,-1
 322 778 l 1,4,-1
 553 1004 l 1,5,6
 654 1101 654 1101 694.5 1162 c 128,-1,7
 735 1223 735 1223 735 1274 c 0,8,9
 735 1335 735 1335 685 1373 c 128,-1,10
 635 1411 635 1411 553 1411 c 0,11,12
 504 1411 504 1411 447.5 1393 c 128,-1,13
 391 1375 391 1375 328 1339 c 1,14,-1
 328 1464 l 1,15,16
 393 1492 393 1492 453.5 1506 c 128,-1,17
 514 1520 514 1520 573 1520 c 0,18,19
 715 1520 715 1520 801 1453.5 c 128,-1,20
 887 1387 887 1387 887 1280 c 0,21,22
 887 1223 887 1223 850 1163.5 c 128,-1,23
 813 1104 813 1104 694 987 c 2,24,-1
 483 782 l 1,0,-1
EndSplineSet
EndChar
StartChar: threesuperior
Encoding: 179 179 179
Width: 1233
Flags: W
Fore
731 1120 m 1,0,1
 825 1099 825 1099 874.5 1045 c 128,-1,2
 924 991 924 991 924 911 c 0,3,4
 924 787 924 787 829 720 c 128,-1,5
 734 653 734 653 557 653 c 0,6,7
 499 653 499 653 442 663.5 c 128,-1,8
 385 674 385 674 326 694 c 1,9,-1
 326 815 l 1,10,11
 395 788 395 788 451.5 775 c 128,-1,12
 508 762 508 762 553 762 c 0,13,14
 654 762 654 762 713 802.5 c 128,-1,15
 772 843 772 843 772 911 c 0,16,17
 772 985 772 985 717 1023 c 128,-1,18
 662 1061 662 1061 553 1061 c 2,19,-1
 487 1061 l 1,20,-1
 487 1169 l 1,21,-1
 561 1169 l 2,22,23
 654 1169 654 1169 703 1200.5 c 128,-1,24
 752 1232 752 1232 752 1292 c 0,25,26
 752 1348 752 1348 704 1379.5 c 128,-1,27
 656 1411 656 1411 569 1411 c 0,28,29
 525 1411 525 1411 469 1399 c 128,-1,30
 413 1387 413 1387 354 1364 c 1,31,-1
 354 1485 l 1,32,33
 423 1502 423 1502 481.5 1511 c 128,-1,34
 540 1520 540 1520 590 1520 c 0,35,36
 735 1520 735 1520 819 1461 c 128,-1,37
 903 1402 903 1402 903 1303 c 0,38,39
 903 1232 903 1232 859 1185.5 c 128,-1,40
 815 1139 815 1139 731 1120 c 1,0,1
EndSplineSet
EndChar
StartChar: acute
Encoding: 180 180 180
Width: 1233
Flags: W
Fore
756 1638 m 1,0,-1
 954 1638 l 1,1,-1
 629 1262 l 1,2,-1
 475 1262 l 1,3,-1
 756 1638 l 1,0,-1
EndSplineSet
LCarets: 0 65535 '    ' 1 0 
Ligature: 0 0 'liga' space acutecomb
EndChar
StartChar: mu
Encoding: 181 181 181
Width: 1233
Flags: W
Fore
195 -428 m 1,0,-1
 195 1120 l 1,1,-1
 379 1120 l 1,2,-1
 379 424 l 2,3,4
 379 282 379 282 439 206.5 c 128,-1,5
 499 131 499 131 610 131 c 0,6,7
 737 131 737 131 801.5 216 c 128,-1,8
 866 301 866 301 866 467 c 2,9,-1
 866 1120 l 1,10,-1
 1051 1120 l 1,11,-1
 1051 256 l 2,12,13
 1051 197 1051 197 1067 169 c 128,-1,14
 1083 141 1083 141 1116 141 c 0,15,16
 1125 141 1125 141 1139.5 146 c 128,-1,17
 1154 151 1154 151 1182 164 c 1,18,-1
 1182 16 l 1,19,20
 1144 -7 1144 -7 1110 -18 c 128,-1,21
 1076 -29 1076 -29 1042 -29 c 0,22,23
 980 -29 980 -29 942.5 10.5 c 128,-1,24
 905 50 905 50 893 129 c 1,25,26
 847 49 847 49 780.5 10 c 128,-1,27
 714 -29 714 -29 625 -29 c 0,28,29
 533 -29 533 -29 469.5 9 c 128,-1,30
 406 47 406 47 362 127 c 1,31,-1
 362 -428 l 1,32,-1
 195 -428 l 1,0,-1
EndSplineSet
EndChar
StartChar: paragraph
Encoding: 182 182 182
Width: 1233
Flags: W
Fore
582 1493 m 2,0,-1
 1030 1493 l 1,1,-1
 1030 -197 l 1,2,-1
 889 -197 l 1,3,-1
 889 1370 l 1,4,-1
 698 1370 l 1,5,-1
 698 -197 l 1,6,-1
 557 -197 l 1,7,-1
 557 649 l 1,8,9
 342 666 342 666 224 776.5 c 128,-1,10
 106 887 106 887 106 1071 c 0,11,12
 106 1261 106 1261 236.5 1377 c 128,-1,13
 367 1493 367 1493 582 1493 c 2,0,-1
EndSplineSet
EndChar
StartChar: periodcentered
Encoding: 183 183 183
Width: 1233
Flags: W
Fore
489 864 m 1,0,-1
 741 864 l 1,1,-1
 741 559 l 1,2,-1
 489 559 l 1,3,-1
 489 864 l 1,0,-1
EndSplineSet
EndChar
StartChar: cedilla
Encoding: 184 184 184
Width: 1233
Flags: W
Fore
700 0 m 1,0,1
 756 -62 756 -62 782.5 -114.5 c 128,-1,2
 809 -167 809 -167 809 -215 c 0,3,4
 809 -304 809 -304 749 -349.5 c 128,-1,5
 689 -395 689 -395 571 -395 c 0,6,7
 526 -395 526 -395 482.5 -389 c 128,-1,8
 439 -383 439 -383 395 -371 c 1,9,-1
 395 -240 l 1,10,11
 429 -257 429 -257 466.5 -264.5 c 128,-1,12
 504 -272 504 -272 551 -272 c 0,13,14
 609 -272 609 -272 639.5 -248 c 128,-1,15
 670 -224 670 -224 670 -178 c 0,16,17
 670 -148 670 -148 648 -104.5 c 128,-1,18
 626 -61 626 -61 582 0 c 1,19,-1
 700 0 l 1,0,1
EndSplineSet
Ligature: 0 0 'liga' space uni0327
EndChar
StartChar: onesuperior
Encoding: 185 185 185
Width: 1233
Flags: W
Fore
362 778 m 1,0,-1
 567 778 l 1,1,-1
 567 1389 l 1,2,-1
 344 1348 l 1,3,-1
 344 1464 l 1,4,-1
 573 1503 l 1,5,-1
 711 1503 l 1,6,-1
 711 778 l 1,7,-1
 915 778 l 1,8,-1
 915 668 l 1,9,-1
 362 668 l 1,10,-1
 362 778 l 1,0,-1
EndSplineSet
EndChar
StartChar: ordmasculine
Encoding: 186 186 186
Width: 1233
Flags: W
Fore
616 1403 m 0,0,1
 514 1403 514 1403 456.5 1325 c 128,-1,2
 399 1247 399 1247 399 1108 c 0,3,4
 399 969 399 969 456.5 892 c 128,-1,5
 514 815 514 815 616 815 c 0,6,7
 717 815 717 815 775.5 893.5 c 128,-1,8
 834 972 834 972 834 1108 c 0,9,10
 834 1247 834 1247 776.5 1325 c 128,-1,11
 719 1403 719 1403 616 1403 c 0,0,1
616 1520 m 0,12,13
 786 1520 786 1520 887.5 1408 c 128,-1,14
 989 1296 989 1296 989 1108 c 0,15,16
 989 921 989 921 888 809.5 c 128,-1,17
 787 698 787 698 616 698 c 0,18,19
 446 698 446 698 345 809.5 c 128,-1,20
 244 921 244 921 244 1108 c 0,21,22
 244 1296 244 1296 345.5 1408 c 128,-1,23
 447 1520 447 1520 616 1520 c 0,12,13
276 592 m 1,24,-1
 952 592 l 1,25,-1
 952 469 l 1,26,-1
 276 469 l 1,27,-1
 276 592 l 1,24,-1
EndSplineSet
EndChar
StartChar: guillemotright
Encoding: 187 187 187
Width: 1233
Flags: W
Fore
647 1059 m 1,0,-1
 1116 641 l 1,1,-1
 1116 559 l 1,2,-1
 647 141 l 1,3,-1
 647 332 l 1,4,-1
 948 600 l 1,5,-1
 647 868 l 1,6,-1
 647 1059 l 1,0,-1
193 1059 m 1,7,-1
 662 641 l 1,8,-1
 662 559 l 1,9,-1
 193 141 l 1,10,-1
 193 332 l 1,11,-1
 494 600 l 1,12,-1
 193 868 l 1,13,-1
 193 1059 l 1,7,-1
EndSplineSet
EndChar
StartChar: questiondown
Encoding: 191 191 191
Width: 1233
Flags: W
Fore
549 1092 m 1,0,-1
 739 1092 l 1,1,-1
 739 938 l 2,2,3
 739 840 739 840 708.5 771.5 c 128,-1,4
 678 703 678 703 594 621 c 2,5,-1
 504 532 l 1,6,7
 442 473 442 473 418.5 429 c 128,-1,8
 395 385 395 385 395 336 c 0,9,10
 395 247 395 247 460.5 192 c 128,-1,11
 526 137 526 137 635 137 c 0,12,13
 713 137 713 137 802 171.5 c 128,-1,14
 891 206 891 206 989 274 c 1,15,-1
 989 86 l 1,16,17
 895 29 895 29 799.5 1 c 128,-1,18
 704 -27 704 -27 600 -27 c 0,19,20
 414 -27 414 -27 303.5 69 c 128,-1,21
 193 165 193 165 193 326 c 0,22,23
 193 402 193 402 226.5 467.5 c 128,-1,24
 260 533 260 533 354 625 c 2,25,-1
 442 711 l 2,26,27
 509 775 509 775 528 817 c 128,-1,28
 547 859 547 859 547 922 c 0,29,30
 547 923 547 923 547 927 c 0,31,32
 549 950 549 950 549 969 c 2,33,-1
 549 1092 l 1,0,-1
745 1239 m 1,34,-1
 543 1239 l 1,35,-1
 543 1493 l 1,36,-1
 745 1493 l 1,37,-1
 745 1239 l 1,34,-1
EndSplineSet
EndChar
StartChar: Aring
Encoding: 197 197 197
Width: 1233
Flags: W
Fore
768 1626 m 0,0,1
 768 1689 768 1689 723.5 1733.5 c 128,-1,2
 679 1778 679 1778 616 1778 c 0,3,4
 552 1778 552 1778 508.5 1734.5 c 128,-1,5
 465 1691 465 1691 465 1626 c 0,6,7
 465 1563 465 1563 509 1519 c 128,-1,8
 553 1475 553 1475 616 1475 c 0,9,10
 679 1475 679 1475 723.5 1519 c 128,-1,11
 768 1563 768 1563 768 1626 c 0,0,1
616 1311 m 1,12,-1
 403 551 l 1,13,-1
 829 551 l 1,14,-1
 616 1311 l 1,12,-1
465 1399 m 1,15,16
 407 1432 407 1432 374.5 1492.5 c 128,-1,17
 342 1553 342 1553 342 1626 c 0,18,19
 342 1740 342 1740 422 1820.5 c 128,-1,20
 502 1901 502 1901 616 1901 c 0,21,22
 730 1901 730 1901 810.5 1820.5 c 128,-1,23
 891 1740 891 1740 891 1626 c 0,24,25
 891 1553 891 1553 859 1494 c 128,-1,26
 827 1435 827 1435 768 1399 c 1,27,-1
 1196 0 l 1,28,-1
 987 0 l 1,29,-1
 877 389 l 1,30,-1
 354 389 l 1,31,-1
 246 0 l 1,32,-1
 37 0 l 1,33,-1
 465 1399 l 1,15,16
EndSplineSet
LCarets: 0 65535 '    ' 1 0 
Ligature: 0 1 'liga' A uni030A
EndChar
StartChar: AE
Encoding: 198 198 198
Width: 1233
Flags: W
Fore
1161 1493 m 1,0,-1
 1161 1323 l 1,1,-1
 823 1323 l 1,2,-1
 823 881 l 1,3,-1
 1130 881 l 1,4,-1
 1130 711 l 1,5,-1
 823 711 l 1,6,-1
 823 170 l 1,7,-1
 1180 170 l 1,8,-1
 1180 0 l 1,9,-1
 637 0 l 1,10,-1
 637 383 l 1,11,-1
 285 383 l 1,12,-1
 184 0 l 1,13,-1
 0 0 l 1,14,-1
 410 1493 l 1,15,-1
 1161 1493 l 1,0,-1
530 1323 m 1,16,-1
 328 551 l 1,17,-1
 637 551 l 1,18,-1
 637 1323 l 1,19,-1
 530 1323 l 1,16,-1
EndSplineSet
EndChar
StartChar: Eth
Encoding: 208 208 208
Width: 1233
Flags: W
Fore
436 1493 m 2,0,1
 778 1493 778 1493 940 1311 c 128,-1,2
 1102 1129 1102 1129 1102 745 c 0,3,4
 1102 363 1102 363 939.5 181.5 c 128,-1,5
 777 0 777 0 436 0 c 2,6,-1
 133 0 l 1,7,-1
 133 709 l 1,8,-1
 8 709 l 1,9,-1
 8 858 l 1,10,-1
 133 858 l 1,11,-1
 133 1493 l 1,12,-1
 436 1493 l 2,0,1
436 166 m 2,13,14
 691 166 691 166 792 291.5 c 128,-1,15
 893 417 893 417 893 745 c 0,16,17
 893 1076 893 1076 792.5 1201.5 c 128,-1,18
 692 1327 692 1327 436 1327 c 2,19,-1
 340 1327 l 1,20,-1
 340 858 l 1,21,-1
 604 858 l 1,22,-1
 604 709 l 1,23,-1
 340 709 l 1,24,-1
 340 166 l 1,25,-1
 436 166 l 2,13,14
EndSplineSet
EndChar
StartChar: multiply
Encoding: 215 215 215
Width: 1233
Flags: W
Fore
150 293 m 1,0,-1
 500 641 l 1,1,-1
 150 991 l 1,2,-1
 266 1108 l 1,3,-1
 616 758 l 1,4,-1
 967 1108 l 1,5,-1
 1083 991 l 1,6,-1
 733 641 l 1,7,-1
 1081 293 l 1,8,-1
 965 174 l 1,9,-1
 616 524 l 1,10,-1
 268 174 l 1,11,-1
 150 293 l 1,0,-1
EndSplineSet
EndChar
StartChar: Oslash
Encoding: 216 216 216
Width: 1233
Flags: W
Fore
371 303 m 1,0,1
 401 225 401 225 466.5 180 c 128,-1,2
 532 135 532 135 616 135 c 0,3,4
 770 135 770 135 837.5 275.5 c 128,-1,5
 905 416 905 416 905 745 c 0,6,7
 905 855 905 855 900 923 c 128,-1,8
 895 991 895 991 885 1036 c 1,9,-1
 371 303 l 1,0,1
338 471 m 1,10,-1
 842 1190 l 1,11,12
 817 1271 817 1271 759.5 1313.5 c 128,-1,13
 702 1356 702 1356 616 1356 c 0,14,15
 459 1356 459 1356 393.5 1210 c 128,-1,16
 328 1064 328 1064 328 686 c 0,17,18
 328 606 328 606 330.5 555.5 c 128,-1,19
 333 505 333 505 338 471 c 1,10,-1
1032 1247 m 1,20,21
 1073 1166 1073 1166 1094.5 1037 c 128,-1,22
 1116 908 1116 908 1116 745 c 0,23,24
 1116 355 1116 355 992.5 163 c 128,-1,25
 869 -29 869 -29 616 -29 c 0,26,27
 495 -29 495 -29 405 11.5 c 128,-1,28
 315 52 315 52 254 133 c 1,29,-1
 111 -70 l 1,30,-1
 8 0 l 1,31,-1
 186 252 l 1,32,33
 154 325 154 325 135.5 456 c 128,-1,34
 117 587 117 587 117 745 c 0,35,36
 117 1136 117 1136 240.5 1328 c 128,-1,37
 364 1520 364 1520 616 1520 c 0,38,39
 731 1520 731 1520 817.5 1479 c 128,-1,40
 904 1438 904 1438 961 1358 c 1,41,-1
 1100 1559 l 1,42,-1
 1200 1485 l 1,43,-1
 1032 1247 l 1,20,21
EndSplineSet
EndChar
StartChar: Thorn
Encoding: 222 222 222
Width: 1233
Flags: W
Fore
403 1057 m 1,0,-1
 403 532 l 1,1,-1
 637 532 l 2,2,3
 795 532 795 532 873.5 598 c 128,-1,4
 952 664 952 664 952 795 c 0,5,6
 952 926 952 926 873.5 991.5 c 128,-1,7
 795 1057 795 1057 637 1057 c 2,8,-1
 403 1057 l 1,0,-1
201 1493 m 1,9,-1
 403 1493 l 1,10,-1
 403 1223 l 1,11,-1
 657 1223 l 2,12,13
 917 1223 917 1223 1041 1118 c 128,-1,14
 1165 1013 1165 1013 1165 795 c 0,15,16
 1165 576 1165 576 1041 471.5 c 128,-1,17
 917 367 917 367 657 367 c 2,18,-1
 403 367 l 1,19,-1
 403 0 l 1,20,-1
 201 0 l 1,21,-1
 201 1493 l 1,9,-1
EndSplineSet
EndChar
StartChar: germandbls
Encoding: 223 223 223
Width: 1233
Flags: W
Fore
188 1137 m 2,0,1
 188 1350 188 1350 293 1453 c 128,-1,2
 398 1556 398 1556 614 1556 c 0,3,4
 818 1556 818 1556 923 1445.5 c 128,-1,5
 1028 1335 1028 1335 1030 1119 c 1,6,7
 875 1105 875 1105 791 1043 c 128,-1,8
 707 981 707 981 707 881 c 0,9,10
 707 832 707 832 734.5 793.5 c 128,-1,11
 762 755 762 755 829 713 c 2,12,-1
 887 676 l 2,13,14
 1038 583 1038 583 1093.5 501 c 128,-1,15
 1149 419 1149 419 1149 303 c 0,16,17
 1149 149 1149 149 1037 60 c 128,-1,18
 925 -29 925 -29 729 -29 c 0,19,20
 660 -29 660 -29 592.5 -16.5 c 128,-1,21
 525 -4 525 -4 459 20 c 1,22,-1
 459 184 l 1,23,24
 535 153 535 153 601.5 138 c 128,-1,25
 668 123 668 123 727 123 c 0,26,27
 835 123 835 123 899 171.5 c 128,-1,28
 963 220 963 220 963 301 c 0,29,30
 963 372 963 372 930.5 419.5 c 128,-1,31
 898 467 898 467 778 541 c 1,32,-1
 711 580 l 1,33,34
 619 636 619 636 573.5 702.5 c 128,-1,35
 528 769 528 769 528 848 c 0,36,37
 528 976 528 976 609 1061.5 c 128,-1,38
 690 1147 690 1147 846 1182 c 1,39,40
 844 1289 844 1289 783.5 1346 c 128,-1,41
 723 1403 723 1403 610 1403 c 0,42,43
 489 1403 489 1403 432 1337.5 c 128,-1,44
 375 1272 375 1272 375 1133 c 2,45,-1
 375 0 l 1,46,-1
 188 0 l 1,47,-1
 188 1137 l 2,0,1
EndSplineSet
EndChar
StartChar: ae
Encoding: 230 230 230
Width: 1233
Flags: W
Fore
543 442 m 2,0,-1
 543 514 l 1,1,-1
 494 514 l 2,2,3
 325 514 325 514 265 469 c 128,-1,4
 205 424 205 424 205 311 c 0,5,6
 205 222 205 222 249.5 173.5 c 128,-1,7
 294 125 294 125 377 125 c 0,8,9
 469 125 469 125 506 191.5 c 128,-1,10
 543 258 543 258 543 442 c 2,0,-1
1036 657 m 1,11,-1
 1036 709 l 2,12,13
 1036 860 1036 860 997.5 926.5 c 128,-1,14
 959 993 959 993 872 993 c 0,15,16
 785 993 785 993 747 925 c 128,-1,17
 709 857 709 857 709 700 c 2,18,-1
 709 657 l 1,19,-1
 1036 657 l 1,11,-1
1200 514 m 1,20,-1
 709 514 l 1,21,22
 708 499 708 499 707.5 481.5 c 128,-1,23
 707 464 707 464 707 430 c 0,24,25
 707 269 707 269 757.5 197 c 128,-1,26
 808 125 808 125 920 125 c 0,27,28
 999 125 999 125 1063.5 150.5 c 128,-1,29
 1128 176 1128 176 1178 227 c 1,30,-1
 1178 55 l 1,31,32
 1123 14 1123 14 1057 -7.5 c 128,-1,33
 991 -29 991 -29 920 -29 c 0,34,35
 810 -29 810 -29 735.5 12 c 128,-1,36
 661 53 661 53 629 131 c 1,37,38
 590 51 590 51 523.5 11 c 128,-1,39
 457 -29 457 -29 360 -29 c 0,40,41
 204 -29 204 -29 122.5 57 c 128,-1,42
 41 143 41 143 41 307 c 0,43,44
 41 478 41 478 141 567.5 c 128,-1,45
 241 657 241 657 432 657 c 2,46,-1
 549 657 l 1,47,-1
 549 745 l 2,48,49
 549 865 549 865 499.5 929 c 128,-1,50
 450 993 450 993 356 993 c 0,51,52
 300 993 300 993 234 971.5 c 128,-1,53
 168 950 168 950 106 911 c 1,54,-1
 106 1079 l 1,55,56
 183 1114 183 1114 249 1130.5 c 128,-1,57
 315 1147 315 1147 375 1147 c 0,58,59
 466 1147 466 1147 528 1115.5 c 128,-1,60
 590 1084 590 1084 627 1020 c 1,61,62
 660 1081 660 1081 726 1114 c 128,-1,63
 792 1147 792 1147 881 1147 c 0,64,65
 1055 1147 1055 1147 1127.5 1028.5 c 128,-1,66
 1200 910 1200 910 1200 604 c 2,67,-1
 1200 514 l 1,20,-1
EndSplineSet
EndChar
StartChar: eth
Encoding: 240 240 240
Width: 1233
Flags: W
Fore
717 1327 m 1,0,1
 914 1115 914 1115 1005 925 c 128,-1,2
 1096 735 1096 735 1096 535 c 0,3,4
 1096 267 1096 267 970.5 119 c 128,-1,5
 845 -29 845 -29 616 -29 c 0,6,7
 388 -29 388 -29 262.5 119 c 128,-1,8
 137 267 137 267 137 535 c 0,9,10
 137 800 137 800 262.5 948 c 128,-1,11
 388 1096 388 1096 612 1096 c 0,12,13
 646 1096 646 1096 663.5 1095 c 128,-1,14
 681 1094 681 1094 696 1092 c 1,15,16
 663 1137 663 1137 627 1181.5 c 128,-1,17
 591 1226 591 1226 553 1270 c 1,18,-1
 274 1178 l 1,19,-1
 244 1276 l 1,20,-1
 481 1356 l 1,21,-1
 299 1556 l 1,22,-1
 518 1556 l 1,23,-1
 645 1411 l 1,24,-1
 934 1505 l 1,25,-1
 967 1407 l 1,26,-1
 717 1327 l 1,0,1
793 918 m 1,27,28
 758 931 758 931 717 937.5 c 128,-1,29
 676 944 676 944 631 944 c 0,30,31
 485 944 485 944 408.5 839 c 128,-1,32
 332 734 332 734 332 535 c 0,33,34
 332 339 332 339 406 233 c 128,-1,35
 480 127 480 127 616 127 c 0,36,37
 753 127 753 127 827 233 c 128,-1,38
 901 339 901 339 901 535 c 0,39,40
 901 645 901 645 872 746.5 c 128,-1,41
 843 848 843 848 793 918 c 1,27,28
EndSplineSet
EndChar
StartChar: divide
Encoding: 247 247 247
Width: 1233
Flags: W
Fore
494 395 m 1,0,-1
 739 395 l 1,1,-1
 739 150 l 1,2,-1
 494 150 l 1,3,-1
 494 395 l 1,0,-1
494 1135 m 1,4,-1
 739 1135 l 1,5,-1
 739 889 l 1,6,-1
 494 889 l 1,7,-1
 494 1135 l 1,4,-1
88 727 m 1,8,-1
 1145 727 l 1,9,-1
 1145 557 l 1,10,-1
 88 557 l 1,11,-1
 88 727 l 1,8,-1
EndSplineSet
EndChar
StartChar: oslash
Encoding: 248 248 248
Width: 1233
Flags: W
Fore
877 780 m 1,0,-1
 414 221 l 1,1,2
 450 174 450 174 500.5 150.5 c 128,-1,3
 551 127 551 127 616 127 c 0,4,5
 757 127 757 127 829 236.5 c 128,-1,6
 901 346 901 346 901 559 c 0,7,8
 901 611 901 611 895 666.5 c 128,-1,9
 889 722 889 722 877 780 c 1,0,-1
817 897 m 1,10,11
 782 945 782 945 732.5 968 c 128,-1,12
 683 991 683 991 616 991 c 0,13,14
 477 991 477 991 402.5 884 c 128,-1,15
 328 777 328 777 328 575 c 0,16,17
 328 527 328 527 335 469 c 128,-1,18
 342 411 342 411 356 340 c 1,19,-1
 817 897 l 1,10,11
217 180 m 1,20,21
 178 251 178 251 157.5 348.5 c 128,-1,22
 137 446 137 446 137 559 c 0,23,24
 137 845 137 845 260 996 c 128,-1,25
 383 1147 383 1147 616 1147 c 0,26,27
 716 1147 716 1147 795 1119.5 c 128,-1,28
 874 1092 874 1092 934 1036 c 1,29,-1
 1081 1212 l 1,30,-1
 1174 1135 l 1,31,-1
 1010 940 l 1,32,33
 1052 874 1052 874 1074 777.5 c 128,-1,34
 1096 681 1096 681 1096 559 c 0,35,36
 1096 272 1096 272 973 121.5 c 128,-1,37
 850 -29 850 -29 616 -29 c 0,38,39
 513 -29 513 -29 434.5 0.5 c 128,-1,40
 356 30 356 30 299 90 c 1,41,-1
 139 -96 l 1,42,-1
 47 -20 l 1,43,-1
 217 180 l 1,20,21
EndSplineSet
EndChar
StartChar: thorn
Encoding: 254 254 254
Width: 1233
Flags: W
Fore
375 141 m 1,0,-1
 375 -426 l 1,1,-1
 190 -426 l 1,2,-1
 190 1567 l 1,3,-1
 375 1567 l 1,4,-1
 375 977 l 1,5,6
 421 1060 421 1060 497.5 1103.5 c 128,-1,7
 574 1147 574 1147 674 1147 c 0,8,9
 877 1147 877 1147 992.5 990 c 128,-1,10
 1108 833 1108 833 1108 555 c 0,11,12
 1108 282 1108 282 992 126.5 c 128,-1,13
 876 -29 876 -29 674 -29 c 0,14,15
 572 -29 572 -29 495.5 14.5 c 128,-1,16
 419 58 419 58 375 141 c 1,0,-1
915 559 m 0,17,18
 915 773 915 773 847.5 882 c 128,-1,19
 780 991 780 991 647 991 c 0,20,21
 513 991 513 991 444 881.5 c 128,-1,22
 375 772 375 772 375 559 c 0,23,24
 375 347 375 347 444 237 c 128,-1,25
 513 127 513 127 647 127 c 0,26,27
 780 127 780 127 847.5 236 c 128,-1,28
 915 345 915 345 915 559 c 0,17,18
EndSplineSet
EndChar
StartChar: Dcroat
Encoding: 272 272 272
Width: 1233
Flags: W
Fore
436 1493 m 2,0,1
 778 1493 778 1493 940 1311 c 128,-1,2
 1102 1129 1102 1129 1102 745 c 0,3,4
 1102 363 1102 363 939.5 181.5 c 128,-1,5
 777 0 777 0 436 0 c 2,6,-1
 133 0 l 1,7,-1
 133 709 l 1,8,-1
 8 709 l 1,9,-1
 8 858 l 1,10,-1
 133 858 l 1,11,-1
 133 1493 l 1,12,-1
 436 1493 l 2,0,1
436 166 m 2,13,14
 691 166 691 166 792 291.5 c 128,-1,15
 893 417 893 417 893 745 c 0,16,17
 893 1076 893 1076 792.5 1201.5 c 128,-1,18
 692 1327 692 1327 436 1327 c 2,19,-1
 340 1327 l 1,20,-1
 340 858 l 1,21,-1
 604 858 l 1,22,-1
 604 709 l 1,23,-1
 340 709 l 1,24,-1
 340 166 l 1,25,-1
 436 166 l 2,13,14
EndSplineSet
EndChar
StartChar: dcroat
Encoding: 273 273 273
Width: 1233
Flags: W
Fore
858 977 m 1,0,-1
 858 1286 l 1,1,-1
 553 1286 l 1,2,-1
 553 1407 l 1,3,-1
 858 1407 l 1,4,-1
 858 1556 l 1,5,-1
 1042 1556 l 1,6,-1
 1042 1407 l 1,7,-1
 1233 1407 l 1,8,-1
 1233 1286 l 1,9,-1
 1042 1286 l 1,10,-1
 1042 0 l 1,11,-1
 858 0 l 1,12,-1
 858 141 l 1,13,14
 812 58 812 58 735.5 14.5 c 128,-1,15
 659 -29 659 -29 559 -29 c 0,16,17
 356 -29 356 -29 239.5 128.5 c 128,-1,18
 123 286 123 286 123 563 c 0,19,20
 123 836 123 836 240 991.5 c 128,-1,21
 357 1147 357 1147 559 1147 c 0,22,23
 660 1147 660 1147 737 1103.5 c 128,-1,24
 814 1060 814 1060 858 977 c 1,0,-1
317 559 m 0,25,26
 317 345 317 345 385 236 c 128,-1,27
 453 127 453 127 586 127 c 0,28,29
 719 127 719 127 788.5 237 c 128,-1,30
 858 347 858 347 858 559 c 0,31,32
 858 772 858 772 788.5 881.5 c 128,-1,33
 719 991 719 991 586 991 c 0,34,35
 453 991 453 991 385 882 c 128,-1,36
 317 773 317 773 317 559 c 0,25,26
EndSplineSet
EndChar
StartChar: Hbar
Encoding: 294 294 294
Width: 1233
Flags: W
Fore
137 1493 m 1,0,-1
 339 1493 l 1,1,-1
 339 1269 l 1,2,-1
 893 1269 l 1,3,-1
 893 1493 l 1,4,-1
 1095 1493 l 1,5,-1
 1095 1269 l 1,6,-1
 1230 1269 l 1,7,-1
 1230 1105 l 1,8,-1
 1095 1105 l 1,9,-1
 1095 0 l 1,10,-1
 893 0 l 1,11,-1
 893 711 l 1,12,-1
 339 711 l 1,13,-1
 339 0 l 1,14,-1
 137 0 l 1,15,-1
 137 1105 l 1,16,-1
 3 1105 l 1,17,-1
 3 1269 l 1,18,-1
 137 1269 l 1,19,-1
 137 1493 l 1,0,-1
339 1105 m 1,20,-1
 339 881 l 1,21,-1
 893 881 l 1,22,-1
 893 1105 l 1,23,-1
 339 1105 l 1,20,-1
EndSplineSet
EndChar
StartChar: hbar
Encoding: 295 295 295
Width: 1233
Flags: W
Fore
1051 694 m 2,0,-1
 1051 0 l 1,1,-1
 866 0 l 1,2,-1
 866 694 l 2,3,4
 866 845 866 845 813 916 c 128,-1,5
 760 987 760 987 647 987 c 0,6,7
 518 987 518 987 448.5 895.5 c 128,-1,8
 379 804 379 804 379 633 c 2,9,-1
 379 0 l 1,10,-1
 195 0 l 1,11,-1
 195 1270 l 1,12,-1
 70 1270 l 1,13,-1
 70 1434 l 1,14,-1
 195 1434 l 1,15,-1
 195 1556 l 1,16,-1
 379 1556 l 1,17,-1
 379 1434 l 1,18,-1
 732 1434 l 1,19,-1
 732 1270 l 1,20,-1
 379 1270 l 1,21,-1
 379 952 l 1,22,23
 428 1048 428 1048 512 1097.5 c 128,-1,24
 596 1147 596 1147 711 1147 c 0,25,26
 882 1147 882 1147 966.5 1034.5 c 128,-1,27
 1051 922 1051 922 1051 694 c 2,0,-1
EndSplineSet
EndChar
StartChar: dotlessi
Encoding: 305 305 305
Width: 1233
Flags: W
Fore
256 1120 m 1,0,-1
 727 1120 l 1,1,-1
 727 143 l 1,2,-1
 1092 143 l 1,3,-1
 1092 0 l 1,4,-1
 178 0 l 1,5,-1
 178 143 l 1,6,-1
 543 143 l 1,7,-1
 543 977 l 1,8,-1
 256 977 l 1,9,-1
 256 1120 l 1,0,-1
EndSplineSet
EndChar
StartChar: IJ
Encoding: 306 306 306
Width: 1233
Flags: W
Fore
651.6 64 m 1,0,-1
 651.6 300 l 1,1,2
 713.48 219 713.48 219 779.44 178.5 c 128,-1,3
 845.4 138 845.4 138 916.12 138 c 0,4,5
 1013.36 138 1013.36 138 1051.78 212.5 c 0,6,7
 1090.2 287 1090.2 287 1090.2 490 c 2,8,-1
 1090.2 1326 l 1,9,-1
 831.12 1326 l 1,10,-1
 831.12 1496 l 1,11,-1
 1227.56 1496 l 1,12,-1
 1227.56 490 l 2,13,14
 1227.56 208 1227.56 208 1155.82 91 c 0,15,16
 1084.08 -26 1084.08 -26 916.12 -26 c 0,17,18
 850.84 -26 850.84 -26 786.24 -4 c 0,19,20
 721.64 18 721.64 18 651.6 64 c 1,0,-1
-1 1493 m 1,21,-1
 604.17 1493 l 1,22,-1
 604.17 1323 l 1,23,-1
 375.68 1323 l 1,24,-1
 375.68 170 l 1,25,-1
 604.17 170 l 1,26,-1
 604.17 0 l 1,27,-1
 -1 0 l 1,28,-1
 -1 170 l 1,29,-1
 227.49 170 l 1,30,-1
 227.49 1323 l 1,31,-1
 -1 1323 l 1,32,-1
 -1 1493 l 1,21,-1
EndSplineSet
LCarets: 0 65535 '    ' 1 0 
Ligature: 0 1 'liga' I J
EndChar
StartChar: ij
Encoding: 307 307 307
Width: 1233
Flags: W
Fore
978 -31 m 2,0,-1
 978 966 l 1,1,-1
 661 966 l 1,2,-1
 661 1109 l 1,3,-1
 1162 1109 l 1,4,-1
 1162 -31 l 2,5,6
 1162 -226 1162 -226 1072.5 -331.5 c 128,-1,7
 983 -437 983 -437 818 -437 c 2,8,-1
 564 -437 l 1,9,-1
 564 -281 l 1,10,-1
 798 -281 l 2,11,12
 888 -281 888 -281 933 -218.5 c 128,-1,13
 978 -156 978 -156 978 -31 c 2,0,-1
978 1545 m 1,14,-1
 1162 1545 l 1,15,-1
 1162 1312 l 1,16,-1
 978 1312 l 1,17,-1
 978 1545 l 1,14,-1
59.0801 1120 m 1,18,-1
 445.3 1120 l 1,19,-1
 445.3 143 l 1,20,-1
 744.6 143 l 1,21,-1
 744.6 0 l 1,22,-1
 -4.87988 0 l 1,23,-1
 -4.87988 143 l 1,24,-1
 294.42 143 l 1,25,-1
 294.42 977 l 1,26,-1
 59.0801 977 l 1,27,-1
 59.0801 1120 l 1,18,-1
294.42 1556 m 1,28,-1
 445.3 1556 l 1,29,-1
 445.3 1323 l 1,30,-1
 294.42 1323 l 1,31,-1
 294.42 1556 l 1,28,-1
EndSplineSet
LCarets: 0 65535 '    ' 1 0 
Ligature: 0 1 'liga' i j
EndChar
StartChar: kgreenlandic
Encoding: 312 312 312
Width: 1233
Flags: W
Fore
236 1120 m 1,0,-1
 426 1120 l 1,1,-1
 426 655 l 1,2,-1
 909 1120 l 1,3,-1
 1133 1120 l 1,4,-1
 692 698 l 1,5,-1
 1202 0 l 1,6,-1
 977 0 l 1,7,-1
 563 578 l 1,8,-1
 426 449 l 1,9,-1
 426 0 l 1,10,-1
 236 0 l 1,11,-1
 236 1120 l 1,0,-1
EndSplineSet
EndChar
StartChar: Lslash
Encoding: 321 321 321
Width: 1233
Flags: W
Fore
215 1493 m 1,0,-1
 418 1493 l 1,1,-1
 418 877 l 1,2,-1
 733 1096 l 1,3,-1
 811 985 l 1,4,-1
 418 711 l 1,5,-1
 418 170 l 1,6,-1
 1139 170 l 1,7,-1
 1139 0 l 1,8,-1
 215 0 l 1,9,-1
 215 571 l 1,10,-1
 70 465 l 1,11,-1
 -10 575 l 1,12,-1
 215 733 l 1,13,-1
 215 1493 l 1,0,-1
EndSplineSet
EndChar
StartChar: lslash
Encoding: 322 322 322
Width: 1233
Flags: W
Fore
639 406 m 2,0,1
 639 282 639 282 684.5 219 c 128,-1,2
 730 156 730 156 819 156 c 2,3,-1
 1034 156 l 1,4,-1
 1034 0 l 1,5,-1
 801 0 l 2,6,7
 636 0 636 0 545.5 106 c 128,-1,8
 455 212 455 212 455 406 c 2,9,-1
 455 698 l 1,10,-1
 156 489 l 1,11,-1
 76 600 l 1,12,-1
 455 864 l 1,13,-1
 455 1423 l 1,14,-1
 160 1423 l 1,15,-1
 160 1567 l 1,16,-1
 639 1567 l 1,17,-1
 639 989 l 1,18,-1
 954 1208 l 1,19,-1
 1034 1098 l 1,20,-1
 639 823 l 1,21,-1
 639 406 l 2,0,1
EndSplineSet
EndChar
StartChar: Eng
Encoding: 330 330 330
Width: 1233
Flags: W
Fore
149 1493 m 1,0,-1
 334 1493 l 1,1,-1
 899 364 l 1,2,-1
 899 1493 l 1,3,-1
 1084 1493 l 1,4,-1
 1084 -20 l 2,5,6
 1084 -215 1084 -215 995 -320 c 0,7,8
 905 -426 905 -426 740 -426 c 2,9,-1
 535 -426 l 1,10,-1
 535 -270 l 1,11,-1
 720 -270 l 2,12,13
 810 -270 810 -270 855 -208 c 0,14,15
 899 -146 899 -146 899 0 c 1,16,-1
 334 1129 l 1,17,-1
 334 0 l 1,18,-1
 149 0 l 1,19,-1
 149 1493 l 1,0,-1
EndSplineSet
EndChar
StartChar: eng
Encoding: 331 331 331
Width: 1233
Flags: W
Fore
1051 694 m 2,0,-1
 1051 -20 l 2,1,2
 1051 -215 1051 -215 962 -320 c 0,3,4
 872 -426 872 -426 707 -426 c 2,5,-1
 502 -426 l 1,6,-1
 502 -270 l 1,7,-1
 687 -270 l 2,8,9
 777 -270 777 -270 822 -208 c 0,10,11
 866 -146 866 -146 866 -20 c 2,12,-1
 866 694 l 2,13,14
 866 845 866 845 813 916 c 128,-1,15
 760 987 760 987 647 987 c 0,16,17
 518 987 518 987 448 896 c 0,18,19
 379 804 379 804 379 633 c 2,20,-1
 379 0 l 1,21,-1
 195 0 l 1,22,-1
 195 1120 l 1,23,-1
 379 1120 l 1,24,-1
 379 952 l 1,25,26
 428 1048 428 1048 512 1098 c 0,27,28
 596 1147 596 1147 711 1147 c 0,29,30
 882 1147 882 1147 966 1034 c 0,31,32
 1051 922 1051 922 1051 694 c 2,0,-1
EndSplineSet
EndChar
StartChar: OE
Encoding: 338 338 338
Width: 1233
Flags: W
Fore
1217 170 m 1,0,-1
 1217 0 l 1,1,-1
 612 0 l 2,2,3
 317 0 317 0 194.5 166.5 c 128,-1,4
 72 333 72 333 72 745 c 0,5,6
 72 1162 72 1162 194 1327.5 c 128,-1,7
 316 1493 316 1493 612 1493 c 2,8,-1
 1206 1493 l 1,9,-1
 1206 1323 l 1,10,-1
 848 1323 l 1,11,-1
 848 881 l 1,12,-1
 1176 881 l 1,13,-1
 1176 711 l 1,14,-1
 848 711 l 1,15,-1
 848 170 l 1,16,-1
 1217 170 l 1,0,-1
590 1323 m 2,17,18
 413 1323 413 1323 343.5 1208 c 128,-1,19
 274 1093 274 1093 274 745 c 0,20,21
 274 399 274 399 343.5 284.5 c 128,-1,22
 413 170 413 170 590 170 c 2,23,-1
 651 170 l 1,24,-1
 651 1323 l 1,25,-1
 590 1323 l 2,17,18
EndSplineSet
EndChar
StartChar: oe
Encoding: 339 339 339
Width: 1233
Flags: W
Fore
1047 657 m 1,0,1
 1047 668 1047 668 1048 687 c 128,-1,2
 1049 706 1049 706 1049 715 c 0,3,4
 1049 860 1049 860 1009 927.5 c 128,-1,5
 969 995 969 995 883 995 c 0,6,7
 796 995 796 995 757.5 926.5 c 128,-1,8
 719 858 719 858 719 700 c 2,9,-1
 719 657 l 1,10,-1
 1047 657 l 1,0,1
373 123 m 0,11,12
 475 123 475 123 516 207 c 128,-1,13
 557 291 557 291 557 530 c 0,14,15
 557 821 557 821 517 908 c 128,-1,16
 477 995 477 995 373 995 c 0,17,18
 270 995 270 995 230 911.5 c 128,-1,19
 190 828 190 828 190 559 c 0,20,21
 190 290 190 290 230 206.5 c 128,-1,22
 270 123 270 123 373 123 c 0,11,12
1210 514 m 1,23,-1
 719 514 l 1,24,-1
 719 430 l 2,25,26
 719 267 719 267 768.5 195 c 128,-1,27
 818 123 818 123 930 123 c 0,28,29
 1010 123 1010 123 1075.5 149.5 c 128,-1,30
 1141 176 1141 176 1188 227 c 1,31,-1
 1188 55 l 1,32,33
 1129 12 1129 12 1066.5 -8.5 c 128,-1,34
 1004 -29 1004 -29 930 -29 c 0,35,36
 832 -29 832 -29 758.5 4.5 c 128,-1,37
 685 38 685 38 637 104 c 1,38,39
 585 36 585 36 521 3.5 c 128,-1,40
 457 -29 457 -29 373 -29 c 0,41,42
 184 -29 184 -29 99 109 c 128,-1,43
 14 247 14 247 14 559 c 0,44,45
 14 871 14 871 99 1009 c 128,-1,46
 184 1147 184 1147 373 1147 c 0,47,48
 462 1147 462 1147 526 1116 c 128,-1,49
 590 1085 590 1085 637 1020 c 1,50,51
 674 1082 674 1082 739 1114.5 c 128,-1,52
 804 1147 804 1147 891 1147 c 0,53,54
 1066 1147 1066 1147 1138 1028.5 c 128,-1,55
 1210 910 1210 910 1210 604 c 2,56,-1
 1210 514 l 1,23,-1
EndSplineSet
EndChar
StartChar: Tbar
Encoding: 358 358 358
Width: 1233
Flags: W
TeX: 0 0 0 0
Fore
47 1493 m 1,0,-1
 1186 1493 l 1,1,-1
 1186 1323 l 1,2,-1
 719 1323 l 1,3,-1
 719 747 l 1,4,-1
 984 747 l 1,5,-1
 984 577 l 1,6,-1
 719 577 l 1,7,-1
 719 0 l 1,8,-1
 516 0 l 1,9,-1
 516 577 l 1,10,-1
 251 577 l 1,11,-1
 251 747 l 1,12,-1
 516 747 l 1,13,-1
 516 1323 l 1,14,-1
 47 1323 l 1,15,-1
 47 1493 l 1,0,-1
EndSplineSet
EndChar
StartChar: tbar
Encoding: 359 359 359
Width: 1233
Flags: W
TeX: 0 0 0 0
Fore
614 1438 m 1,0,-1
 614 1120 l 1,1,-1
 1032 1120 l 1,2,-1
 1032 977 l 1,3,-1
 614 977 l 1,4,-1
 614 744 l 1,5,-1
 843 744 l 1,6,-1
 843 602 l 1,7,-1
 614 602 l 1,8,-1
 614 369 l 2,9,10
 614 245 614 245 661 196 c 128,-1,11
 708 147 708 147 825 147 c 2,12,-1
 1032 147 l 1,13,-1
 1032 0 l 1,14,-1
 807 0 l 2,15,16
 600 0 600 0 515 83 c 128,-1,17
 430 166 430 166 430 369 c 2,18,-1
 430 602 l 1,19,-1
 201 602 l 1,20,-1
 201 744 l 1,21,-1
 430 744 l 1,22,-1
 430 977 l 1,23,-1
 131 977 l 1,24,-1
 131 1120 l 1,25,-1
 430 1120 l 1,26,-1
 430 1438 l 1,27,-1
 614 1438 l 1,0,-1
EndSplineSet
EndChar
StartChar: longs
Encoding: 383 383 383
Width: 1233
Flags: W
Fore
678.005 1219 m 9,0,-1
 678 0 l 1,1,-1
 494 0 l 1,2,-1
 494 977 l 1,3,-1
 195 977 l 1,4,-1
 195 1120 l 1,5,-1
 494 1120 l 1,6,-1
 494 1198 l 2,7,8
 494 1382 494 1382 578.5 1469 c 128,-1,9
 663 1556 663 1556 842 1556 c 2,10,-1
 1063 1556 l 1,11,-1
 1063 1403 l 1,12,-1
 854 1403 l 2,13,14
 755 1403 755 1403 716.5 1362.5 c 128,-1,15
 678 1322 678 1322 678.005 1219 c 9,0,-1
EndSplineSet
EndChar
StartChar: uni0186
Encoding: 390 390 390
Width: 1233
Flags: W
TeX: 117 0 0 0
Fore
139 53 m 1,0,1
 139 260 l 1,25,-1
 212 199 212 199 296.5 167 c 128,-1,24
 381 135 381 135 469 135 c 0,22,23
 666 135 666 135 764 287 c 128,-1,21
 862 439 862 439 862 745 c 0,19,20
 862 1052 862 1052 764 1204 c 128,-1,18
 666 1356 666 1356 469 1356 c 0,16,17
 383 1356 383 1356 298 1324 c 128,-1,15
 213 1292 213 1292 139 1231 c 1,13,14
 139 1438 l 1,12,-1
 216 1479 216 1479 297 1499.5 c 128,-1,11
 378 1520 378 1520 469 1520 c 0,9,10
 754 1520 754 1520 913.5 1315.5 c 128,-1,8
 1073 1111 1073 1111 1073 745 c 0,6,7
 1073 377 1073 377 914.5 174 c 128,-1,5
 756 -29 756 -29 469 -29 c 0,3,4
 378 -29 378 -29 297 -8.5 c 128,-1,2
 216 12 216 12 139 53 c 1,0,1
EndSplineSet
EndChar
StartChar: uni0190
Encoding: 400 400 400
Width: 1233
Flags: W
TeX: 117 0 0 0
Fore
440 799 m 1,0,1
 309 833 309 833 240.5 915 c 128,-1,40
 172 997 172 997 172 1120 c 0,38,39
 172 1301 172 1301 302.5 1410.5 c 128,-1,37
 433 1520 433 1520 651 1520 c 0,35,36
 724 1520 724 1520 818.5 1504 c 128,-1,34
 913 1488 913 1488 1034 1456 c 1,32,33
 1034 1270 l 1,31,-1
 930 1310 930 1310 835 1330 c 128,-1,30
 740 1350 740 1350 651 1350 c 0,28,29
 517 1350 517 1350 444.5 1288.5 c 128,-1,27
 372 1227 372 1227 372 1112 c 0,25,26
 372 1003 372 1003 450 942 c 128,-1,24
 528 881 528 881 667 881 c 2,22,23
 821 881 l 1,21,-1
 821 715 l 1,20,-1
 667 715 l 2,19,-1
 515 715 515 715 426 638.5 c 128,-1,18
 337 562 337 562 337 432 c 0,16,17
 337 291 337 291 426 216 c 128,-1,15
 515 141 515 141 681 141 c 0,13,14
 779 141 779 141 878 167 c 128,-1,12
 977 193 977 193 1079 246 c 1,10,11
 1079 45 l 1,9,-1
 976 9 976 9 869 -10 c 128,-1,8
 762 -29 762 -29 659 -29 c 0,6,7
 414 -29 414 -29 275.5 88.5 c 128,-1,5
 137 206 137 206 137 412 c 0,3,4
 137 561 137 561 215 660.5 c 128,-1,2
 293 760 293 760 440 799 c 1,0,1
EndSplineSet
EndChar
StartChar: florin
Encoding: 402 402 402
Width: 1233
Flags: W
Fore
1200 1520 m 1,0,-1
 1200 1356 l 1,1,2
 1164 1384 1164 1384 1123 1398.5 c 128,-1,3
 1082 1413 1082 1413 1038 1413 c 0,4,5
 936 1413 936 1413 878.5 1351 c 128,-1,6
 821 1289 821 1289 803 1159 c 1,7,-1
 758 848 l 1,8,-1
 1061 848 l 1,9,-1
 1061 705 l 1,10,-1
 733 705 l 1,11,-1
 633 70 l 1,12,13
 590 -196 590 -196 490.5 -311 c 128,-1,14
 391 -426 391 -426 205 -426 c 0,15,16
 148 -426 148 -426 97 -415.5 c 128,-1,17
 46 -405 46 -405 0 -383 c 1,18,-1
 0 -219 l 1,19,20
 49 -250 49 -250 99 -266.5 c 128,-1,21
 149 -283 149 -283 197 -283 c 0,22,23
 293 -283 293 -283 353.5 -208 c 128,-1,24
 414 -133 414 -133 440 18 c 1,25,-1
 557 705 l 1,26,-1
 305 705 l 1,27,-1
 305 848 l 1,28,-1
 580 848 l 1,29,-1
 629 1178 l 1,30,31
 655 1355 655 1355 754 1455.5 c 128,-1,32
 853 1556 853 1556 1001 1556 c 0,33,34
 1050 1556 1050 1556 1099.5 1547 c 128,-1,35
 1149 1538 1149 1538 1200 1520 c 1,0,-1
EndSplineSet
EndChar
StartChar: uni0194
Encoding: 404 404 404
Width: 1233
Flags: W
TeX: 0 0 0 0
Fore
730.5 650 m 1,5,-1
 1057.5 201 1057.5 201 1054.5 -194 c 8,0,0
 1051.5 -430 1051.5 -430 638.5 -430 c 8,0,0
 230.5 -430 230.5 -430 198.5 -194 c 16,0,0
 149.5 172 149.5 172 492.5 657 c 1,0,0
 27.5 1353 l 1,0,-1
 244.5 1353 l 1,1,-1
 615.5 798 l 1,2,-1
 988.5 1353 l 1,3,-1
 1205.5 1353 l 1,4,-1
 730.5 650 l 1,5,-1
600.5 495 m 1,0,0
 394.5 194 394.5 194 401.5 -130 c 8,0,0
 404.5 -268 404.5 -268 617.5 -268 c 16,0,0
 822.5 -268 822.5 -268 821.5 -130 c 16,0,0
 818.5 200 818.5 200 600.5 495 c 1,0,0
EndSplineSet
EndChar
StartChar: uni01AB
Encoding: 427 427 427
Width: 1233
Flags: W
TeX: 117 0 0 0
Fore
614 1438 m 1,0,-1
 614 1120 l 1,1,-1
 1032 1120 l 1,2,-1
 1032 977 l 1,3,-1
 614 977 l 1,4,-1
 614 369 l 2,5,6
 614 245 614 245 661 196 c 0,7,8
 708 147 708 147 825 147 c 2,9,-1
 1032 147 l 1,10,-1
 1032 0 l 1,11,-1
 1032 -20 l 2,12,13
 1032 -215 1032 -215 943 -320 c 0,14,15
 853 -426 853 -426 688 -426 c 2,16,-1
 483 -426 l 1,17,-1
 483 -270 l 1,18,-1
 668 -270 l 2,19,20
 758 -270 758 -270 803 -208 c 0,21,22
 847 -146 847 -146 847 -20 c 2,23,-1
 847 2.77556e-17 l 1,24,-1
 807 0 l 2,25,26
 600 0 600 0 515 83 c 0,27,28
 430 166 430 166 430 369 c 2,29,-1
 430 977 l 1,30,-1
 131 977 l 1,31,-1
 131 1120 l 1,32,-1
 430 1120 l 1,33,-1
 430 1438 l 1,34,-1
 614 1438 l 1,0,-1
EndSplineSet
EndChar
StartChar: dotlessj
Encoding: 567 567 567
Width: 1233
Flags: W
Fore
600 -20 m 2,0,-1
 600 977 l 1,1,-1
 283 977 l 1,2,-1
 283 1120 l 1,3,-1
 784 1120 l 1,4,-1
 784 -20 l 2,5,6
 784 -215 784 -215 694.5 -320.5 c 128,-1,7
 605 -426 605 -426 440 -426 c 2,8,-1
 186 -426 l 1,9,-1
 186 -270 l 1,10,-1
 420 -270 l 2,11,12
 510 -270 510 -270 555 -207.5 c 128,-1,13
 600 -145 600 -145 600 -20 c 2,0,-1
EndSplineSet
EndChar
StartChar: uni0250
Encoding: 592 592 592
Width: 1233
Flags: W
Fore
510.5 555 m 1,0,-1
 571.5 555 l 2,1,2
 732.5 555 732.5 555 814 611.5 c 128,-1,3
 895.5 668 895.5 668 895.5 780 c 0,4,5
 895.5 881 895.5 881 834.5 937 c 128,-1,6
 773.5 993 773.5 993 665.5 993 c 0,7,8
 513.5 993 513.5 993 426.5 887.5 c 128,-1,9
 339.5 782 339.5 782 338.5 596 c 1,10,-1
 338.5 555 l 1,11,-1
 510.5 555 l 1,0,-1
153.5 479 m 2,12,-1
 153.5 1118 l 1,13,-1
 338.5 1118 l 1,14,-1
 338.5 952 l 1,15,16
 397.5 1052 397.5 1052 487 1099.5 c 128,-1,17
 576.5 1147 576.5 1147 704.5 1147 c 0,18,19
 875.5 1147 875.5 1147 977.5 1050.5 c 128,-1,20
 1079.5 954 1079.5 954 1079.5 792 c 0,21,22
 1079.5 605 1079.5 605 954 508 c 128,-1,23
 828.5 411 828.5 411 585.5 411 c 2,24,-1
 338.5 411 l 1,25,-1
 338.5 382 l 1,26,27
 339.5 248 339.5 248 406.5 187.5 c 128,-1,28
 473.5 127 473.5 127 620.5 127 c 0,29,30
 714.5 127 714.5 127 810.5 154 c 128,-1,31
 906.5 181 906.5 181 997.5 233 c 1,32,-1
 997.5 49 l 1,33,34
 895.5 10 895.5 10 802 -9.5 c 128,-1,35
 708.5 -29 708.5 -29 620.5 -29 c 0,36,37
 481.5 -29 481.5 -29 383 12 c 128,-1,38
 284.5 53 284.5 53 223.5 135 c 0,39,40
 185.5 185 185.5 185 169.5 258.5 c 128,-1,41
 153.5 332 153.5 332 153.5 479 c 2,12,-1
EndSplineSet
EndChar
StartChar: uni0251
Encoding: 593 593 593
Width: 1233
Flags: W
TeX: 0 0 0 0
Fore
892 977 m 1,0,-1
 892 1116 l 1,1,-1
 1076 1116 l 1,2,-1
 1076 0 l 1,3,-1
 892 0 l 1,4,-1
 892 141 l 1,5,6
 846 58 846 58 769.5 14.5 c 128,-1,7
 693 -29 693 -29 593 -29 c 0,8,9
 390 -29 390 -29 273.5 128.5 c 128,-1,10
 157 286 157 286 157 563 c 0,11,12
 157 836 157 836 274 991.5 c 128,-1,13
 391 1147 391 1147 593 1147 c 0,14,15
 694 1147 694 1147 771 1103.5 c 128,-1,16
 848 1060 848 1060 892 977 c 1,0,-1
351 559 m 0,17,18
 351 345 351 345 419 236 c 128,-1,19
 487 127 487 127 620 127 c 0,20,21
 753 127 753 127 822.5 237 c 128,-1,22
 892 347 892 347 892 559 c 0,23,24
 892 772 892 772 822.5 881.5 c 128,-1,25
 753 991 753 991 620 991 c 0,26,27
 487 991 487 991 419 882 c 128,-1,28
 351 773 351 773 351 559 c 0,17,18
EndSplineSet
EndChar
StartChar: uni0252
Encoding: 594 594 594
Width: 1233
Flags: W
TeX: 0 0 0 0
Fore
341 141 m 1,0,-1
 341 2 l 1,1,-1
 157 2 l 1,2,-1
 157 1118 l 1,3,-1
 341 1118 l 1,4,-1
 341 977 l 1,5,6
 387 1060 387 1060 463.5 1103.5 c 128,-1,7
 540 1147 540 1147 640 1147 c 0,8,9
 843 1147 843 1147 959.5 989.5 c 128,-1,10
 1076 832 1076 832 1076 555 c 0,11,12
 1076 282 1076 282 959 126.5 c 128,-1,13
 842 -29 842 -29 640 -29 c 0,14,15
 539 -29 539 -29 462 14.5 c 128,-1,16
 385 58 385 58 341 141 c 1,0,-1
882 559 m 0,17,18
 882 773 882 773 814 882 c 128,-1,19
 746 991 746 991 613 991 c 0,20,21
 480 991 480 991 410.5 881 c 128,-1,22
 341 771 341 771 341 559 c 0,23,24
 341 346 341 346 410.5 236.5 c 128,-1,25
 480 127 480 127 613 127 c 0,26,27
 746 127 746 127 814 236 c 128,-1,28
 882 345 882 345 882 559 c 0,17,18
EndSplineSet
EndChar
StartChar: uni0253
Encoding: 595 595 595
Width: 1233
Flags: W
TeX: 0 0 0 0
Fore
882 559 m 0,0,1
 882 773 882 773 814 882 c 128,-1,2
 746 991 746 991 613 991 c 0,3,4
 479 991 479 991 410 881.5 c 128,-1,5
 341 772 341 772 341 559 c 0,6,7
 341 347 341 347 410 237 c 128,-1,8
 479 127 479 127 613 127 c 0,9,10
 746 127 746 127 814 236 c 128,-1,11
 882 345 882 345 882 559 c 0,0,1
342 977.125 m 1,13,-1
 386.345 1059.12 386.345 1059.12 462.5 1103 c 128,-1,14
 540 1147 540 1147 642 1147 c 0,15,16
 844 1147 844 1147 960 991.5 c 128,-1,17
 1076 836 1076 836 1076 563 c 0,18,19
 1076 286 1076 286 959.5 128.5 c 128,-1,20
 843 -29 843 -29 640 -29 c 0,21,22
 540 -29 540 -29 463.5 14.5 c 128,-1,23
 387 58 387 58 341 141 c 1,24,-1
 341 0 l 1,25,-1
 157 0 l 1,26,-1
 157 1002 l 1,27,-1
 157 1150 l 2,5,6
 157 1345 157 1345 246 1450 c 128,-1,7
 337.451 1556 337.451 1556 501 1556 c 2,8,-1
 706 1556 l 1,9,-1
 706 1400 l 1,10,-1
 521 1400 l 2,11,12
 431.003 1400 431.003 1400 386 1338 c 128,-1,13
 342 1277.57 342 1277.57 342 1150 c 2,0,-1
 342 977.125 l 1,13,-1
EndSplineSet
EndChar
StartChar: uni0254
Encoding: 596 596 596
Width: 1233
Flags: W
Fore
183.5 1061 m 1,0,1
 257.5 1104 257.5 1104 336 1125.5 c 128,-1,2
 414.5 1147 414.5 1147 496.5 1147 c 0,3,4
 756.5 1147 756.5 1147 903 991 c 128,-1,5
 1049.5 835 1049.5 835 1049.5 559 c 0,6,7
 1049.5 283 1049.5 283 903 127 c 128,-1,8
 756.5 -29 756.5 -29 496.5 -29 c 0,9,10
 415.5 -29 415.5 -29 338.5 -8 c 128,-1,11
 261.5 13 261.5 13 183.5 57 c 1,12,-1
 183.5 250 l 1,13,14
 256.5 185 256.5 185 330 156 c 128,-1,15
 403.5 127 403.5 127 496.5 127 c 0,16,17
 669.5 127 669.5 127 762.5 239 c 128,-1,18
 855.5 351 855.5 351 855.5 559 c 0,19,20
 855.5 766 855.5 766 762 878.5 c 128,-1,21
 668.5 991 668.5 991 496.5 991 c 0,22,23
 400.5 991 400.5 991 324.5 961.5 c 128,-1,24
 248.5 932 248.5 932 183.5 870 c 1,25,-1
 183.5 1061 l 1,0,1
EndSplineSet
EndChar
StartChar: uni0255
Encoding: 597 597 597
Width: 1233
Flags: W
TeX: 0 0 0 0
Fore
609.625 142.487 m 1,0,1
 670.163 123 670.163 123 744.498 123 c 0,2,3
 890.498 123 890.498 123 890.498 180 c 0,4,5
 889.499 255 889.499 255 758.498 255 c 0,6,7
 657.199 255 657.199 255 609.625 142.487 c 1,0,1
573.088 -19.847 m 1,8,9
 567.498 -76.5702 567.498 -76.5702 567.498 -145 c 1,10,-1
 414.498 -148 l 1,11,12
 414.498 -44.1461 414.498 -44.1461 426.98 39.9538 c 1,13,14
 369.746 74.9977 369.746 74.9977 322.498 126 c 0,15,16
 173.498 287 173.498 287 173.498 555 c 0,17,18
 173.498 829 173.498 829 324.498 986 c 0,19,20
 474.499 1143 474.499 1143 736.498 1143 c 0,21,22
 821.503 1143 821.503 1143 902.498 1126 c 0,23,24
 983.502 1108 983.502 1108 1059.5 1073 c 1,25,-1
 1059.5 901 l 1,26,27
 981.49 944.003 981.49 944.003 902.498 966 c 0,28,29
 824.498 987 824.498 987 744.498 987 c 0,30,31
 565.497 987 565.497 987 466.498 874 c 0,32,33
 367.498 760 367.498 760 367.498 555 c 0,34,35
 367.498 350 367.498 350 466.498 236 c 0,36,37
 472.661 228.965 472.661 228.965 479.134 222.369 c 1,38,39
 563.828 398 563.828 398 759.498 398 c 0,40,41
 1058.5 398 1058.5 398 1059.5 152 c 0,42,43
 1060.5 -37 1060.5 -37 726.498 -37 c 0,44,45
 644.426 -37 644.426 -37 573.088 -19.847 c 1,8,9
EndSplineSet
EndChar
StartChar: uni0256
Encoding: 598 598 598
Width: 1233
Flags: W
TeX: 0 0 0 0
Fore
312.303 559 m 0,0,1
 312.303 344.999 312.303 344.999 366.736 236 c 0,2,3
 421.173 127 421.173 127 527.643 127 c 0,4,5
 634.111 127 634.111 127 689.748 237 c 0,6,7
 745.385 347.005 745.385 347.005 745.385 559 c 0,8,9
 745.385 771.996 745.385 771.996 689.748 881.5 c 0,10,11
 634.11 991 634.11 991 527.643 991 c 0,12,13
 421.173 991 421.173 991 366.736 882 c 0,14,15
 312.303 773.001 312.303 773.001 312.303 559 c 0,0,1
745.385 977 m 1,16,-1
 745.385 1556 l 1,17,-1
 892.682 1556 l 1,18,-1
 892.682 128 l 1,19,-1
 892.682 0 l 1,20,-1
 892.682 -20 l 2,21,22
 892.682 -145.999 892.682 -145.999 927.902 -208 c 0,23,24
 963.928 -270 963.928 -270 1035.97 -270 c 2,25,-1
 1076 -270 l 1,26,-1
 1076 -426 l 1,27,-1
 1019.96 -426 l 2,28,29
 887.878 -426 887.878 -426 815.83 -320 c 0,30,31
 744.584 -215.001 744.584 -215.001 744.584 -20 c 2,32,-1
 744.584 128 l 1,33,-1
 744.584 141 l 1,34,35
 707.391 57.9984 707.391 57.9984 647.32 14.5 c 0,36,37
 586.081 -29 586.081 -29 506.027 -29 c 0,38,39
 343.52 -29 343.52 -29 250.262 128.5 c 0,40,41
 157 286.002 157 286.002 157 563 c 0,42,43
 157 835.999 157 835.999 250.66 991.5 c 0,44,45
 344.323 1147 344.323 1147 506.027 1147 c 0,46,47
 586.881 1147 586.881 1147 648.521 1103.5 c 0,48,49
 710.161 1060 710.161 1060 745.385 977 c 1,16,-1
EndSplineSet
EndChar
StartChar: uni0257
Encoding: 599 599 599
Width: 1233
Flags: W
TeX: 0 0 0 0
Fore
312.303 559 m 0,0,1
 312.303 344.999 312.303 344.999 366.736 236 c 0,2,3
 421.173 127 421.173 127 527.643 127 c 0,4,5
 634.111 127 634.111 127 689.748 237 c 0,6,7
 745.385 347.005 745.385 347.005 745.385 559 c 0,8,9
 745.385 771.996 745.385 771.996 689.748 881.5 c 0,10,11
 634.11 991 634.11 991 527.643 991 c 0,12,13
 421.173 991 421.173 991 366.736 882 c 0,14,15
 312.303 773.001 312.303 773.001 312.303 559 c 0,0,1
744.584 1002 m 1,16,-1
 744.584 1150 l 2,17,18
 744.584 1345 744.584 1345 815.83 1450 c 0,19,20
 887.878 1556 887.878 1556 1019.96 1556 c 2,21,-1
 1076 1556 l 1,22,-1
 1076 1400 l 1,23,-1
 1035.97 1400 l 2,24,25
 963.928 1400 963.928 1400 927.902 1338 c 0,26,27
 892.682 1276 892.682 1276 892.682 1150 c 2,28,-1
 892.682 1089 l 1,29,-1
 892.682 1002 l 1,30,-1
 892.682 0 l 1,31,-1
 745.385 0 l 1,32,-1
 745.385 141 l 1,33,34
 708.563 58.0025 708.563 58.0025 647.32 14.5 c 0,35,36
 586.081 -29 586.081 -29 506.027 -29 c 0,37,38
 343.52 -29 343.52 -29 250.262 128.5 c 0,39,40
 157 286.002 157 286.002 157 563 c 0,41,42
 157 835.999 157 835.999 250.66 991.5 c 0,43,44
 344.323 1147 344.323 1147 506.027 1147 c 0,45,46
 586.881 1147 586.881 1147 648.521 1103.5 c 0,47,48
 710.161 1060 710.161 1060 745.385 977 c 1,49,-1
 744.584 1002 l 1,16,-1
EndSplineSet
EndChar
StartChar: uni0258
Encoding: 600 600 600
Width: 1233
Flags: W
Fore
122 606 m 2,0,-1
 122 857 122 857 245.5 1002 c 128,-1,21
 369 1147 369 1147 583 1147 c 0,19,20
 823 1147 823 1147 967 987 c 128,-1,18
 1111 827 1111 827 1111 559 c 0,16,17
 1111 284 1111 284 964 127.5 c 128,-1,15
 817 -29 817 -29 556 -29 c 0,13,14
 465 -29 465 -29 367.5 -7.5 c 128,-1,12
 270 14 270 14 165 57 c 1,10,11
 165 240 l 1,9,-1
 274 183 274 183 370 155 c 128,-1,8
 466 127 466 127 554 127 c 0,6,7
 728 127 728 127 823.5 227 c 128,-1,5
 919 327 919 327 919 510 c 2,3,4
 919 516 l 1,2,-1
 122 516 l 1,1,-1
 122 606 l 2,0,-1
306 660 m 1,22,23
 912 659 l 1,28,-1
 896 815 896 815 810 903 c 128,-1,27
 724 991 724 991 591 991 c 0,25,26
 455 991 455 991 382.5 906.5 c 128,-1,24
 310 822 310 822 306 660 c 1,22,23
EndSplineSet
EndChar
StartChar: uni0259
Encoding: 601 601 601
Width: 1233
Flags: W
Fore
122 512 m 2,0,-1
 122 602 l 1,1,-1
 919 602 l 1,2,-1
 919 608 l 2,3,4
 919 791 919 791 823.5 891 c 128,-1,5
 728 991 728 991 554 991 c 0,6,7
 466 991 466 991 370 963 c 128,-1,8
 274 935 274 935 165 878 c 1,9,-1
 165 1061 l 1,10,11
 270 1104 270 1104 367.5 1125.5 c 128,-1,12
 465 1147 465 1147 556 1147 c 0,13,14
 817 1147 817 1147 964 990.5 c 128,-1,15
 1111 834 1111 834 1111 559 c 0,16,17
 1111 291 1111 291 967 131 c 128,-1,18
 823 -29 823 -29 583 -29 c 0,19,20
 369 -29 369 -29 245.5 116 c 128,-1,21
 122 261 122 261 122 512 c 2,0,-1
306 458 m 1,22,23
 310 296 310 296 382.5 211.5 c 128,-1,24
 455 127 455 127 591 127 c 0,25,26
 724 127 724 127 810 215 c 128,-1,27
 896 303 896 303 912 459 c 1,28,-1
 306 458 l 1,22,23
EndSplineSet
EndChar
StartChar: uni025A
Encoding: 602 602 602
Width: 1233
Flags: W
TeX: 0 0 0 0
Fore
578 214 m 1,0,1
 656.001 352.002 656.001 352.002 654 559 c 0,2,3
 654.631 621.088 654.631 621.088 647.215 677.117 c 1,4,-1
 178 321 l 1,5,6
 201 252.002 201 252.002 226 217 c 0,7,8
 288.001 127 288.001 127 391 127 c 0,9,10
 518.999 127 518.999 127 578 214 c 1,0,1
786.642 783.108 m 1,11,12
 810 686.85 810 686.85 810 569 c 0,13,14
 810 293.999 810 293.999 697 132 c 0,15,16
 584 -29 584 -29 393 -29 c 0,17,18
 220.001 -29 220.001 -29 121 116 c 0,19,20
 50.0016 218.995 50.0016 218.995 30 375 c 1,21,-1
 612.188 818.245 l 1,22,23
 597.256 857.128 597.256 857.128 577 892 c 0,24,25
 519.001 991.999 519.001 991.999 360 991 c 0,26,27
 278.007 990.001 278.007 990.001 204 965 c 0,28,29
 128.001 938.999 128.001 938.999 54 887 c 1,30,-1
 54 1061 l 1,31,32
 129.003 1103 129.003 1103 208 1125 c 0,33,34
 287.003 1147 287.003 1147 368 1147 c 0,35,36
 571.999 1147 571.999 1147 691 991 c 0,37,38
 717.969 955.646 717.969 955.646 738.826 914.643 c 1,39,-1
 893 1032 l 1,40,-1
 1033 1032 l 1,41,-1
 1033 884 l 2,42,43
 1033 730.997 1033 730.997 1062 682 c 0,44,45
 1090 634 1090 634 1170 634 c 2,46,-1
 1203 634 l 1,47,-1
 1203 478 l 1,48,-1
 1154 478 l 2,49,50
 1022 478 1022 478 955 574 c 0,51,52
 893 663.999 893 663.999 893 864 c 1,53,-1
 786.642 783.108 l 1,11,12
EndSplineSet
EndChar
StartChar: uni025B
Encoding: 603 603 603
Width: 1233
Flags: W
TeX: 0 0 0 0
Fore
449 607 m 1,0,1
 330 632 330 632 265 697 c 128,-1,40
 201 761 201 761 201 855 c 0,38,39
 201 989 201 989 323 1068 c 128,-1,37
 445 1147 445 1147 654 1147 c 0,35,36
 735 1147 735 1147 826 1135 c 128,-1,34
 918 1123 918 1123 1023 1099 c 1,32,33
 1023 932 l 1,31,-1
 919 959 919 959 832 972 c 128,-1,30
 746 984 746 984 670 984 c 0,28,29
 532 984 532 984 458 941 c 128,-1,27
 384 898 384 898 384 824 c 0,25,26
 384 763 384 763 456 720 c 128,-1,24
 528 676 528 676 663 676 c 2,22,23
 829 676 l 1,21,-1
 829 532 l 1,20,-1
 670 532 l 2,19,-1
 520 532 520 532 436 477 c 128,-1,18
 352 422 352 422 352 341 c 0,16,17
 352 243 352 243 442 190 c 128,-1,15
 533 138 533 138 706 138 c 0,13,14
 805 138 805 138 896 156 c 128,-1,12
 987 173 987 173 1064 207 c 1,10,11
 1064 34 l 1,9,-1
 967 6 967 6 877 -8 c 128,-1,8
 786 -22 786 -22 700 -22 c 0,6,7
 446 -22 446 -22 307 69 c 128,-1,5
 169 161 169 161 169 327 c 0,3,4
 169 436 169 436 243 510 c 128,-1,2
 317 584 317 584 449 607 c 1,0,1
EndSplineSet
EndChar
StartChar: uni025C
Encoding: 604 604 604
Width: 1233
Flags: W
TeX: 0 0 0 0
Fore
783 607 m 1,0,1
 915 584 915 584 989 510 c 128,-1,2
 1064 436 1064 436 1064 327 c 0,3,4
 1064 161 1064 161 925 69 c 128,-1,5
 787 -22 787 -22 532 -22 c 0,6,7
 447 -22 447 -22 356 -8 c 128,-1,8
 265 6 265 6 169 34 c 1,9,-1
 169 207 l 1,10,11
 245 173 245 173 336 156 c 128,-1,12
 427 138 427 138 527 138 c 0,13,14
 700 138 700 138 790 190 c 128,-1,15
 881 243 881 243 881 341 c 0,16,17
 881 422 881 422 796 477 c 128,-1,18
 712 532 712 532 562 532 c 2,19,-1
 404 532 l 1,20,-1
 404 676 l 1,21,-1
 569 676 l 2,22,23
 705 676 705 676 777 720 c 128,-1,24
 849 763 849 763 849 824 c 0,25,26
 849 898 849 898 775 941 c 128,-1,27
 700 984 700 984 562 984 c 0,28,29
 487 984 487 984 400 972 c 128,-1,30
 314 959 314 959 210 932 c 1,31,-1
 210 1099 l 1,32,33
 315 1123 315 1123 406 1135 c 128,-1,34
 498 1147 498 1147 578 1147 c 0,35,36
 788 1147 788 1147 910 1068 c 128,-1,37
 1032 989 1032 989 1032 855 c 0,38,39
 1032 761 1032 761 967 697 c 128,-1,40
 902 632 902 632 783 607 c 1,0,1
EndSplineSet
EndChar
StartChar: uni025D
Encoding: 605 605 605
Width: 1233
Flags: W
TeX: 0 0 0 0
Fore
517.125 607 m 1,0,1
 616.127 583.999 616.127 583.999 671.625 510 c 0,2,3
 727.875 435.999 727.875 435.999 727.875 327 c 0,4,5
 727.875 161.001 727.875 161.001 623.625 69 c 0,6,7
 520.124 -22 520.124 -22 328.875 -22 c 0,8,9
 265.12 -22 265.12 -22 196.875 -8 c 0,10,11
 128.625 6.00098 128.625 6.00098 56.625 34 c 1,12,-1
 56.625 207 l 1,13,14
 113.625 173.001 113.625 173.001 181.875 156 c 0,15,16
 250.125 138 250.125 138 325.125 138 c 0,17,18
 454.874 138 454.874 138 522.375 190 c 0,19,20
 590.625 243.001 590.625 243.001 590.625 341 c 0,21,22
 590.625 422.001 590.625 422.001 526.875 477 c 0,23,24
 463.874 532 463.874 532 351.375 532 c 2,25,-1
 232.875 532 l 1,26,-1
 232.875 676 l 1,27,-1
 356.625 676 l 2,28,29
 458.626 676 458.626 676 512.625 720 c 0,30,31
 566.625 762.999 566.625 762.999 566.625 824 c 0,32,33
 566.625 898.001 566.625 898.001 511.125 941 c 0,34,35
 454.874 984 454.874 984 351.375 984 c 0,36,37
 295.125 984 295.125 984 229.875 972 c 0,38,39
 165.382 959.002 165.382 959.002 87.375 932 c 1,40,-1
 87.375 1099 l 1,41,42
 166.125 1123 166.125 1123 234.375 1135 c 0,43,44
 303.375 1147 303.375 1147 363.375 1147 c 0,45,46
 520.874 1147 520.874 1147 612.375 1068 c 0,47,48
 687.444 1003.19 687.444 1003.19 700.924 901.352 c 1,49,-1
 870.375 1032 l 1,50,-1
 1008.38 1032 l 1,51,-1
 1008.38 884 l 2,52,53
 1008.38 730.999 1008.38 730.999 1036.88 682 c 0,54,55
 1065.38 634 1065.38 634 1144.12 634 c 2,56,-1
 1176.38 634 l 1,57,-1
 1176.38 478 l 1,58,-1
 1128.38 478 l 2,59,60
 997.477 478 997.477 478 931.875 574 c 0,61,62
 870.375 664 870.375 664 870.51 864 c 1,63,-1
 660.375 702.115 l 1,64,-1
 659.826 703.401 l 1,65,-1
 655.125 697 l 2,66,67
 606.375 631.999 606.375 631.999 517.125 607 c 1,0,1
EndSplineSet
EndChar
StartChar: uni025E
Encoding: 606 606 606
Width: 1233
Flags: W
TeX: 0 0 0 0
Fore
670.5 984 m 0,28,29
 331.5 984 331.5 984 330.75 566 c 1,0,0
 330.75 120 330.75 120 670.5 119 c 0,28,29
 788.25 119 788.25 119 843 173 c 128,-1,27
 906.75 237 906.75 237 906.75 311 c 0,25,26
 906.75 389 906.75 389 847.5 443 c 128,-1,24
 815.25 473 815.25 473 676.5 473 c 2,22,23
 540 473 l 9,0,0
 540 630 l 1,21,-1
 676.5 630 l 2,22,23
 815.25 630 815.25 630 847.5 660 c 128,-1,24
 906.75 715 906.75 715 906.75 792 c 0,25,26
 906.75 869 906.75 869 843 930 c 128,-1,27
 786 984 786 984 670.5 984 c 0,28,29
450.75 1099 m 0,32,33
 534.75 1144 534.75 1144 684 1145 c 0,35,36
 856.5 1145 856.5 1145 957 1059 c 128,-1,37
 1057.5 972 1057.5 972 1057.5 824 c 0,38,39
 1057.5 721 1057.5 721 1004.25 650 c 128,-1,40
 951 579 951 579 852.75 552 c 1,0,1
 951 524 951 524 1004.25 453 c 128,-1,40
 1057.5 382 1057.5 382 1057.5 279 c 0,38,39
 1057.5 131 1057.5 131 957 45 c 128,-1,37
 856.5 -42 856.5 -42 684 -42 c 0,35,36
 537 -44 537 -44 450.75 18 c 0,0,0
 175.5 212 175.5 212 175.5 556 c 0,0,0
 175.5 953 175.5 953 450.75 1099 c 0,32,33
EndSplineSet
EndChar
StartChar: uni025F
Encoding: 607 607 607
Width: 1233
Flags: W
Fore
371.5 0 m 1,0,-1
 371.5 164 l 1,1,-1
 613.5 164 l 1,2,-1
 613.5 977 l 1,3,-1
 296.5 977 l 1,4,-1
 296.5 1120 l 1,5,-1
 797.5 1120 l 1,6,-1
 797.5 164 l 1,7,-1
 1033.5 164 l 1,8,-1
 1033.5 0 l 1,9,-1
 797.5 3.10862e-14 l 1,10,-1
 797.5 -20 l 2,11,12
 797.5 -214.998 797.5 -214.998 708 -320.5 c 0,13,14
 618.502 -426 618.502 -426 453.5 -426 c 2,15,-1
 199.5 -426 l 1,16,-1
 199.5 -270 l 1,17,-1
 433.5 -270 l 2,18,19
 523.499 -270 523.499 -270 568.5 -207.5 c 0,20,21
 613.5 -145.001 613.5 -145.001 613.5 -20 c 2,22,-1
 613.5 -4.12864e-16 l 1,23,-1
 371.5 0 l 1,0,-1
EndSplineSet
EndChar
StartChar: uni0260
Encoding: 608 608 608
Width: 1233
Flags: W
TeX: 0 0 0 0
Fore
748.65 1116 m 1,0,-1
 748.65 1150 l 2,1,2
 748.65 1345 748.65 1345 820.588 1450 c 0,3,4
 893.333 1556 893.333 1556 1026.7 1556 c 2,5,-1
 1076 1556 l 1,6,-1
 1076 1400 l 1,7,-1
 1042.86 1400 l 2,8,9
 970.116 1400 970.116 1400 933.744 1338 c 0,10,11
 898.182 1276 898.182 1276 898.182 1150 c 2,12,-1
 898.182 1116 l 17,13,-1
 899.799 72 l 2,15,16
 900.189 -179.493 900.189 -179.493 803.613 -310 c 0,17,18
 707.431 -440 707.431 -440 520.721 -440 c 0,19,20
 459.287 -440 459.287 -440 392.205 -426 c 0,21,22
 325.117 -411.999 325.117 -411.999 258.033 -385 c 1,23,-1
 258.033 -203 l 1,24,25
 337.251 -249.004 337.251 -249.004 401.904 -271 c 0,26,27
 466.568 -293 466.568 -293 520.721 -293 c 0,28,29
 641.152 -293 641.152 -293 696.113 -212 c 0,30,31
 751.076 -131.001 751.076 -131.001 751.076 45 c 2,32,-1
 751.076 53 l 1,33,-1
 751.076 178 l 1,34,35
 715.511 83.9972 715.511 83.9972 654.084 38 c 0,36,37
 592.656 -8 592.656 -8 504.555 -8 c 0,38,39
 346.137 -8 346.137 -8 251.566 149 c 0,40,41
 157 305.997 157 305.997 157 569 c 0,42,43
 157 802.003 157 802.003 251.565 959 c 0,44,45
 346.137 1116 346.137 1116 504.555 1116 c 1,46,47
 748.65 1116 l 1,0,-1
751.076 569 m 1,52,53
 752 992 l 1,54,55
 537.693 991 l 1,56,57
 428.58 991 428.58 991 371.189 883.5 c 0,58,59
 313.805 775.999 313.805 775.999 313.805 569 c 0,60,61
 313.805 362.001 313.805 362.001 371.596 253.5 c 0,62,63
 429.386 145 429.386 145 539.311 145 c 0,64,65
 641.959 145 641.959 145 696.52 254 c 0,66,67
 751.076 362.999 751.076 362.999 751.076 569 c 1,52,53
EndSplineSet
EndChar
StartChar: uni0261
Encoding: 609 609 609
Width: 1233
Flags: W
TeX: 0 0 0 0
Fore
892 569 m 1,0,1
 892 992 l 129,-1,2
 628 991 l 1,3,4
 493 991 493 991 422 883.5 c 128,-1,5
 351 776 351 776 351 569 c 0,6,7
 351 362 351 362 422.5 253.5 c 128,-1,8
 494 145 494 145 630 145 c 0,9,10
 757 145 757 145 824.5 254 c 128,-1,11
 892 363 892 363 892 569 c 1,0,1
1076 72 m 2,12,13
 1076 -180 1076 -180 957 -310 c 128,-1,14
 838 -440 838 -440 607 -440 c 0,15,16
 531 -440 531 -440 448 -426 c 128,-1,17
 365 -412 365 -412 282 -385 c 1,18,-1
 282 -203 l 1,19,20
 380 -249 380 -249 460 -271 c 128,-1,21
 540 -293 540 -293 607 -293 c 0,22,23
 756 -293 756 -293 824 -212 c 128,-1,24
 892 -131 892 -131 892 45 c 2,25,-1
 892 53 l 1,26,-1
 892 178 l 1,27,28
 848 84 848 84 772 38 c 128,-1,29
 696 -8 696 -8 587 -8 c 0,30,31
 391 -8 391 -8 274 149 c 128,-1,32
 157 306 157 306 157 569 c 0,33,34
 157 796.072 157 796.072 274 959 c 128,-1,35
 386.743 1116 386.743 1116 587 1116 c 2,36,37
 1076 1116 l 1,41,-1
 1076 72 l 2,12,13
EndSplineSet
EndChar
StartChar: uni0262
Encoding: 610 610 610
Width: 1233
Flags: W
TeX: 0 0 0 0
Fore
945.5 178 m 128,-1,12
 945.5 460 l 1,4,-1
 790.5 460 l 1,2,-1
 790.5 600 l 1,3,-1
 1111.5 600 l 1,4,-1
 1111.5 72 l 1,2,-1
 1039.5 38 1039.5 38 952.5 18 c 128,-1,16
 874.5 0 874.5 0 672.5 0 c 0,17,18
 419.5 0 419.5 0 270.5 159 c 128,-1,19
 121.5 318 121.5 318 121.5 588 c 0,20,21
 121.5 862 121.5 862 272.5 1019 c 128,-1,22
 422.5 1176 422.5 1176 684.5 1176 c 0,23,24
 746.5 1176 746.5 1176 850.5 1158 c 128,-1,25
 954.5 1141 954.5 1141 1081.5 1066 c 1,0,-1
 1081.5 894 l 1,1,2
 961.5 971 961.5 971 850.5 998 c 128,-1,3
 763.5 1020 763.5 1020 692.5 1020 c 0,4,5
 513.5 1020 513.5 1020 414.5 906 c 128,-1,6
 315.5 793 315.5 793 315.5 588 c 0,7,8
 315.5 383 315.5 383 414.5 270 c 128,-1,9
 513.5 156 513.5 156 692.5 156 c 0,10,11
 865.5 156 865.5 156 945.5 178 c 128,-1,12
EndSplineSet
EndChar
StartChar: uni0263
Encoding: 611 611 611
Width: 1233
Flags: W
TeX: 0 0 0 0
Fore
737.5 572 m 1,5,-1
 1020.5 126.136 1020.5 126.136 1020.5 -194 c 0,0,0
 1020.5 -425.749 1020.5 -425.749 636.5 -430 c 0,0,0
 213.921 -434.857 213.921 -434.857 212.5 -194 c 0,0,0
 210.352 147.713 210.352 147.713 499.5 579 c 1,0,0
 102.5 1120 l 1,0,-1
 319.5 1120 l 1,1,-1
 622.5 720 l 1,2,-1
 913.5 1120 l 1,3,-1
 1130.5 1120 l 1,4,-1
 737.5 572 l 1,5,-1
616.5 452 m 1,0,0
 396.5 144 396.5 144 399.5 -130 c 0,0,0
 401.99 -268.01 401.99 -268.01 615.5 -268 c 16,0,0
 818.948 -267.986 818.948 -267.986 819.5 -130 c 0,0,0
 820.5 120 820.5 120 616.5 452 c 1,0,0
EndSplineSet
EndChar
StartChar: uni0264
Encoding: 612 612 612
Width: 1233
Flags: W
TeX: 0 0 0 0
Fore
500.5 586 m 1,0,0
 102.5 1120 l 1,8,-1
 319.5 1120 l 1,9,-1
 616.5 721 l 1,10,-1
 913.5 1120 l 1,11,-1
 1130.5 1120 l 1,0,-1
 725.5 575 l 1,0,0
 904.5 334 904.5 334 904.5 167.25 c 0,0,0
 905.899 0.000976562 905.899 0.000976562 618.75 0 c 0,0,0
 316.5 0 316.5 0 316.5 167.25 c 0,0,0
 316.5 344 316.5 344 500.5 586 c 1,0,0
608.5 440 m 1,0,0
 490.875 282 490.875 282 490.875 222.75 c 0,0,0
 490.403 119.241 490.403 119.241 613.5 119.25 c 16,0,0
 727.125 119.25 727.125 119.25 727.125 222.75 c 0,0,0
 727.125 286 727.125 286 608.5 440 c 1,0,0
EndSplineSet
EndChar
StartChar: uni0265
Encoding: 613 613 613
Width: 1233
Flags: W
Fore
188.5 424 m 2,0,-1
 188.5 1118 l 1,1,-1
 372.5 1118 l 1,2,-1
 372.5 424 l 2,3,4
 372.5 273 372.5 273 426 202 c 128,-1,5
 479.5 131 479.5 131 591.5 131 c 0,6,7
 721.5 131 721.5 131 790.5 222.5 c 128,-1,8
 859.5 314 859.5 314 859.5 485 c 2,9,-1
 859.5 1118 l 1,10,-1
 1044.5 1118 l 1,11,-1
 1044.5 -430 l 1,12,-1
 859.5 -430 l 1,13,-1
 859.5 168 l 1,14,15
 810.5 71 810.5 71 726 21 c 128,-1,16
 641.5 -29 641.5 -29 528.5 -29 c 0,17,18
 356.5 -29 356.5 -29 272.5 83.5 c 128,-1,19
 188.5 196 188.5 196 188.5 424 c 2,0,-1
EndSplineSet
EndChar
StartChar: uni0266
Encoding: 614 614 614
Width: 1233
Flags: W
Fore
373.5 961.5 m 1,13,-1
 372.5 952 l 1,14,15
 421.5 1048 421.5 1048 505.5 1097.5 c 128,-1,16
 589.5 1147 589.5 1147 704.5 1147 c 0,17,18
 875.5 1147 875.5 1147 960 1034.5 c 128,-1,19
 1044.5 922 1044.5 922 1044.5 694 c 2,0,-1
 1044.5 0 l 1,1,-1
 859.5 0 l 1,2,-1
 859.5 694 l 2,3,4
 859.5 845 859.5 845 806.5 916 c 128,-1,5
 753.5 987 753.5 987 640.5 987 c 0,6,7
 511.5 987 511.5 987 442 895.5 c 128,-1,8
 372.5 804 372.5 804 372.5 633 c 2,9,-1
 372.5 0 l 1,10,-1
 188.5 0 l 1,11,-1
 188.5 1002 l 1,12,-1
 188.5 1150 l 2,5,6
 188.5 1345 188.5 1345 277.5 1450 c 128,-1,7
 367.5 1556 367.5 1556 532.5 1556 c 2,8,-1
 737.5 1556 l 1,9,-1
 737.5 1400 l 1,10,-1
 552.5 1400 l 2,11,12
 462.5 1400 462.5 1400 417.5 1338 c 128,-1,13
 373.5 1276 373.5 1276 373.5 1150 c 2,0,-1
 373.5 961.5 l 1,13,-1
EndSplineSet
EndChar
StartChar: uni0267
Encoding: 615 615 615
Width: 1233
Flags: W
Fore
373.5 961.5 m 1,0,-1
 372.5 952 l 1,1,2
 421.499 1048 421.499 1048 505.5 1097.5 c 0,3,4
 589.5 1147 589.5 1147 704.5 1147 c 0,5,6
 875.499 1147 875.499 1147 960 1034.5 c 0,7,8
 1044.5 922.001 1044.5 922.001 1044.5 694 c 2,9,-1
 1044.5 128 l 1,10,-1
 1044.5 0 l 1,11,-1
 1044.5 -20 l 2,12,13
 1044.5 -215.001 1044.5 -215.001 955.5 -320 c 0,14,15
 865.499 -426 865.499 -426 700.5 -426 c 2,16,-1
 495.5 -426 l 1,17,-1
 495.5 -270 l 1,18,-1
 680.5 -270 l 2,19,20
 770.501 -270 770.501 -270 815.5 -208 c 0,21,22
 859.5 -146 859.5 -146 859.5 -20 c 2,23,-1
 859.5 0 l 1,24,-1
 859.5 128 l 1,25,-1
 859.5 694 l 2,26,27
 859.5 845 859.5 845 806.5 916 c 0,28,29
 753.5 987 753.5 987 640.5 987 c 0,30,31
 511.501 987 511.501 987 442 895.5 c 0,32,33
 372.5 804.001 372.5 804.001 372.5 633 c 2,34,-1
 372.5 0 l 1,35,-1
 188.5 0 l 1,36,-1
 188.5 1002 l 1,37,-1
 188.5 1150 l 2,38,39
 188.5 1345 188.5 1345 277.5 1450 c 0,40,41
 367.501 1556 367.501 1556 532.5 1556 c 2,42,-1
 737.5 1556 l 1,43,-1
 737.5 1400 l 1,44,-1
 552.5 1400 l 2,45,46
 462.499 1400 462.499 1400 417.5 1338 c 0,47,48
 373.5 1276 373.5 1276 373.5 1150 c 2,49,-1
 373.5 961.5 l 1,0,-1
EndSplineSet
EndChar
StartChar: uni0268
Encoding: 616 616 616
Width: 1233
Flags: W
Fore
524.5 1556 m 1,0,-1
 708.5 1556 l 1,1,-1
 708.5 1323 l 1,2,-1
 524.5 1323 l 1,3,-1
 524.5 1556 l 1,0,-1
237.5 1120 m 1,4,-1
 708.5 1120 l 1,5,-1
 708.5 616 l 1,6,-1
 1062 616 l 1,7,-1
 1062 452 l 1,8,-1
 708.5 452 l 1,9,-1
 708.5 143 l 1,10,-1
 1073.5 143 l 1,11,-1
 1073.5 0 l 1,12,-1
 159.5 0 l 1,13,-1
 159.5 143 l 1,14,-1
 524.5 143 l 1,15,-1
 524.5 452 l 1,16,-1
 141.5 452 l 1,17,-1
 141.5 616 l 1,18,-1
 524.5 616 l 1,19,-1
 524.5 977 l 1,20,-1
 237.5 977 l 1,21,-1
 237.5 1120 l 1,4,-1
EndSplineSet
EndChar
StartChar: uni0269
Encoding: 617 617 617
Width: 1233
Flags: W
TeX: 0 0 0 0
Fore
1034.5 0 m 17,0,0
 829.5 0 l 17,0,0
 664.5 0 664.5 0 574.5 106 c 128,-1,7
 485.5 208.043 485.5 208.043 485.5 406 c 2,5,6
 485.5 977 l 1,0,0
 198.5 977 l 1,9,-1
 198.5 1120 l 1,0,-1
 669.5 1120 l 1,1,-1
 669.5 406 l 1,2,-1
 668.511 280 668.511 280 713.5 218 c 128,-1,13
 758.5 156 758.5 156 848.5 156 c 2,11,12
 1033.5 156 l 1,10,-1
 1034.5 0 l 17,0,0
EndSplineSet
EndChar
StartChar: uni026A
Encoding: 618 618 618
Width: 1233
Flags: W
TeX: 0 0 0 0
Fore
159.5 1120 m 1,0,-1
 1073.5 1120 l 1,1,-1
 1073.5 977 l 1,0,0
 708.5 977 l 1,0,0
 708.5 143 l 1,2,-1
 1073.5 143 l 1,3,-1
 1073.5 0 l 1,4,-1
 159.5 0 l 1,5,-1
 159.5 143 l 1,6,-1
 524.5 143 l 1,7,-1
 524.5 977 l 1,8,-1
 159.5 977 l 1,9,-1
 159.5 1120 l 1,0,-1
EndSplineSet
EndChar
StartChar: uni026B
Encoding: 619 619 619
Width: 1233
Flags: W
Fore
658.5 406 m 2,0,1
 658.5 258.812 658.5 258.812 704 219 c 0,2,3
 776 156 776 156 838.5 156 c 2,4,-1
 1053.5 156 l 1,5,-1
 1053.5 0 l 1,6,-1
 820.5 0 l 2,7,8
 655.5 0 655.5 0 565 106 c 0,9,10
 474.5 212 474.5 212 474.5 406 c 2,11,-1
 474.5 604.006 l 1,12,13
 427.542 614 427.542 614 381 614 c 0,14,15
 302 614 302 614 231.5 584.5 c 0,16,17
 161 555 161 555 88 492 c 1,18,-1
 88 666 l 1,19,20
 166 726 166 726 239 753 c 0,21,22
 312 780 312 780 395 780 c 0,23,24
 435.632 780 435.632 780 474.5 773.535 c 1,25,-1
 474.5 1423 l 1,26,-1
 179.5 1423 l 1,27,-1
 179.5 1567 l 1,28,-1
 658.5 1567 l 1,29,-1
 658.5 710.351 l 1,30,31
 772.405 657 772.405 657 864 657 c 0,32,33
 934 657 934 657 1002.5 687.5 c 0,34,35
 1071 718 1071 718 1145 780 c 1,36,-1
 1145 606 l 1,37,38
 1070 547 1070 547 998.5 519.5 c 0,39,40
 927 492 927 492 848 492 c 0,41,42
 763.409 492 763.409 492 658.5 537.054 c 1,43,-1
 658.5 406 l 2,0,1
EndSplineSet
EndChar
StartChar: uni026C
Encoding: 620 620 620
Width: 1233
Flags: W
TeX: 0 0 0 0
Fore
681.502 406 m 2,0,1
 681.502 281.999 681.502 281.999 727.002 219 c 0,2,3
 772.503 156 772.503 156 861.502 156 c 2,4,-1
 1076.5 156 l 1,5,-1
 1076.5 0 l 1,6,-1
 843.502 0 l 2,7,8
 678.504 0 678.504 0 588.002 106 c 0,9,10
 497.502 211.998 497.502 211.998 497.502 406 c 2,11,-1
 497.502 595.868 l 1,12,13
 497.083 611.304 497.083 611.304 496.488 626 c 1,14,-1
 435.502 626 l 2,15,16
 155.503 626 155.503 626 156.502 815 c 0,17,18
 157.501 1061 157.501 1061 402.502 1061 c 0,19,20
 455.681 1061 455.681 1061 497.502 1036.1 c 1,21,-1
 497.502 1423 l 1,22,-1
 202.502 1423 l 1,23,-1
 202.502 1567 l 1,24,-1
 681.502 1567 l 1,25,-1
 681.502 786 l 1,26,-1
 931.502 786 l 1,27,-1
 931.502 626 l 1,28,-1
 681.502 626 l 1,29,-1
 681.502 406 l 2,0,1
481.299 786 m 1,30,31
 458.076 918 458.076 918 403.502 918 c 0,32,33
 326.501 918 326.501 918 325.502 843 c 0,34,35
 325.502 786 325.502 786 417.502 786 c 2,36,-1
 481.299 786 l 1,30,31
EndSplineSet
EndChar
StartChar: uni026D
Encoding: 621 621 621
Width: 1233
Flags: W
Fore
658.5 -20 m 2,0,1
 658.5 -143.987 658.5 -143.987 704 -207 c 128,-1,2
 749.5 -270 749.5 -270 838.5 -270 c 2,3,-1
 1053.5 -270 l 1,4,-1
 1053.5 -426 l 1,5,-1
 820.5 -426 l 2,6,7
 661.389 -426 661.389 -426 565 -320 c 128,-1,8
 474.5 -220.476 474.5 -220.476 474.5 -20 c 2,9,-1
 474.5 1423 l 1,10,-1
 179.5 1423 l 1,11,-1
 179.5 1567 l 1,12,-1
 658.5 1567 l 1,13,-1
 658.5 -20 l 2,0,1
EndSplineSet
EndChar
StartChar: uni026E
Encoding: 622 622 622
Width: 1233
Flags: W
TeX: 0 0 0 0
Fore
423.7 406 m 2,0,1
 423.7 282 423.7 282 460.1 219 c 0,2,3
 496.5 156 496.5 156 567.7 156 c 2,4,-1
 739.7 156 l 1,5,-1
 739.7 0 l 1,6,-1
 553.3 0 l 2,7,8
 421.3 0 421.3 0 348.9 106 c 0,9,10
 276.5 212 276.5 212 276.5 406 c 2,11,-1
 276.5 1423 l 1,12,-1
 40.5 1423 l 1,13,-1
 40.5 1567 l 1,14,-1
 423.7 1567 l 1,15,-1
 423.7 1120 l 1,16,-1
 1122.1 1120 l 1,17,-1
 1122.1 952 l 1,18,-1
 793.3 476 l 1,19,20
 877.043 476 877.043 476 980.5 420 c 0,21,22
 1059.32 377.336 1059.32 377.336 1127.7 269 c 0,23,24
 1192.5 165 1192.5 165 1192.5 27 c 0,25,26
 1192.5 -194 1192.5 -194 1070.9 -315 c 0,27,28
 949.301 -436 949.301 -436 725.3 -436 c 0,29,30
 650.1 -436 650.1 -436 570.9 -418 c 0,31,32
 490.896 -398.999 490.896 -398.999 406.1 -362 c 1,33,-1
 406.1 -167 l 1,34,35
 473.298 -215.999 473.298 -215.999 553.3 -241 c 0,36,37
 633.299 -266 633.299 -266 720.5 -266 c 0,38,39
 872.102 -266 872.102 -266 951.7 -191 c 0,40,41
 1031.7 -115.622 1031.7 -115.622 1031.7 27 c 0,42,43
 1031.7 159 1031.7 159 958.1 234 c 0,44,45
 883.7 308 883.7 308 751.7 308 c 2,46,-1
 612.5 308 l 1,47,-1
 612.5 474 l 1,48,-1
 956.5 973 l 1,49,-1
 423.7 973 l 1,50,-1
 423.7 406 l 2,0,1
EndSplineSet
EndChar
StartChar: uni026F
Encoding: 623 623 623
Width: 1233
Flags: W
Fore
562.5 141 m 1,0,1
 528.5 69 528.5 69 476 34.5 c 128,-1,2
 423.5 0 423.5 0 349.5 0 c 0,3,4
 214.5 0 214.5 0 159 104.5 c 128,-1,5
 103.5 209 103.5 209 103.5 498 c 2,6,-1
 103.5 1147 l 1,7,-1
 271.5 1147 l 1,8,-1
 271.5 506 l 2,9,10
 271.5 269 271.5 269 298 211.5 c 128,-1,11
 324.5 154 324.5 154 394.5 154 c 0,12,13
 474.5 154 474.5 154 504 215.5 c 128,-1,14
 533.5 277 533.5 277 533.5 506 c 2,15,-1
 533.5 1147 l 1,16,-1
 701.5 1147 l 1,17,-1
 701.5 506 l 2,18,19
 701.5 266 701.5 266 730 210 c 128,-1,20
 758.5 154 758.5 154 832.5 154 c 0,21,22
 905.5 154 905.5 154 934 215.5 c 128,-1,23
 962.5 277 962.5 277 962.5 506 c 2,24,-1
 962.5 1147 l 1,25,-1
 1129.5 1147 l 1,26,-1
 1129.5 27 l 1,27,-1
 962.5 27 l 1,28,-1
 962.5 123 l 1,29,30
 929.5 63 929.5 63 880 31.5 c 128,-1,31
 830.5 0 830.5 0 767.5 0 c 0,32,33
 691.5 0 691.5 0 641 35 c 128,-1,34
 590.5 70 590.5 70 562.5 141 c 1,0,1
EndSplineSet
EndChar
StartChar: uni0270
Encoding: 624 624 624
Width: 1233
Flags: W
Fore
562.5 141 m 1,0,1
 528.5 69 528.5 69 476 34.5 c 128,-1,2
 423.5 0 423.5 0 349.5 0 c 0,3,4
 214.5 0 214.5 0 159 104.5 c 128,-1,5
 103.5 209 103.5 209 103.5 498 c 2,6,-1
 103.5 1147 l 1,7,-1
 271.5 1147 l 1,8,-1
 271.5 506 l 2,9,10
 271.5 269 271.5 269 298 211.5 c 128,-1,11
 324.5 154 324.5 154 394.5 154 c 0,12,13
 474.5 154 474.5 154 504 215.5 c 128,-1,14
 533.5 277 533.5 277 533.5 506 c 2,15,-1
 533.5 1147 l 1,16,-1
 701.5 1147 l 1,17,-1
 701.5 506 l 2,18,19
 701.5 266 701.5 266 730 210 c 128,-1,20
 758.5 154 758.5 154 832.5 154 c 0,21,22
 905.5 154 905.5 154 934 215.5 c 128,-1,23
 962.5 277 962.5 277 962.5 506 c 2,24,-1
 962.5 1147 l 1,25,-1
 1129.5 1147 l 1,26,-1
 1129.5 -430 l 1,27,-1
 962.5 -430 l 1,28,-1
 962.5 123 l 1,29,30
 929.5 63 929.5 63 880 31.5 c 128,-1,31
 830.5 0 830.5 0 767.5 0 c 0,32,33
 691.5 0 691.5 0 641 35 c 128,-1,34
 590.5 70 590.5 70 562.5 141 c 1,0,1
EndSplineSet
EndChar
StartChar: uni0271
Encoding: 625 625 625
Width: 1233
Flags: W
Fore
670.119 1006 m 1,0,1
 704.118 1078 704.118 1078 756.619 1112.5 c 0,2,3
 809.119 1147 809.119 1147 883.119 1147 c 0,4,5
 1018.12 1147 1018.12 1147 1073.62 1042.5 c 0,6,7
 1129.12 938.001 1129.12 938.001 1129.12 649 c 2,8,-1
 1129.12 128 l 1,9,-1
 1129.87 -20 l 2,10,11
 1130.85 -213.718 1130.85 -213.718 1049.17 -320 c 0,12,13
 967.56 -426 967.56 -426 817.949 -426 c 2,14,-1
 632.07 -426 l 1,15,-1
 632.07 -270 l 1,16,-1
 799.814 -270 l 2,17,18
 881.421 -270 881.421 -270 922.225 -208 c 0,19,20
 962.119 -145.998 962.119 -145.998 962.119 -20 c 2,21,-1
 962.119 5.55112e-16 l 1,22,-1
 961.119 0 l 1,23,-1
 961.119 641 l 2,24,25
 961.119 877.997 961.119 877.997 934.619 935.5 c 0,26,27
 908.121 993 908.121 993 838.119 993 c 0,28,29
 758.118 993 758.118 993 728.619 931.5 c 0,30,31
 699.119 869.998 699.119 869.998 699.119 641 c 2,32,-1
 699.119 0 l 1,33,-1
 531.119 0 l 1,34,-1
 531.119 641 l 2,35,36
 531.119 880.999 531.119 880.999 502.619 937 c 0,37,38
 474.12 993 474.12 993 400.119 993 c 0,39,40
 327.119 993 327.119 993 298.619 931.5 c 0,41,42
 270.119 870 270.119 870 270.119 641 c 2,43,-1
 270.119 0 l 1,44,-1
 103.119 0 l 1,45,-1
 103.119 1120 l 1,46,-1
 270.119 1120 l 1,47,-1
 270.119 1024 l 1,48,49
 303.119 1084 303.119 1084 352.619 1115.5 c 0,50,51
 402.119 1147 402.119 1147 465.119 1147 c 0,52,53
 541.122 1147 541.122 1147 591.619 1112 c 0,54,55
 642.122 1077 642.122 1077 670.119 1006 c 1,0,1
EndSplineSet
EndChar
StartChar: uni0272
Encoding: 626 626 626
Width: 1233
Flags: W
Fore
489 -20 m 1,10,-1
 489 -234 489 -234 428.25 -330 c 128,-1,4
 366.75 -426 366.75 -426 231 -426 c 2,5,-1
 178.5 -426 l 1,6,-1
 178.5 -270 l 1,7,-1
 215.25 -270 l 2,8,9
 294 -270 294 -270 322.5 -222 c 128,-1,10
 351 -173 351 -173 351 -20 c 1,11,-1
 351 1120 l 1,12,-1
 489.75 1120 l 1,13,-1
 489.75 946 l 1,14,15
 539.25 1047 539.25 1047 606.75 1097 c 128,-1,16
 673.5 1147 673.5 1147 761.25 1147 c 0,17,18
 906 1147 906 1147 980.25 1028 c 128,-1,19
 1054.5 908 1054.5 908 1054.5 676 c 2,0,-1
 1054.5 0 l 1,1,-1
 916.5 0 l 1,2,-1
 916.5 670 l 2,3,4
 916.5 829 916.5 829 870 908 c 128,-1,5
 823.5 987 823.5 987 730.5 987 c 0,6,7
 618.75 987 618.75 987 554.25 892 c 128,-1,8
 489.75 797 489.75 797 489.75 633 c 2,9,-1
 489 -20 l 1,10,-1
EndSplineSet
EndChar
StartChar: uni0273
Encoding: 627 627 627
Width: 1233
Flags: W
Fore
744 0 m 1,0,-1
 744 128 l 1,1,-1
 744 670 l 2,2,3
 744 829.001 744 829.001 697.5 908 c 0,4,5
 650.999 987 650.999 987 558 987 c 0,6,7
 446.249 987 446.249 987 381.75 892 c 0,8,9
 317.25 796.999 317.25 796.999 317.25 633 c 2,10,-1
 317.25 0 l 1,11,-1
 178.5 0 l 1,12,-1
 178.5 1120 l 1,13,-1
 317.25 1120 l 1,14,-1
 317.25 946 l 1,15,16
 366.748 1047 366.748 1047 433.5 1097 c 0,17,18
 500.999 1147 500.999 1147 588.75 1147 c 0,19,20
 733.501 1147 733.501 1147 807.75 1028 c 0,21,22
 882 908 882 908 882 676 c 2,23,-1
 882 128 l 1,24,-1
 882 0 l 1,25,-1
 882 -20 l 2,26,27
 882 -173.001 882 -173.001 910.5 -222 c 0,28,29
 939 -270 939 -270 1017.75 -270 c 2,30,-1
 1054.5 -270 l 1,31,-1
 1054.5 -426 l 1,32,-1
 1002 -426 l 2,33,34
 866.25 -426 866.25 -426 805.5 -330 c 0,35,36
 744 -234 744 -234 744 -20 c 2,37,-1
 744 0 l 1,0,-1
EndSplineSet
EndChar
StartChar: uni0274
Encoding: 628 628 628
Width: 1233
Flags: W
TeX: 0 0 0 0
Fore
144 1147 m 1,0,-1
 416 1147 l 1,1,-1
 893 244 l 1,2,-1
 893 1147 l 1,3,-1
 1089 1147 l 1,4,-1
 1089 0 l 1,5,-1
 817 0 l 1,6,-1
 340 903 l 1,7,-1
 340 0 l 1,8,-1
 144 0 l 1,9,-1
 144 1147 l 1,0,-1
EndSplineSet
EndChar
StartChar: uni0275
Encoding: 629 629 629
Width: 1233
Flags: W
Fore
616 1147 m 0,0,1
 848.998 1147 848.998 1147 972.5 996 c 0,2,3
 1096 845.002 1096 845.002 1096 559 c 0,4,5
 1096 272.001 1096 272.001 973 121.5 c 0,6,7
 850.001 -29 850.001 -29 616 -29 c 0,8,9
 382.999 -29 382.999 -29 260 121.5 c 0,10,11
 137 272.001 137 272.001 137 559 c 0,12,13
 137 845.001 137 845.001 260 996 c 0,14,15
 383.001 1147 383.001 1147 616 1147 c 0,0,1
616 991 m 0,16,17
 476.001 991 476.001 991 404 882 c 0,18,19
 341.025 786.664 341.025 786.664 333.131 611 c 1,20,-1
 899.869 611 l 1,21,22
 891.975 786.664 891.975 786.664 829 882 c 0,23,24
 756.999 991 756.999 991 616 991 c 0,16,17
895.263 447 m 1,25,-1
 337.737 447 l 1,26,27
 352.323 315.092 352.323 315.092 404 236.5 c 0,28,29
 476 127 476 127 616 127 c 0,30,31
 757 127 757 127 829 236.5 c 0,32,33
 880.677 315.092 880.677 315.092 895.263 447 c 1,25,-1
EndSplineSet
EndChar
StartChar: uni0276
Encoding: 630 630 630
Width: 1233
Flags: W
TeX: 0 0 0 0
Fore
1153.12 1120 m 1,0,-1
 1153.12 966 l 1,1,-1
 736.125 966 l 1,2,-1
 736.125 675 l 1,3,-1
 1135.88 675 l 1,4,-1
 1135.88 520 l 1,5,-1
 736.125 520 l 1,6,-1
 736.125 156 l 1,7,-1
 1163.62 156 l 1,8,-1
 1163.62 0 l 1,9,-1
 564.375 0 l 2,10,11
 320.625 0 320.625 0 195.375 142 c 128,-1,12
 69.375 285 69.375 285 69.375 561 c 0,13,14
 69.375 835 69.375 835 195.375 977 c 128,-1,15
 320.625 1120 320.625 1120 564.375 1120 c 2,16,-1
 1153.12 1120 l 1,0,-1
595.875 990 m 1,17,-1
 568.125 990 l 2,18,19
 388.125 990 388.125 990 298.125 882 c 128,-1,20
 208.125 775 208.125 775 208.125 559 c 0,21,22
 208.125 342 208.125 342 298.125 234 c 128,-1,23
 388.125 125 388.125 125 568.125 125 c 2,24,-1
 595.875 125 l 1,25,-1
 595.875 990 l 1,17,-1
EndSplineSet
EndChar
StartChar: uni0277
Encoding: 631 631 631
Width: 1233
Flags: W
TeX: 0 0 0 0
Fore
354.351 780 m 0,0,0
 310.101 684 310.101 684 307.851 664 c 128,-1,30
 289.851 552 289.851 552 292.851 486 c 0,28,29
 299.601 319 299.601 319 333.351 256 c 128,-1,27
 378.351 171 378.351 171 436.851 171 c 0,25,26
 494.601 171 494.601 171 535.851 250 c 128,-1,24
 558.351 293 558.351 293 558.351 478 c 2,22,23
 558.351 660 l 1,21,-1
 675.351 660 l 17,0,0
 675.351 478 l 2,22,23
 675.351 293 675.351 293 697.851 250 c 128,-1,24
 739.101 171 739.101 171 796.851 171 c 0,25,26
 853.101 171 853.101 171 900.351 256 c 128,-1,27
 927.351 304 927.351 304 940.851 486 c 0,28,29
 937.101 561 937.101 561 925.851 664 c 128,-1,30
 923.601 687 923.601 687 878.601 780 c 0,0,0
 799.851 940 799.851 940 609.351 940 c 0,0,0
 427.851 940 427.851 940 354.351 780 c 0,0,0
209.601 780 m 0,32,33
 280.851 1148 280.851 1148 616.851 1147 c 0,0,0
 931.851 1145 931.851 1145 1020.35 780 c 8,0,0
 1048.85 660 1048.85 660 1051.85 658 c 128,-1,34
 1062.35 557 1062.35 557 1062.35 468 c 0,35,36
 1062.35 238 1062.35 238 997.101 104 c 128,-1,37
 931.851 -30 931.851 -30 821.601 -30 c 0,38,39
 744.351 -30 744.351 -30 691.101 41 c 128,-1,40
 637.851 112 637.851 112 616.851 243 c 1,0,1
 595.851 112 595.851 112 542.601 41 c 128,-1,40
 489.351 -30 489.351 -30 412.101 -30 c 0,38,39
 301.851 -30 301.851 -30 236.601 104 c 128,-1,37
 163.851 253 163.851 253 171.351 468 c 0,35,36
 173.601 487 173.601 487 181.851 658 c 128,-1,34
 198.351 724 198.351 724 209.601 780 c 0,32,33
EndSplineSet
EndChar
StartChar: uni0278
Encoding: 632 632 632
Width: 1233
Flags: W
TeX: 0 0 0 0
Fore
532 1391 m 1,0,-1
 292 1391 l 1,1,-1
 292 1555 l 1,2,-1
 532 1555 l 1,3,-1
 716 1555 l 1,4,-1
 956 1555 l 1,5,-1
 956 1391 l 1,6,-1
 716 1391 l 1,7,-1
 716 1139.24 l 1,8,9
 876.992 1112.77 876.992 1112.77 972.5 996 c 0,10,11
 1096 845.002 1096 845.002 1096 559 c 0,12,13
 1096 272.001 1096 272.001 973 121.5 c 0,14,15
 877.769 4.97675 877.769 4.97675 716 -21.3292 c 1,16,-1
 716 -261 l 1,17,-1
 956 -261 l 1,18,-1
 956 -425 l 1,19,-1
 716 -425 l 1,20,-1
 532 -425 l 1,21,-1
 292 -425 l 1,22,-1
 292 -261 l 1,23,-1
 532 -261 l 1,24,-1
 532 -23.6435 l 1,25,26
 359.795 -0.607174 359.795 -0.607174 260 121.5 c 0,27,28
 137 272.001 137 272.001 137 559 c 0,29,30
 137 845.001 137 845.001 260 996 c 0,31,32
 359.795 1118.51 359.795 1118.51 532 1141.63 c 1,33,-1
 532 1391 l 1,0,-1
716 974.228 m 1,34,-1
 716 143.848 l 1,35,36
 785.243 169.952 785.243 169.952 829 236.5 c 0,37,38
 901 346 901 346 901 559 c 0,39,40
 901 773.001 901 773.001 829 882 c 0,41,42
 785.243 948.243 785.243 948.243 716 974.228 c 1,34,-1
532 138.621 m 1,43,-1
 532 979.432 l 1,44,45
 452.544 955.49 452.544 955.49 404 882 c 0,46,47
 332 773.001 332 773.001 332 559 c 0,48,49
 332 346 332 346 404 236.5 c 0,50,51
 452.544 162.672 452.544 162.672 532 138.621 c 1,43,-1
EndSplineSet
EndChar
StartChar: uni0279
Encoding: 633 633 633
Width: 1233
Flags: W
Fore
288.5 172 m 1,0,1
 319.5 154 319.5 154 355.5 146 c 128,-1,2
 392.5 137 392.5 137 436.5 137 c 0,3,4
 592.5 137 592.5 137 675.5 238 c 128,-1,5
 759.5 340 759.5 340 759.5 530 c 2,6,-1
 759.5 1120 l 1,7,-1
 944.5 1120 l 1,8,-1
 944.5 0 l 1,9,-1
 759.5 0 l 1,10,-1
 759.5 174 l 1,11,12
 701.5 72 701.5 72 608.5 22 c 128,-1,13
 515.5 -27 515.5 -27 382.5 -27 c 0,14,15
 363.5 -27 363.5 -27 340.5 -24 c 128,-1,16
 317.5 -22 317.5 -22 289.5 -17 c 1,17,-1
 288.5 172 l 1,0,1
EndSplineSet
EndChar
StartChar: uni027A
Encoding: 634 634 634
Width: 1233
Flags: W
Fore
288.5 -224 m 1,0,1
 319.5 -242 319.5 -242 355.5 -250 c 128,-1,2
 392.5 -259 392.5 -259 436.5 -259 c 0,3,4
 595.5 -259 595.5 -259 675.5 -158 c 128,-1,5
 759.5 -53 759.5 -53 759.5 134 c 2,6,-1
 759.5 1150 l 1,7,-1
 944.5 1150 l 1,8,-1
 944.5 -396 l 1,9,-1
 759.5 -396 l 1,10,-1
 759.5 -222 l 1,11,12
 701.5 -324 701.5 -324 608.5 -374 c 128,-1,13
 515.5 -423 515.5 -423 382.5 -423 c 0,14,15
 363.5 -423 363.5 -423 340.5 -420 c 128,-1,16
 317.5 -418 317.5 -418 289.5 -413 c 1,17,-1
 288.5 -224 l 1,0,1
EndSplineSet
EndChar
StartChar: uni027B
Encoding: 635 635 635
Width: 1233
Flags: W
Fore
173.5 172 m 1,0,1
 204.496 154.002 204.496 154.002 240.5 146 c 0,2,3
 277.499 137 277.499 137 321.5 137 c 0,4,5
 477.5 137 477.5 137 560.5 238 c 0,6,7
 644.5 340 644.5 340 644.5 530 c 2,8,-1
 644.5 1120 l 1,9,-1
 829.5 1120 l 1,10,-1
 829.5 128 l 1,11,-1
 829.5 0 l 1,12,-1
 829.5 -20 l 2,13,14
 829.5 -173.002 829.5 -173.002 867.5 -222 c 0,15,16
 905.501 -270 905.501 -270 1010.5 -270 c 2,17,-1
 1059.5 -270 l 1,18,-1
 1059.5 -426 l 1,19,-1
 989.5 -426 l 2,20,21
 808.5 -426 808.5 -426 727.5 -330 c 0,22,23
 645.5 -233.999 645.5 -233.999 645.5 -20 c 2,24,-1
 645.5 5.55112e-16 l 1,25,-1
 644.5 0 l 1,26,-1
 644.5 174 l 1,27,28
 586.502 72.0022 586.502 72.0022 493.5 22 c 0,29,30
 400.498 -27 400.498 -27 267.5 -27 c 0,31,32
 248.501 -27 248.501 -27 225.5 -24 c 0,33,34
 202.478 -21.9972 202.478 -21.9972 174.5 -17 c 1,35,-1
 173.5 172 l 1,0,1
EndSplineSet
EndChar
StartChar: uni027C
Encoding: 636 636 636
Width: 1233
Flags: W
Fore
944.5 948 m 1,0,1
 913.5 966 913.5 966 877.5 974 c 128,-1,2
 840.5 983 840.5 983 796.5 983 c 0,3,4
 640.5 983 640.5 983 557.5 882 c 128,-1,5
 473.5 780 473.5 780 473.5 590 c 2,6,-1
 473.5 -426 l 1,7,-1
 288.5 -426 l 1,8,-1
 288.5 1120 l 1,9,-1
 473.5 1120 l 1,10,-1
 473.5 946 l 1,11,12
 531.5 1048 531.5 1048 624.5 1098 c 128,-1,13
 717.5 1147 717.5 1147 850.5 1147 c 0,14,15
 869.5 1147 869.5 1147 892.5 1144 c 128,-1,16
 915.5 1142 915.5 1142 943.5 1137 c 1,17,-1
 944.5 948 l 1,0,1
EndSplineSet
EndChar
StartChar: uni027D
Encoding: 637 637 637
Width: 1233
Flags: W
Fore
945 948 m 1,0,1
 914.004 965.998 914.004 965.998 878 974 c 0,2,3
 841.001 983 841.001 983 797 983 c 0,4,5
 641 983 641 983 558 882 c 0,6,7
 474 780.999 474 780.999 474 590 c 2,8,-1
 474 0 l 1,9,-1
 472 -3.55271e-15 l 1,10,-1
 472 -20 l 2,11,12
 472 -173.002 472 -173.002 510 -222 c 0,13,14
 548.001 -270 548.001 -270 653 -270 c 2,15,-1
 886 -270 l 1,16,-1
 886 -426 l 1,17,-1
 632 -426 l 2,18,19
 451 -426 451 -426 370 -330 c 0,20,21
 288 -233.999 288 -233.999 288 -20 c 2,22,-1
 288 128 l 1,23,-1
 289 128 l 1,24,-1
 289 1120 l 1,25,-1
 474 1120 l 1,26,-1
 474 946 l 1,27,28
 531.998 1048 531.998 1048 625 1098 c 0,29,30
 718.002 1147 718.002 1147 851 1147 c 0,31,32
 869.999 1147 869.999 1147 893 1144 c 0,33,34
 916.022 1142 916.022 1142 944 1137 c 1,35,-1
 945 948 l 1,0,1
EndSplineSet
EndChar
StartChar: uni027E
Encoding: 638 638 638
Width: 1233
Flags: W
Fore
520.5 741 m 2,0,1
 520.5 953 520.5 953 602.5 1051 c 0,2,3
 684.5 1147 684.5 1147 864.5 1147 c 2,4,-1
 1073.5 1147 l 1,5,-1
 1073.5 991 l 1,6,-1
 886.5 991 l 2,7,8
 780.5 991 780.5 991 742.5 943 c 0,9,10
 706.5 893 706.5 893 706.5 741 c 2,11,-1
 708.5 143 l 1,12,-1
 1073.5 143 l 1,13,-1
 1073.5 0 l 1,14,-1
 159.5 0 l 1,15,-1
 159.5 143 l 1,16,-1
 520.5 143 l 1,17,-1
 520.5 741 l 2,0,1
EndSplineSet
EndChar
StartChar: uni027F
Encoding: 639 639 639
Width: 1233
Flags: W
Fore
712.5 741 m 2,0,-1
 712.5 143 l 1,1,-1
 1073.5 143 l 1,2,-1
 1073.5 0 l 1,3,-1
 159.5 0 l 1,4,-1
 159.5 143 l 1,5,-1
 526.5 143 l 1,6,-1
 526.5 741 l 2,7,8
 526.5 895.324 526.5 895.324 490.5 943 c 0,9,10
 454.255 991 454.255 991 346.5 991 c 2,11,-1
 159.5 991 l 1,12,-1
 159.5 1147 l 1,13,-1
 368.5 1147 l 2,14,15
 548.5 1147 548.5 1147 630.5 1051 c 0,16,17
 712.5 953 712.5 953 712.5 741 c 2,0,-1
EndSplineSet
EndChar
StartChar: uni0280
Encoding: 640 640 640
Width: 1233
Flags: W
Fore
724 525 m 1,0,1
 779 508 779 508 832 454 c 0,21,22
 884 400 884 400 937 306 c 1,19,20
 1111 0 l 1,18,-1
 916 0 l 1,17,-1
 754 287 l 1,16,-1
 691 400 691 400 632 436 c 0,14,15
 573 473 573 473 476 473 c 2,12,13
 307 473 l 1,11,-1
 307 0 l 1,10,-1
 122 0 l 1,9,-1
 122 1120 l 1,8,-1
 510 1120 l 2,7,-1
 727 1120 727 1120 835 1040 c 0,5,6
 942 959 942 959 942 797 c 0,3,4
 942 692 942 692 886 622 c 128,-1,2
 830 552 830 552 724 525 c 1,0,1
307 965 m 1,23,-1
 307 628 l 1,33,-1
 505 628 l 2,32,-1
 624 628 624 628 687 671 c 0,30,31
 751 714 751 714 751 797 c 0,28,29
 751 881 751 881 687 923 c 0,26,27
 624 965 624 965 505 965 c 2,24,25
 307 965 l 1,23,-1
EndSplineSet
EndChar
StartChar: uni0281
Encoding: 641 641 641
Width: 1233
Flags: W
Fore
724 595 m 1,0,1
 830 568 830 568 886 498 c 128,-1,2
 942 428 942 428 942 323 c 0,3,4
 942 161 942 161 835 80 c 0,5,6
 727 0 727 0 510 0 c 2,7,-1
 122 0 l 1,8,-1
 122 1120 l 1,9,-1
 307 1120 l 1,10,-1
 307 647 l 1,11,-1
 476 647 l 2,12,13
 573 647 573 647 632 684 c 0,14,15
 691 720 691 720 754 833 c 1,16,-1
 916 1120 l 1,17,-1
 1111 1120 l 1,18,-1
 937 814 l 1,19,20
 884 720 884 720 832 666 c 0,21,22
 779 612 779 612 724 595 c 1,0,1
307 155 m 1,23,-1
 505 155 l 2,24,25
 624 155 624 155 687 197 c 0,26,27
 751 239 751 239 751 323 c 0,28,29
 751 406 751 406 687 449 c 0,30,31
 624 492 624 492 505 492 c 2,32,-1
 307 492 l 1,33,-1
 307 155 l 1,23,-1
EndSplineSet
EndChar
StartChar: uni0282
Encoding: 642 642 642
Width: 1233
Flags: W
TeX: 0 0 0 0
Fore
984.5 1087 m 1,0,-1
 984.5 913 l 1,1,2
 906.5 952.999 906.5 952.999 822.5 973 c 0,3,4
 738.504 993 738.504 993 648.5 993 c 0,5,6
 511.501 993 511.501 993 443.5 951 c 0,7,8
 374.5 909 374.5 909 374.5 825 c 0,9,10
 374.5 761 374.5 761 423.5 724 c 0,11,12
 472.498 688.001 472.498 688.001 620.5 655 c 2,13,-1
 683.5 641 l 2,14,15
 879.503 598.999 879.503 598.999 961.5 522 c 0,16,17
 1044.5 446.002 1044.5 446.002 1044.5 309 c 0,18,19
 1044.5 152.999 1044.5 152.999 921.5 62 c 0,20,21
 797.5 -29 797.5 -29 581.5 -29 c 0,22,23
 491.495 -29 491.495 -29 393.5 -12 c 2,24,-1
 372.5 -7.92992 l 1,25,-1
 372.5 -20 l 2,26,27
 372.5 -173.002 372.5 -173.002 410.5 -222 c 0,28,29
 448.501 -270 448.501 -270 553.5 -270 c 2,30,-1
 786.5 -270 l 1,31,-1
 786.5 -426 l 1,32,-1
 532.5 -426 l 2,33,34
 351.5 -426 351.5 -426 270.5 -330 c 0,35,36
 188.5 -233.999 188.5 -233.999 188.5 -20 c 2,37,-1
 188.5 41 l 1,38,-1
 188.5 128 l 1,39,-1
 188.5 231 l 1,40,41
 290.492 178.003 290.492 178.003 389.5 152 c 0,42,43
 488.5 125 488.5 125 585.5 125 c 0,44,45
 715.501 125 715.501 125 785.5 170 c 0,46,47
 855.5 214.002 855.5 214.002 855.5 295 c 0,48,49
 855.5 370.002 855.5 370.002 805.5 410 c 0,50,51
 754.497 450.002 754.497 450.002 583.5 487 c 2,52,-1
 519.5 502 l 1,53,54
 348.497 538.001 348.497 538.001 272.5 612 c 0,55,56
 196.5 687.001 196.5 687.001 196.5 817 c 0,57,58
 196.5 974.998 196.5 974.998 308.5 1061 c 0,59,60
 420.498 1147 420.498 1147 626.5 1147 c 0,61,62
 728.5 1147 728.5 1147 818.5 1132 c 0,63,64
 908.502 1117 908.502 1117 984.5 1087 c 1,0,-1
EndSplineSet
EndChar
StartChar: uni0283
Encoding: 643 643 643
Width: 1233
Flags: W
Fore
464.5 -20 m 0,11,-1
 463.5 604 463.5 604 461.5 1198 c 0,16,17
 461.5 1379 461.5 1379 548.5 1470 c 128,-1,18
 629.5 1556 629.5 1556 824.5 1556 c 2,19,-1
 998.5 1556 l 1,0,-1
 998.5 1403 l 1,1,-1
 822.5 1403 l 2,2,3
 723.5 1403 723.5 1403 685.5 1363 c 128,-1,4
 646.5 1323 646.5 1323 646.5 1219 c 1,1,-1
 648.5 -20 l 2,2,3
 648.5 -234 648.5 -234 567.5 -330 c 128,-1,4
 485.5 -426 485.5 -426 304.5 -426 c 2,5,-1
 234.5 -426 l 1,6,-1
 234.5 -270 l 1,7,-1
 283.5 -270 l 2,8,9
 388.5 -270 388.5 -270 426.5 -222 c 128,-1,10
 464.5 -173 464.5 -173 464.5 -20 c 0,11,-1
EndSplineSet
EndChar
StartChar: uni0284
Encoding: 644 644 644
Width: 1233
Flags: W
Fore
234.5 0 m 1,0,-1
 234.5 164 l 1,1,-1
 464.5 164 l 1,2,-1
 464.5 977 l 1,3,-1
 285.5 977 l 1,4,-1
 285.5 1120 l 1,5,-1
 461.5 1120 l 1,6,-1
 461.5 1198 l 2,7,8
 461.5 1379 461.5 1379 548.5 1470 c 0,9,10
 629.499 1556 629.499 1556 824.5 1556 c 2,11,-1
 998.5 1556 l 1,12,-1
 998.5 1403 l 1,13,-1
 822.5 1403 l 2,14,15
 723.502 1403 723.502 1403 685.5 1363 c 0,16,17
 646.5 1323 646.5 1323 646.5 1219 c 1,18,-1
 648.203 164 l 1,19,-1
 896.5 164 l 1,20,-1
 896.5 0 l 1,21,-1
 648.468 -3.31957e-14 l 1,22,-1
 648.5 -20 l 1,23,24
 648.5 -234 648.5 -234 567.5 -330 c 0,25,26
 485.501 -426 485.501 -426 304.5 -426 c 2,27,-1
 234.5 -426 l 1,28,-1
 234.5 -270 l 1,29,-1
 283.5 -270 l 2,30,31
 388.499 -270 388.499 -270 426.5 -222 c 0,32,33
 464.5 -173.002 464.5 -173.002 464.5 -20 c 2,34,-1
 464.5 -4.12864e-16 l 1,35,-1
 234.5 0 l 1,0,-1
EndSplineSet
EndChar
StartChar: uni0285
Encoding: 645 645 645
Width: 1233
Flags: W
Fore
768.5 -20 m 0,11,-1
 768.5 -173 768.5 -173 806.5 -222 c 128,-1,10
 844.5 -270 844.5 -270 949.5 -270 c 2,8,9
 998.5 -270 l 1,7,-1
 998.5 -426 l 1,6,-1
 928.5 -426 l 2,5,-1
 747.5 -426 747.5 -426 665.5 -330 c 128,-1,4
 583.5 -233 583.5 -233 584.5 -20 c 2,2,3
 586.5 788 l 1,1,-1
 586.5 892 586.5 892 547.5 932 c 128,-1,4
 509.5 972 509.5 972 410.5 972 c 2,2,3
 234.5 972 l 1,1,-1
 234.5 1125 l 1,0,-1
 408.5 1125 l 2,19,-1
 603.5 1125 603.5 1125 684.5 1039 c 128,-1,18
 777.5 942 777.5 942 771.5 767 c 0,16,17
 768.5 678 768.5 678 768.5 -20 c 0,11,-1
EndSplineSet
EndChar
StartChar: uni0286
Encoding: 646 646 646
Width: 1233
Flags: W
TeX: 0 0 0 0
Fore
568 -154 m 1,0,-1
 389 -154 l 2,1,2
 270 -154 270 -154 273 -205 c 0,3,4
 276.023 -270 276.023 -270 400 -270 c 0,5,6
 510 -270 510 -270 543 -222 c 1,7,8
 560.943 -199.163 560.943 -199.163 568 -154 c 1,0,-1
765 -0 m 1,9,-1
 946 0 l 1,10,-1
 946 -155 l 1,11,-1
 755 -155 l 1,12,13
 737.218 -266.139 737.218 -266.139 684 -330 c 0,14,15
 601.5 -426 601.5 -426 421 -426 c 0,16,17
 118 -426 118 -426 118 -210 c 0,18,19
 118 0 118 0 388 0 c 2,20,-1
 578 0 l 1,21,-1
 578 1198 l 2,22,23
 578 1378.5 578 1378.5 665 1470 c 0,24,25
 746.474 1556 746.474 1556 941 1556 c 2,26,-1
 1115 1556 l 1,27,-1
 1115 1403 l 1,28,-1
 939 1403 l 2,29,30
 839.037 1403 839.037 1403 802 1363 c 0,31,32
 763 1322.5 763 1322.5 763 1219 c 1,33,-1
 765 -0 l 1,9,-1
EndSplineSet
EndChar
StartChar: uni0287
Encoding: 647 647 647
Width: 1233
Flags: W
Fore
584 -318 m 1,0,-1
 584 0 l 1,1,-1
 166 0 l 1,2,-1
 166 143 l 1,3,-1
 584 143 l 1,4,-1
 584 751 l 2,5,6
 584 875 584 875 537 924 c 128,-1,7
 490 973 490 973 373 973 c 2,8,-1
 166 973 l 1,9,-1
 166 1120 l 1,10,-1
 391 1120 l 2,11,12
 598 1120 598 1120 683 1037 c 128,-1,13
 768 954 768 954 768 751 c 2,14,-1
 768 143 l 1,15,-1
 1067 143 l 1,16,-1
 1067 0 l 1,17,-1
 768 0 l 1,18,-1
 768 -318 l 1,19,-1
 584 -318 l 1,0,-1
EndSplineSet
EndChar
StartChar: uni0288
Encoding: 648 648 648
Width: 1233
Flags: W
Fore
614 1438 m 1,0,-1
 614 1120 l 1,1,-1
 1032 1120 l 1,2,-1
 1032 977 l 1,3,-1
 614 977 l 1,4,-1
 614 -56 l 2,5,6
 614 -180 614 -180 661 -229 c 128,-1,7
 708 -278 708 -278 825 -278 c 2,8,-1
 1032 -278 l 1,9,-1
 1032 -425 l 1,10,-1
 807 -425 l 2,11,12
 600 -425 600 -425 515 -342 c 128,-1,13
 430 -259 430 -259 430 -56 c 2,14,-1
 430 977 l 1,15,-1
 131 977 l 1,16,-1
 131 1120 l 1,17,-1
 430 1120 l 1,18,-1
 430 1438 l 1,19,-1
 614 1438 l 1,0,-1
EndSplineSet
EndChar
StartChar: uni0289
Encoding: 649 649 649
Width: 1233
Flags: W
Fore
-32.5 452 m 1,0,-1
 -32.5 616 l 1,1,-1
 141.5 616 l 1,2,-1
 141.5 1120 l 1,3,-1
 325.5 1120 l 1,4,-1
 325.5 616 l 1,5,-1
 895.5 616 l 1,6,-1
 895.5 1120 l 1,7,-1
 1079.5 1120 l 1,8,-1
 1079.5 616 l 1,9,-1
 1265.5 616 l 1,10,-1
 1265.5 452 l 1,11,-1
 1079.5 452 l 1,12,-1
 1079.5 0 l 1,13,-1
 895.5 0 l 1,14,-1
 895.5 172 l 1,15,16
 828.502 70.0015 828.502 70.0015 739.5 20 c 0,17,18
 651.499 -29 651.499 -29 534.5 -29 c 0,19,20
 341.499 -29 341.499 -29 241.5 91 c 0,21,22
 141.5 211.001 141.5 211.001 141.5 442 c 2,23,-1
 141.5 452 l 1,24,-1
 -32.5 452 l 1,0,-1
894.591 452 m 1,25,-1
 325.5 452 l 1,26,-1
 325.5 449 l 2,27,28
 325.5 290 325.5 290 387.5 210 c 0,29,30
 449.502 131 449.502 131 573.5 131 c 0,31,32
 722.501 131 722.501 131 809.5 226 c 0,33,34
 886.656 311.231 886.656 311.231 894.591 452 c 1,25,-1
EndSplineSet
EndChar
StartChar: uni028A
Encoding: 650 650 650
Width: 1233
Flags: W
TeX: 0 0 0 0
Fore
95 956 m 1,0,-1
 95 1120 l 1,1,-1
 537 1120 l 1,2,-1
 537 900 l 1,3,4
 428 831 428 831 365 726 c 128,-1,5
 299 615 299 615 299 480 c 0,6,7
 299 321 299 321 387 224 c 128,-1,8
 475 127 475 127 619 127 c 0,9,10
 763 127 763 127 851 224 c 128,-1,11
 939 322 939 322 939 480 c 0,12,13
 939 626 939 626 873 726 c 128,-1,14
 802 837 802 837 702 900 c 1,15,-1
 702 1120 l 1,16,-1
 1138 1120 l 1,17,-1
 1138 956 l 1,18,-1
 902 956 l 1,19,20
 1016 856 1016 856 1072 743 c 128,-1,21
 1126 633 1126 633 1126 497 c 0,22,23
 1126 262 1126 262 984 116 c 128,-1,24
 842 -30 842 -30 617 -30 c 0,25,26
 392 -30 392 -30 250 115 c 128,-1,27
 108 261 108 261 108 489 c 0,28,29
 108 636 108 636 160 743 c 128,-1,30
 213 852 213 852 332 956 c 1,31,-1
 95 956 l 1,0,-1
EndSplineSet
EndChar
StartChar: uni028B
Encoding: 651 651 651
Width: 1233
Flags: W
TeX: 0 0 0 0
Fore
532 986 m 0,0,0
 854 986 l 1,18,-1
 854 986 l 1,19,20
 968 886 968 886 1024 773 c 128,-1,21
 1078 663 1078 663 1078 527 c 0,22,23
 1078 292 1078 292 936 146 c 128,-1,24
 794 0 794 0 569 0 c 0,25,26
 499 0 l 2,5,-1
 318 0 318 0 236 96 c 128,-1,4
 155 192 155 192 155 406 c 2,2,3
 155 1120 l 1,1,-1
 339 1120 l 1,0,-1
 339 406 l 2,11,-1
 339 253 339 253 377 204 c 128,-1,10
 417 154 417 154 520 156 c 2,8,9
 571 157 l 0,9,10
 715 157 715 157 803 254 c 128,-1,11
 891 352 891 352 891 510 c 0,12,13
 891 656 891 656 825 756 c 128,-1,14
 746 875 746 875 654 930 c 16,15,-1
 578 974 578 974 532 986 c 0,0,0
EndSplineSet
EndChar
StartChar: uni028C
Encoding: 652 652 652
Width: 1233
Flags: W
Fore
1161.5 0 m 1,0,-1
 966.5 0 l 1,1,-1
 616.5 940 l 1,2,-1
 266.5 0 l 1,3,-1
 71.5 0 l 1,4,-1
 491.5 1120 l 1,5,-1
 741.5 1120 l 1,6,-1
 1161.5 0 l 1,0,-1
EndSplineSet
EndChar
StartChar: uni028D
Encoding: 653 653 653
Width: 1233
Flags: W
Fore
1217.7 0 m 1,0,-1
 1070.5 0 l 1,1,-1
 886.5 874 l 1,2,-1
 703.3 0 l 1,3,-1
 529.7 0 l 1,4,-1
 345.7 874 l 1,5,-1
 162.5 0 l 1,6,-1
 15.2998 0 l 1,7,-1
 249.7 1120 l 1,8,-1
 423.3 1120 l 1,9,-1
 616.1 202 l 1,10,-1
 809.7 1120 l 1,11,-1
 983.3 1120 l 1,12,-1
 1217.7 0 l 1,0,-1
EndSplineSet
EndChar
StartChar: uni028E
Encoding: 654 654 654
Width: 1233
Flags: W
Fore
563.5 1224 m 1,0,1
 641.5 1424 641.5 1424 715.5 1485 c 128,-1,2
 789.5 1546 789.5 1546 913.5 1546 c 2,3,-1
 1060.5 1546 l 1,4,-1
 1060.5 1392 l 1,5,-1
 952.5 1392 l 2,6,7
 876.5 1392 876.5 1392 834.5 1356 c 128,-1,8
 792.5 1320 792.5 1320 741.5 1186 c 1,9,-1
 708.5 1102 l 1,10,-1
 1161.5 0 l 1,11,-1
 966.5 0 l 1,12,-1
 616.5 876 l 1,13,-1
 266.5 0 l 1,14,-1
 71.5 0 l 1,15,-1
 563.5 1224 l 1,0,1
EndSplineSet
EndChar
StartChar: uni028F
Encoding: 655 655 655
Width: 1233
Flags: W
TeX: 0 0 0 0
Fore
102 1149 m 1,0,-1
 319 1149 l 1,1,-1
 612 693 l 1,2,-1
 914 1149 l 1,3,-1
 1131 1149 l 1,4,-1
 712 525 l 1,5,-1
 712 0 l 1,6,-1
 509 0 l 1,7,-1
 509 525 l 1,8,-1
 102 1149 l 1,0,-1
EndSplineSet
EndChar
StartChar: uni0290
Encoding: 656 656 656
Width: 1233
Flags: W
TeX: 0 0 0 0
Fore
212.625 1120 m 1,0,-1
 868.125 1120 l 1,1,-1
 868.125 952 l 1,2,-1
 349.125 147 l 1,3,-1
 868.125 147 l 1,4,-1
 868.125 0 l 1,5,-1
 866.625 -0 l 1,6,-1
 866.625 -20 l 2,7,8
 866.625 -173.002 866.625 -173.002 895.125 -222 c 0,9,10
 923.626 -270 923.626 -270 1002.38 -270 c 2,11,-1
 1039.12 -270 l 1,12,-1
 1039.12 -426 l 1,13,-1
 986.625 -426 l 2,14,15
 850.875 -426 850.875 -426 790.125 -330 c 0,16,17
 728.625 -233.999 728.625 -233.999 728.625 -20 c 2,18,-1
 728.625 0 l 1,19,-1
 193.875 0 l 1,20,-1
 193.875 168 l 1,21,-1
 712.875 973 l 1,22,-1
 212.625 973 l 1,23,-1
 212.625 1120 l 1,0,-1
EndSplineSet
EndChar
StartChar: uni0291
Encoding: 657 657 657
Width: 1233
Flags: W
TeX: 0 0 0 0
Fore
682.326 1.08518e-06 m 1,0,-1
 679 -51.0397 679 -51.0397 679 -111 c 1,19,20
 526 -111 l 1,18,-1
 526 -52.35 526 -52.35 529.485 -1.92901e-14 c 1,16,17
 167 0 l 1,15,-1
 167 168 l 1,14,-1
 859 973 l 1,13,-1
 192 973 l 1,12,-1
 192 1120 l 1,11,-1
 1066 1120 l 1,10,-1
 1066 952 l 1,9,-1
 374 147 l 1,8,-1
 548.628 147 l 1,7,-1
 608.665 435 608.665 435 828 435 c 0,5,6
 1055 435 1055 435 1056 189 c 0,3,4
 1057 0 1057 0 723 0 c 2,1,2
 682.326 1.08518e-06 l 1,0,-1
703.056 147 m 1,21,22
 723 147 l 2,27,-1
 897 147 897 147 897 201 c 0,25,26
 897 292 897 292 827 292 c 0,23,24
 738.668 290.209 738.668 290.209 703.056 147 c 1,21,22
EndSplineSet
EndChar
StartChar: uni0292
Encoding: 658 658 658
Width: 1233
Flags: W
TeX: 0 0 0 0
Fore
609 476 m 1,0,0
 715 476 715 476 843 420 c 0,0,1
 941 378 941 378 1027 269 c 128,-1,2
 1108 165 1108 165 1108 27 c 0,3,4
 1108 -194 1108 -194 956 -315 c 128,-1,5
 804 -436 804 -436 524 -436 c 0,6,7
 430 -436 430 -436 331 -418 c 128,-1,8
 231 -399 231 -399 125 -362 c 1,9,-1
 125 -167 l 1,10,11
 209 -216 209 -216 309 -241 c 128,-1,12
 409 -266 409 -266 518 -266 c 0,13,14
 708 -266 708 -266 807 -191 c 128,-1,15
 907 -116 907 -116 907 27 c 0,16,17
 907 159 907 159 815 234 c 128,-1,18
 722 308 722 308 557 308 c 2,19,-1
 383 308 l 1,20,-1
 383 474 l 1,0,0
 813 973 l 1,8,-1
 146 973 l 1,9,-1
 146 1120 l 1,0,-1
 1020 1120 l 1,1,-1
 1020 952 l 1,2,-1
 609 476 l 1,0,0
EndSplineSet
EndChar
StartChar: uni0293
Encoding: 659 659 659
Width: 1233
Flags: W
TeX: 0 0 0 0
Fore
483 -436 m 0,0,1
 148.5 -436 148.5 -436 150 -247 c 0,2,3
 151.5 3.5 151.5 3.5 450 -1 c 0,4,5
 696.449 -5.48088 696.449 -5.48088 854 -64 c 1,6,7
 866 -22 866 -22 866 27 c 0,8,9
 866 160.098 866 160.098 774 234 c 0,10,11
 680.367 308 680.367 308 516 308 c 2,12,-1
 342 308 l 1,13,-1
 342 474 l 1,14,-1
 772 973 l 1,15,-1
 105 973 l 1,16,-1
 105 1120 l 1,17,-1
 979 1120 l 1,18,-1
 979 952 l 1,19,-1
 568 476 l 1,20,21
 673.351 476 673.351 476 802 420 c 0,22,23
 901.595 377.098 901.595 377.098 986 269 c 0,24,25
 1067 165.5 1067 165.5 1067 27 c 0,26,27
 1067 -85.5 1067 -85.5 1028 -171 c 1,28,29
 1128 -272.493 1128 -272.493 1128 -436 c 1,30,-1
 975 -436 l 1,31,32
 975 -354.296 975 -354.296 935 -298 c 1,33,34
 915 -315 l 2,35,36
 764.123 -436 764.123 -436 483 -436 c 0,0,1
773 -186 m 1,37,38
 648.5 -144 648.5 -144 451 -144 c 0,39,40
 320.5 -144 320.5 -144 319 -219 c 0,41,42
 319 -266 319 -266 477 -266 c 0,43,44
 667 -266 667 -266 766 -191 c 2,45,-1
 773 -186 l 1,37,38
EndSplineSet
EndChar
StartChar: uni0294
Encoding: 660 660 660
Width: 1233
Flags: W
Fore
446 798 m 9,0,0
 509 798 l 1,10,11
 701 798 701 798 787 912 c 128,-1,9
 845 988 845 988 845 1086 c 0,7,8
 844 1219 844 1219 787 1284 c 128,-1,6
 688 1398 688 1398 509 1398 c 0,4,5
 429 1398 429 1398 350 1376 c 128,-1,3
 272 1355 272 1355 194 1312 c 1,1,2
 194 1484 l 1,0,-1
 270 1519 270 1519 351 1536 c 128,-1,25
 432 1554 432 1554 517 1554 c 0,23,24
 792 1554 792 1554 930 1397 c 128,-1,22
 1039 1272 1039 1272 1039 1086 c 0,20,21
 1039 916 1039 916 931 801 c 128,-1,19
 819 682 819 682 649 652 c 1,0,0
 649 0 l 1,0,-1
 447 0 l 1,1,-1
 446 798 l 9,0,0
EndSplineSet
EndChar
StartChar: uni0295
Encoding: 661 661 661
Width: 1233
Flags: W
Fore
786 798 m 17,0,0
 786 0 l 1,1,-1
 584 0 l 1,0,-1
 584 652 l 1,0,0
 414 682 414 682 302 801 c 128,-1,19
 194 916 194 916 194 1086 c 0,20,21
 194 1272 194 1272 304 1397 c 128,-1,22
 441 1554 441 1554 716 1554 c 0,23,24
 801 1554 801 1554 882 1536 c 128,-1,25
 963 1519 963 1519 1039 1484 c 1,0,-1
 1039 1312 l 1,1,2
 961 1355 961 1355 882 1376 c 128,-1,3
 804 1398 804 1398 724 1398 c 0,4,5
 545 1398 545 1398 446 1284 c 128,-1,6
 389 1219 389 1219 388 1086 c 0,7,8
 388 988 388 988 446 912 c 128,-1,9
 532 798 532 798 724 798 c 1,10,11
 786 798 l 17,0,0
EndSplineSet
EndChar
StartChar: uni0296
Encoding: 662 662 662
Width: 1233
Flags: W
Fore
446 756 m 17,0,0
 447 1554 l 1,1,-1
 649 1554 l 1,0,-1
 649 902 l 1,0,0
 819 872 819 872 931 753 c 128,-1,19
 1039 638 1039 638 1039 468 c 0,20,21
 1039 282 1039 282 930 157 c 128,-1,22
 792 0 792 0 517 0 c 0,23,24
 432 0 432 0 351 18 c 128,-1,25
 270 35 270 35 194 70 c 1,0,-1
 194 242 l 1,1,2
 272 199 272 199 350 178 c 128,-1,3
 429 156 429 156 509 156 c 0,4,5
 688 156 688 156 787 270 c 128,-1,6
 844 335 844 335 845 468 c 0,7,8
 845 566 845 566 787 642 c 128,-1,9
 701 756 701 756 509 756 c 1,10,11
 446 756 l 17,0,0
EndSplineSet
EndChar
StartChar: uni0297
Encoding: 663 663 663
Width: 1233
Flags: W
TeX: 0 0 0 0
Fore
194 1086 m 17,0,0
 194 1272 194 1272 304 1397 c 128,-1,22
 441 1554 441 1554 716 1554 c 0,23,24
 801 1554 801 1554 882 1536 c 128,-1,25
 963 1519 963 1519 1039 1484 c 1,0,-1
 1039 1312 l 1,1,2
 961 1355 961 1355 882 1376 c 128,-1,3
 804 1398 804 1398 724 1398 c 0,4,5
 545 1398 545 1398 446 1284 c 128,-1,6
 389 1219 389 1219 388 1086 c 1,7,8
 388 30 l 17,0,0
 389 -103 389 -103 446 -168 c 128,-1,6
 545 -282 545 -282 724 -282 c 0,4,5
 804 -282 804 -282 882 -260 c 128,-1,3
 961 -239 961 -239 1039 -196 c 1,1,2
 1039 -368 l 1,0,-1
 963 -403 963 -403 882 -420 c 128,-1,25
 801 -438 801 -438 716 -438 c 0,23,24
 441 -438 441 -438 304 -281 c 128,-1,22
 194 -156 194 -156 194 30 c 1,20,21
 194 1086 l 17,0,0
EndSplineSet
EndChar
StartChar: uni0298
Encoding: 664 664 664
Width: 1233
Flags: W
Fore
94.9004 565.2 m 0,14,15
 94.9004 776.8 94.9004 776.8 249.46 933.2 c 0,16,17
 403.1 1089.6 403.1 1089.6 619.3 1089.6 c 0,18,19
 830.9 1089.6 830.9 1089.6 985.46 933.2 c 0,20,21
 1139.1 776.8 1139.1 776.8 1139.1 565.2 c 0,22,23
 1139.1 349 1139.1 349 987.3 197.2 c 128,-1,24
 835.5 45.4004 835.5 45.4004 619.3 45.4004 c 128,-1,25
 403.1 45.4004 403.1 45.4004 249.46 197.2 c 0,26,27
 94.9004 349 94.9004 349 94.9004 565.2 c 0,14,15
276 566 m 0,0,1
 276 425 276 425 377 326 c 128,-1,11
 477 227 477 227 618 227 c 0,9,10
 759 227 759 227 858 326 c 128,-1,8
 957 425 957 425 957 566 c 0,6,7
 957 704 957 704 857 806 c 128,-1,5
 756 908 756 908 618 908 c 0,3,4
 477 908 477 908 377 806 c 128,-1,2
 276 704 276 704 276 566 c 0,0,1
503 567 m 0,0,1
 503 613 503 613 537 647 c 128,-1,2
 570 681 570 681 617 681 c 0,3,4
 663 681 663 681 697 647 c 128,-1,5
 730 613 730 613 730 567 c 0,6,7
 730 520 730 520 697 487 c 128,-1,8
 664 454 664 454 617 454 c 0,9,10
 570 454 570 454 537 487 c 128,-1,11
 503 520 503 520 503 567 c 0,0,1
EndSplineSet
EndChar
StartChar: uni0299
Encoding: 665 665 665
Width: 1233
Flags: W
Fore
411 530 m 1,0,-1
 411 170 l 1,1,-1
 632 170 l 2,2,3
 725 170 725 170 771 221 c 128,-1,4
 820 275 820 275 820 338 c 0,5,6
 820 430 820 430 776 479 c 128,-1,7
 730 530 730 530 636 530 c 2,8,-1
 411 530 l 1,0,-1
410 980 m 1,9,-1
 411 700 l 1,10,-1
 621 700 l 2,11,12
 706 700 706 700 748 743 c 128,-1,13
 790 785 790 785 790 848 c 0,14,15
 790 894 790 894 748 937 c 128,-1,16
 706 980 706 980 620 980 c 2,17,-1
 410 980 l 1,9,-1
209 1149 m 1,18,-1
 606 1149 l 2,19,20
 784 1149 784 1149 880 1075 c 128,-1,21
 976 1001 976 1001 976 865 c 0,22,23
 976 760 976 760 927 697 c 128,-1,24
 878 635 878 635 782 620 c 1,25,26
 897 595 897 595 961 517 c 128,-1,27
 1024 439 1024 439 1024 322 c 0,28,29
 1024 168 1024 168 919 84 c 128,-1,30
 815 0 815 0 622 0 c 2,31,-1
 209 0 l 1,32,-1
 209 1149 l 1,18,-1
EndSplineSet
EndChar
StartChar: uni029A
Encoding: 666 666 666
Width: 1233
Flags: W
TeX: 0 0 0 0
Fore
562.5 984 m 0,28,29
 447 984 447 984 390 930 c 128,-1,27
 326.25 869 326.25 869 326.25 792 c 0,25,26
 326.25 715 326.25 715 385.5 660 c 128,-1,24
 417.75 630 417.75 630 556.5 630 c 2,22,23
 693 630 l 1,21,-1
 693 473 l 17,0,0
 556.5 473 l 2,22,23
 417.75 473 417.75 473 385.5 443 c 128,-1,24
 326.25 389 326.25 389 326.25 311 c 0,25,26
 326.25 237 326.25 237 390 173 c 128,-1,27
 444.75 119 444.75 119 562.5 119 c 0,28,29
 901.5 120 901.5 120 902.25 566 c 1,0,0
 901.5 984 901.5 984 562.5 984 c 0,28,29
782.25 1099 m 0,32,33
 1057.5 948 1057.5 948 1057.5 556 c 0,0,0
 1057.5 212 1057.5 212 782.25 18 c 0,0,0
 696 -44 696 -44 549 -42 c 0,35,36
 376.5 -42 376.5 -42 276 45 c 128,-1,37
 175.5 131 175.5 131 175.5 279 c 0,38,39
 175.5 382 175.5 382 228.75 453 c 128,-1,40
 282 524 282 524 380.25 552 c 1,0,1
 282 579 282 579 228.75 650 c 128,-1,40
 175.5 721 175.5 721 175.5 824 c 0,38,39
 175.5 972 175.5 972 276 1059 c 128,-1,37
 376.5 1145 376.5 1145 549 1145 c 0,35,36
 699 1145 699 1145 782.25 1099 c 0,32,33
EndSplineSet
EndChar
StartChar: uni029B
Encoding: 667 667 667
Width: 1233
Flags: W
TeX: 0 0 0 0
Fore
718 178 m 1,0,-1
 718 460 l 1,1,-1
 602 460 l 1,2,-1
 602 600 l 1,3,-1
 843 600 l 1,4,-1
 843 72 l 1,5,6
 789.449 37.7869 789.449 37.7869 724 18 c 0,7,8
 665.5 0 665.5 0 514 0 c 0,9,10
 324.5 0 324.5 0 212 159 c 0,11,12
 100 319.432 100 319.432 100 588 c 0,13,14
 100 861.5 100 861.5 214 1019 c 0,15,16
 326.143 1176 326.143 1176 523 1176 c 0,17,18
 569 1176 569 1176 647 1158 c 0,19,20
 671 1152 671 1152 684 1147 c 1,21,-1
 684 1148 l 2,22,23
 684 1363.52 684 1363.52 746 1458 c 1,24,25
 806 1554 806 1554 942 1554 c 2,26,-1
 1132 1554 l 1,27,-1
 1132 1398 l 1,28,-1
 958 1398 l 2,29,30
 880 1398 880 1398 850 1350 c 1,31,32
 822 1298.67 822 1298.67 822 1148 c 2,33,-1
 822 1000 l 1,34,-1
 820 1000 l 1,35,-1
 820 894 l 1,36,37
 728.446 971.821 728.446 971.821 647 998 c 0,38,39
 583.933 1020 583.933 1020 529 1020 c 0,40,41
 395 1020 395 1020 320 906 c 0,42,43
 246 792.735 246 792.735 246 588 c 0,44,45
 246 383.265 246 383.265 320 270 c 0,46,47
 395 156 395 156 529 156 c 0,48,49
 659.333 156 659.333 156 718 178 c 1,0,-1
EndSplineSet
EndChar
StartChar: uni029C
Encoding: 668 668 668
Width: 1233
Flags: W
Fore
144 1147 m 1,0,-1
 346 1147 l 1,1,-1
 346 700 l 1,2,-1
 887 700 l 1,3,-1
 887 1147 l 1,4,-1
 1089 1147 l 1,5,-1
 1089 0 l 1,6,-1
 887 0 l 1,7,-1
 887 530 l 1,8,-1
 346 530 l 1,9,-1
 346 0 l 1,10,-1
 144 0 l 1,11,-1
 144 1147 l 1,0,-1
EndSplineSet
EndChar
StartChar: uni029D
Encoding: 669 669 669
Width: 1233
Flags: W
TeX: 0 0 0 0
Fore
665.5 1556 m 1,0,-1
 849.5 1556 l 1,1,-1
 849.5 1323 l 1,2,-1
 665.5 1323 l 1,3,-1
 665.5 1556 l 1,0,-1
505.5 -426 m 0,4,5
 202.5 -426 202.5 -426 202.5 -205 c 0,17,18
 202.5 0 202.5 0 472.5 0 c 2,15,16
 665.5 3.10862e-14 l 1,14,-1
 665.5 1120 l 1,13,-1
 849.5 1120 l 1,12,-1
 849.5 -5.55112e-16 l 1,11,-1
 1030.5 0 l 1,10,-1
 1030.5 -155 l 1,9,-1
 839.63 -154.657 l 1,8,-1
 821.138 -267.409 821.138 -267.409 768 -330 c 0,6,7
 686.751 -425.707 686.751 -425.707 505.5 -426 c 0,4,5
654.513 -154.325 m 1,19,20
 473.5 -154 l 2,27,-1
 354.705 -153.786 354.705 -153.786 357.5 -205 c 0,25,26
 361.071 -270 361.071 -270 484.5 -270 c 0,23,24
 589.5 -270 589.5 -270 627.5 -221.5 c 0,21,22
 645.067 -199.079 645.067 -199.079 654.513 -154.325 c 1,19,20
EndSplineSet
EndChar
StartChar: uni029E
Encoding: 670 670 670
Width: 1233
Flags: W
Fore
1113.5 -436 m 1,0,-1
 928.5 -436 l 1,1,-1
 928.5 483 l 1,2,-1
 379.5 0 l 1,3,-1
 144.5 0 l 1,4,-1
 738.5 524 l 1,5,-1
 119.5 1120 l 1,6,-1
 359.5 1120 l 1,7,-1
 928.5 573 l 1,8,-1
 928.5 1120 l 1,9,-1
 1113.5 1120 l 1,10,-1
 1113.5 -436 l 1,0,-1
EndSplineSet
EndChar
StartChar: uni029F
Encoding: 671 671 671
Width: 1233
Flags: W
Fore
245 1147 m 1,0,-1
 447 1147 l 1,1,-1
 447 170 l 1,2,-1
 988 170 l 1,3,-1
 988 0 l 1,4,-1
 245 0 l 1,5,-1
 245 1147 l 1,0,-1
EndSplineSet
EndChar
StartChar: uni02A0
Encoding: 672 672 672
Width: 1233
Flags: W
TeX: 0 0 0 0
Fore
698.625 168 m 1,0,1
 655.126 68.001 655.126 68.001 589.125 20 c 0,2,3
 522.373 -29 522.373 -29 429.375 -29 c 0,4,5
 277.126 -29 277.126 -29 181.125 133 c 0,6,7
 85.875 295.001 85.875 295.001 85.875 559 c 0,8,9
 85.875 822.999 85.875 822.999 181.125 985 c 0,10,11
 277.126 1147 277.126 1147 429.375 1147 c 0,12,13
 522.373 1147 522.373 1147 589.125 1098 c 0,14,15
 655.126 1050 655.126 1050 698.625 950 c 1,16,-1
 698.625 1000 l 1,17,-1
 698.625 1120 l 1,18,-1
 698.625 1148 l 2,19,20
 698.625 1362 698.625 1362 760.125 1458 c 0,21,22
 820.875 1554 820.875 1554 956.625 1554 c 2,23,-1
 1147.12 1554 l 1,24,-1
 1147.12 1398 l 1,25,-1
 972.375 1398 l 2,26,27
 893.626 1398 893.626 1398 865.125 1350 c 0,28,29
 836.625 1301 836.625 1301 836.625 1148 c 2,30,-1
 836.625 1120 l 1,31,-1
 836.625 1000 l 1,32,-1
 836.625 -426 l 1,33,-1
 698.625 -426 l 1,34,-1
 698.625 168 l 1,0,1
228.375 559 m 0,35,36
 228.375 356 228.375 356 290.625 240 c 0,37,38
 353.626 125 353.626 125 463.125 125 c 0,39,40
 572.624 125 572.624 125 635.625 240 c 0,41,42
 698.625 356.001 698.625 356.001 698.625 559 c 0,43,44
 698.625 761.999 698.625 761.999 635.625 878 c 0,45,46
 572.624 993 572.624 993 463.125 993 c 0,47,48
 353.626 993 353.626 993 290.625 878 c 0,49,50
 228.375 762 228.375 762 228.375 559 c 0,35,36
EndSplineSet
EndChar
StartChar: uni02A1
Encoding: 673 673 673
Width: 1233
Flags: W
Fore
446 798 m 1,0,-1
 509 798 l 2,1,2
 700.999 798 700.999 798 787 912 c 0,3,4
 845 988 845 988 845 1086 c 0,5,6
 844.001 1219 844.001 1219 787 1284 c 0,7,8
 688 1398 688 1398 509 1398 c 0,9,10
 429.003 1398 429.003 1398 350 1376 c 0,11,12
 272.003 1355 272.003 1355 194 1312 c 1,13,-1
 194 1484 l 1,14,15
 269.99 1519 269.99 1519 351 1536 c 0,16,17
 432 1554 432 1554 517 1554 c 0,18,19
 791.999 1554 791.999 1554 930 1397 c 0,20,21
 1039 1272 1039 1272 1039 1086 c 0,22,23
 1039 915.999 1039 915.999 931 801 c 0,24,25
 819.002 682 819.002 682 649 652 c 1,26,-1
 649 440 l 1,27,-1
 880 440 l 1,28,-1
 880 276 l 1,29,-1
 649 276 l 1,30,-1
 649 0 l 1,31,-1
 447 0 l 1,32,-1
 446.654 276 l 1,33,-1
 218 276 l 1,34,-1
 218 440 l 1,35,-1
 446.449 440 l 1,36,-1
 446 798 l 1,0,-1
EndSplineSet
EndChar
StartChar: uni02A2
Encoding: 674 674 674
Width: 1233
Flags: W
Fore
584 440 m 1,0,-1
 584 652 l 1,1,2
 413.998 682 413.998 682 302 801 c 0,3,4
 194 915.999 194 915.999 194 1086 c 0,5,6
 194 1272 194 1272 304 1397 c 0,7,8
 441.002 1554 441.002 1554 716 1554 c 0,9,10
 801 1554 801 1554 882 1536 c 0,11,12
 963.01 1519 963.01 1519 1039 1484 c 1,13,-1
 1039 1312 l 1,14,15
 960.997 1355 960.997 1355 882 1376 c 0,16,17
 803.997 1398 803.997 1398 724 1398 c 0,18,19
 545 1398 545 1398 446 1284 c 0,20,21
 388.999 1219 388.999 1219 388 1086 c 0,22,23
 388 988 388 988 446 912 c 0,24,25
 532.001 798 532.001 798 724 798 c 2,26,-1
 786 798 l 1,27,-1
 786 440 l 1,28,-1
 1015 440 l 1,29,-1
 1015 276 l 1,30,-1
 786 276 l 1,31,-1
 786 0 l 1,32,-1
 584 0 l 1,33,-1
 584 276 l 1,34,-1
 353 276 l 1,35,-1
 353 440 l 1,36,-1
 584 440 l 1,0,-1
EndSplineSet
EndChar
StartChar: uni02A3
Encoding: 675 675 675
Width: 1233
Flags: W
TeX: 0 0 0 0
Fore
167.699 559 m 0,0,1
 167.699 356.002 167.699 356.002 217.801 240.5 c 0,2,3
 267.898 125 267.898 125 355.5 125 c 0,4,5
 443.101 125 443.101 125 493.5 240.5 c 0,6,7
 543.9 356.002 543.9 356.002 543.9 559 c 0,8,9
 543.9 761.997 543.9 761.997 493.5 877.5 c 0,10,11
 443.101 993 443.101 993 355.5 993 c 0,12,13
 267.898 993 267.898 993 217.801 877.5 c 0,14,15
 167.699 761.998 167.699 761.998 167.699 559 c 0,0,1
543.9 950 m 1,16,-1
 543.9 1556 l 1,17,-1
 654.301 1556 l 1,18,-1
 654.301 1120 l 1,19,-1
 1177.3 1120 l 1,20,-1
 1177.3 952 l 1,21,-1
 762.1 147 l 1,22,-1
 1177.3 147 l 1,23,-1
 1177.3 0 l 1,24,-1
 654.301 0 l 1,25,-1
 637.9 0 l 1,26,-1
 543.9 0 l 1,27,-1
 543.9 168 l 1,28,29
 510.903 71.0807 510.903 71.0807 451.605 19.5 c 0,30,31
 395.85 -29 395.85 -29 317.73 -29 c 0,32,33
 189.839 -29 189.839 -29 109.514 133 c 0,34,35
 29.1885 295.002 29.1885 295.002 29.1914 559 c 0,36,37
 29.1914 823.004 29.1914 823.004 109.514 985 c 0,38,39
 189.839 1147 189.839 1147 317.73 1147 c 0,40,41
 395.85 1147 395.85 1147 451.605 1098.5 c 0,42,43
 509.853 1050 509.853 1050 543.9 950 c 1,16,-1
654.301 973 m 1,44,-1
 654.301 199.798 l 1,45,-1
 1053.1 973 l 1,46,-1
 654.301 973 l 1,44,-1
EndSplineSet
EndChar
StartChar: uni02A4
Encoding: 676 676 676
Width: 1233
Flags: W
TeX: 0 0 0 0
Fore
141 559 m 0,0,1
 141 356 141 356 191 240 c 0,2,3
 241 125 241 125 329 125 c 0,4,5
 416 125 416 125 467 240 c 0,6,7
 517 356 517 356 517 559 c 0,8,9
 517 762 517 762 467 878 c 0,10,11
 416 993 416 993 329 993 c 0,12,13
 241 993 241 993 191 878 c 0,14,15
 141 762 141 762 141 559 c 0,0,1
627 973 m 1,16,-1
 628 0 l 1,17,-1
 517 0 l 1,18,-1
 517 168 l 1,19,20
 482 68 482 68 429 20 c 0,21,22
 376 -29 376 -29 302 -29 c 0,23,24
 180 -29 180 -29 104 133 c 0,25,26
 27 295 27 295 27 559 c 0,27,28
 27 823 27 823 104 985 c 0,29,30
 180 1147 180 1147 302 1147 c 0,31,32
 376 1147 376 1147 429 1098 c 0,33,34
 482 1050 482 1050 517 950 c 1,35,-1
 517 1556 l 1,36,-1
 628 1556 l 1,37,-1
 627 1120 l 1,38,-1
 1151 1120 l 1,39,-1
 1151 952 l 1,40,-1
 905 476 l 1,41,42
 968 476 968 476 1045 420 c 0,43,44
 1104 378 1104 378 1155 269 c 0,45,46
 1204 165 1204 165 1204 27 c 0,47,48
 1204 -194 1204 -194 1113 -315 c 0,49,50
 1022 -436 1022 -436 854 -436 c 0,51,52
 797 -436 797 -436 738 -418 c 0,53,54
 678 -399 678 -399 614 -362 c 1,55,-1
 614 -167 l 1,56,57
 665 -216 665 -216 725 -241 c 0,58,59
 785 -266 785 -266 850 -266 c 0,60,61
 964 -266 964 -266 1023 -191 c 0,62,63
 1083 -116 1083 -116 1083 27 c 0,64,65
 1083 159 1083 159 1028 234 c 0,66,67
 972 308 972 308 873 308 c 2,68,-1
 769 308 l 1,69,-1
 769 474 l 1,70,-1
 1027 973 l 1,71,-1
 628 973 l 1,72,-1
 627 973 l 1,16,-1
EndSplineSet
EndChar
StartChar: uni02A5
Encoding: 677 677 677
Width: 1233
Flags: W
TeX: 0 0 0 0
Fore
168.6 559 m 0,0,1
 168.6 356.005 168.6 356.005 218.699 240.5 c 0,2,3
 268.8 125 268.8 125 356.4 125 c 0,4,5
 444.001 125 444.001 125 494.4 240.5 c 0,6,7
 544.801 356.002 544.801 356.002 544.801 559 c 0,8,9
 544.801 761.998 544.801 761.998 494.4 877.5 c 0,10,11
 444.001 993 444.001 993 356.4 993 c 0,12,13
 268.8 993 268.8 993 218.699 877.5 c 0,14,15
 168.6 761.995 168.6 761.995 168.6 559 c 0,0,1
652 973 m 1,16,-1
 655.199 203.285 l 1,17,-1
 1052.2 973 l 1,18,-1
 655.199 973 l 1,19,-1
 652 973 l 1,16,-1
655.199 1120 m 1,20,-1
 1176.4 1120 l 1,21,-1
 1176.4 952 l 1,22,-1
 761.199 147 l 1,23,-1
 865.977 147 l 1,24,25
 902 435 902 435 1033.6 435 c 0,26,27
 1169.8 435 1169.8 435 1170.4 189 c 0,28,29
 1171 0 1171 0 970.6 0 c 2,30,-1
 946.195 -4.99378e-06 l 1,31,32
 944.199 -51.0396 944.199 -51.0396 944.199 -111 c 1,33,-1
 852.4 -111 l 1,34,35
 852.4 -28.3187 852.4 -28.3187 853.491 -1 c 1,36,-1
 637 0 l 1,37,-1
 544.801 0 l 1,38,-1
 544.801 168 l 1,39,40
 509.998 67.9984 509.998 67.9984 456.9 19.5 c 0,41,42
 403.801 -29 403.801 -29 329.4 -29 c 0,43,44
 207.6 -29 207.6 -29 131.1 133 c 0,45,46
 54.5996 295 54.5996 295 54.5996 559 c 0,47,48
 54.5996 823 54.5996 823 131.1 985 c 0,49,50
 207.6 1147 207.6 1147 329.4 1147 c 0,51,52
 403.801 1147 403.801 1147 456.9 1098.5 c 0,53,54
 509.998 1050 509.998 1050 544.801 950 c 1,55,-1
 544.801 1556 l 1,56,-1
 655.199 1556 l 1,57,-1
 655.199 1120 l 1,20,-1
958.633 147 m 1,58,-1
 970.6 147 l 2,59,60
 1075 147 1075 147 1075 201 c 0,61,62
 1075 292 1075 292 1033 292 c 0,63,64
 980.001 290.209 980.001 290.209 958.633 147 c 1,58,-1
EndSplineSet
EndChar
StartChar: uni02A6
Encoding: 678 678 678
Width: 1233
Flags: W
TeX: 0 0 0 0
Fore
1044 1087 m 1,0,-1
 1044 913 l 1,1,2
 997.202 952.998 997.202 952.998 946.801 973 c 0,3,4
 896.401 993 896.401 993 842.4 993 c 0,5,6
 760.2 993 760.2 993 719.1 951 c 0,7,8
 678 909.001 678 909.001 678 825 c 0,9,10
 678 761.002 678 761.002 707.4 724.5 c 0,11,12
 736.924 687.843 736.924 687.843 825.6 655 c 2,13,-1
 863.4 641 l 2,14,15
 982.328 596.954 982.328 596.954 1030.5 522.5 c 0,16,17
 1080 446 1080 446 1080 309 c 0,18,19
 1080 152.998 1080 152.998 1005.9 62 c 0,20,21
 931.799 -29 931.799 -29 802.199 -29 c 0,22,23
 748.202 -29 748.202 -29 689.699 -11.5 c 0,24,25
 633.914 5.18704 633.914 5.18704 572.4 37.7895 c 1,26,-1
 572.4 0 l 1,27,-1
 459 0 l 2,28,29
 331.2 0 331.2 0 282.6 79.5 c 0,30,31
 234 158.998 234 158.998 234 369 c 2,32,-1
 234 977 l 1,33,-1
 153 977 l 1,34,-1
 153 1120 l 1,35,-1
 234 1120 l 1,36,-1
 234 1438 l 1,37,-1
 345 1438 l 1,38,-1
 345 1120 l 1,39,-1
 572.4 1120 l 1,40,-1
 572.4 977 l 1,41,-1
 345 977 l 1,42,-1
 345 369 l 2,43,44
 345 232 345 232 367.5 193 c 0,45,46
 390 154 390 154 459 154 c 2,47,-1
 566.4 154 l 1,48,-1
 566.4 231 l 1,49,50
 627.597 178.001 627.597 178.001 687 151.5 c 0,51,52
 746.402 125 746.402 125 804.6 125 c 0,53,54
 882.599 125 882.599 125 924.6 169.5 c 0,55,56
 966.6 213.999 966.6 213.999 966.6 295 c 0,57,58
 966.6 370.001 966.6 370.001 936.301 410 c 0,59,60
 909.311 445.63 909.311 445.63 803.4 487 c 2,61,-1
 765 502 l 1,62,63
 662.399 538 662.399 538 616.801 612.5 c 0,64,65
 571.199 687.001 571.199 687.001 571.199 817 c 0,66,67
 571.199 974.999 571.199 974.999 638.4 1061 c 0,68,69
 705.598 1147 705.598 1147 829.199 1147 c 0,70,71
 890.4 1147 890.4 1147 944.4 1132 c 0,72,73
 998.399 1117 998.399 1117 1044 1087 c 1,0,-1
EndSplineSet
EndChar
StartChar: uni02A7
Encoding: 679 679 679
Width: 1233
Flags: W
TeX: 0 0 0 0
Fore
393 1438 m 1,0,-1
 393 1120 l 1,1,-1
 674 1120 l 1,2,-1
 674 1198 l 2,3,4
 674 1379.89 674 1379.89 739 1470 c 0,5,6
 799.351 1556 799.351 1556 946 1556 c 2,7,-1
 1076 1556 l 1,8,-1
 1076 1403 l 1,9,-1
 944 1403 l 2,10,11
 870.148 1403 870.148 1403 842 1363 c 0,12,13
 812 1322.5 812 1322.5 812 1219 c 1,14,-1
 814 -20 l 1,15,16
 814 -234.78 814 -234.78 753 -330 c 0,17,18
 691.5 -426 691.5 -426 556 -426 c 2,19,-1
 503 -426 l 1,20,-1
 503 -270 l 1,21,-1
 540 -270 l 2,22,23
 618.5 -270 618.5 -270 647 -222 c 0,24,25
 676 -171.632 676 -171.632 676 -20 c 2,26,-1
 676 -0 l 1,27,-1
 535 0 l 2,28,29
 374.259 0 374.259 0 315 80 c 1,30,31
 254 157.366 254 157.366 254 369 c 2,32,-1
 254 977 l 1,33,-1
 153 977 l 1,34,-1
 153 1120 l 1,35,-1
 254 1120 l 1,36,-1
 254 1438 l 1,37,-1
 393 1438 l 1,0,-1
675 154 m 1,38,39
 674 433 674 433 674 977 c 1,40,-1
 393 977 l 1,41,-1
 393 369 l 2,42,43
 393 231.316 393 231.316 421 193 c 0,44,45
 449.5 154 449.5 154 535 154 c 2,46,-1
 675 154 l 1,38,39
EndSplineSet
EndChar
StartChar: uni02A8
Encoding: 680 680 680
Width: 1233
Flags: W
TeX: 0 0 0 0
Fore
373.199 1438 m 1,0,-1
 373.199 1120 l 1,1,-1
 600.6 1120 l 1,2,-1
 600.6 989.651 l 1,3,4
 690.8 1147 690.8 1147 848 1147 c 0,5,6
 898.993 1147 898.993 1147 947.6 1130 c 0,7,8
 996.195 1112 996.195 1112 1041.8 1077 c 1,9,-1
 1041.8 905 l 1,10,11
 995.008 947.994 995.008 947.994 947.6 970 c 0,12,13
 900.798 991 900.798 991 852.801 991 c 0,14,15
 745.4 991 745.4 991 686 878 c 0,16,17
 626.6 764.004 626.6 764.004 626.6 559 c 0,18,19
 626.6 353.996 626.6 353.996 686 240 c 0,20,21
 689.698 232.965 689.698 232.965 693.582 226.368 c 1,22,23
 744.399 402 744.399 402 861.801 402 c 0,24,25
 1041.2 402 1041.2 402 1041.8 156 c 0,26,27
 1042.4 -33 1042.4 -33 842 -33 c 0,28,29
 792.757 -33 792.757 -33 749.954 -15.8472 c 1,30,31
 746.6 -72.5703 746.6 -72.5703 746.6 -141 c 1,32,-1
 654.801 -144 l 1,33,34
 654.801 -40.1471 654.801 -40.1471 662.29 43.9523 c 1,35,36
 628.553 78.3795 628.553 78.3795 600.6 128.209 c 1,37,-1
 600.6 0 l 1,38,-1
 487.199 0 l 2,39,40
 359.398 0 359.398 0 310.801 79.5 c 0,41,42
 262.199 158.997 262.199 158.997 262.199 369 c 2,43,-1
 262.199 977 l 1,44,-1
 181.199 977 l 1,45,-1
 181.199 1120 l 1,46,-1
 262.199 1120 l 1,47,-1
 262.199 1438 l 1,48,-1
 373.199 1438 l 1,0,-1
771.876 146.488 m 1,49,50
 808.199 127 808.199 127 852.801 127 c 0,51,52
 940.398 127 940.398 127 940.398 184 c 0,53,54
 939.801 259 939.801 259 861.199 259 c 0,55,56
 800.421 259 800.421 259 771.876 146.488 c 1,49,50
587.061 154 m 1,57,58
 510.199 310.503 510.199 310.503 510.199 559 c 0,59,60
 510.199 821.828 510.199 821.828 593.562 977 c 1,61,-1
 373.199 977 l 1,62,-1
 373.199 369 l 2,63,64
 373.199 232 373.199 232 395.699 193 c 0,65,66
 418.199 154 418.199 154 487.199 154 c 2,67,-1
 587.061 154 l 1,57,58
EndSplineSet
EndChar
StartChar: uni02A9
Encoding: 681 681 681
Width: 1233
Flags: W
TeX: 0 0 0 0
Fore
1095.1 676 m 2,0,-1
 1095.1 -20 l 2,1,2
 1095.1 -233.998 1095.1 -233.998 1045.9 -330 c 0,3,4
 997.3 -426 997.3 -426 888.699 -426 c 2,5,-1
 736.301 -426 l 1,6,-1
 736.301 -270 l 1,7,-1
 876.1 -270 l 2,8,9
 939.099 -270 939.099 -270 961.9 -222 c 0,10,11
 984.699 -172.998 984.699 -172.998 984.699 -20 c 2,12,-1
 984.699 670 l 2,13,14
 984.699 829.002 984.699 829.002 947.5 908 c 0,15,16
 910.3 987 910.3 987 835.9 987 c 0,17,18
 746.502 987 746.502 987 694.9 892 c 0,19,20
 643.301 797.004 643.301 797.004 643.301 633 c 2,21,-1
 643.301 0 l 1,22,-1
 532.301 0 l 1,23,-1
 532.301 977 l 1,24,-1
 352.5 977 l 1,25,-1
 352.5 0 l 1,26,-1
 241.5 0 l 1,27,-1
 241.5 977 l 1,28,-1
 135.9 977 l 1,29,-1
 135.9 1120 l 1,30,-1
 241.5 1120 l 1,31,-1
 241.5 1198 l 2,32,33
 241.5 1385 241.5 1385 293.699 1470.5 c 0,34,35
 345.9 1556 345.9 1556 459.301 1556 c 2,36,-1
 563.699 1556 l 1,37,-1
 563.699 1403 l 1,38,-1
 458.1 1403 l 2,39,40
 398.701 1403 398.701 1403 375.6 1363 c 0,41,42
 352.5 1323 352.5 1323 352.5 1219 c 2,43,-1
 352.5 1120 l 1,44,-1
 532.301 1120 l 1,45,-1
 534.301 1120 l 1,46,-1
 643.301 1120 l 1,47,-1
 643.301 946 l 1,48,49
 682.901 1047 682.901 1047 736.301 1097 c 0,50,51
 790.303 1147 790.303 1147 860.5 1147 c 0,52,53
 976.299 1147 976.299 1147 1035.7 1028 c 0,54,55
 1095.1 908.004 1095.1 908.004 1095.1 676 c 2,0,-1
EndSplineSet
EndChar
StartChar: uni02AA
Encoding: 682 682 682
Width: 1233
Flags: W
TeX: 0 0 0 0
Fore
958 1087 m 1,0,-1
 958 913 l 1,1,2
 899.096 953.78 899.096 953.78 837 973 c 0,3,4
 772.385 993 772.385 993 706 993 c 0,5,6
 603 993 603 993 552 951 c 0,7,8
 501 909 501 909 501 825 c 0,9,10
 501 761.5 501 761.5 537 724 c 1,11,12
 574.724 687.785 574.724 687.785 685 655 c 2,13,-1
 732 641 l 2,14,15
 880.631 597.462 880.631 597.462 941 522 c 0,16,17
 1003 446.39 1003 446.39 1003 309 c 0,18,19
 1003 153.5 1003 153.5 910 62 c 0,20,21
 819 -29 819 -29 656 -29 c 0,22,23
 590.727 -29 590.727 -29 515 -12 c 1,24,25
 436.34 8.52 436.34 8.52 368 38 c 1,26,-1
 368 0 l 1,27,-1
 230 0 l 1,28,-1
 230 1556 l 1,29,-1
 368 1556 l 1,30,-1
 368 846 l 1,31,32
 375.588 984.11 375.588 984.11 451 1061 c 0,33,34
 535.491 1147 535.491 1147 690 1147 c 0,35,36
 766.5 1147 766.5 1147 834 1132 c 0,37,38
 900.635 1117.19 900.635 1117.19 958 1087 c 1,0,-1
368 788 m 1,39,-1
 368 226 l 1,40,41
 443.001 175.489 443.001 175.489 512 152 c 0,42,43
 585.5 125 585.5 125 659 125 c 0,44,45
 756.5 125 756.5 125 809 170 c 0,46,47
 861 213.086 861 213.086 861 295 c 0,48,49
 861 370.04 861 370.04 824 410 c 0,50,51
 790.44 445.019 790.44 445.019 657 487 c 2,52,-1
 609 502 l 1,53,54
 481.356 538.041 481.356 538.041 424 612 c 0,55,56
 374.106 676.569 374.106 676.569 368 788 c 1,39,-1
EndSplineSet
EndChar
StartChar: uni02AB
Encoding: 683 683 683
Width: 1233
Flags: W
TeX: 0 0 0 0
Fore
219.375 1556 m 1,0,-1
 357.375 1556 l 1,1,-1
 357.375 1120 l 1,2,-1
 1011.62 1120 l 1,3,-1
 1011.62 952 l 1,4,-1
 492.625 147 l 1,5,-1
 1011.62 147 l 1,6,-1
 1011.62 0 l 1,7,-1
 357.375 0 l 1,8,-1
 337.375 0 l 1,9,-1
 219.375 0 l 1,10,-1
 219.375 1556 l 1,0,-1
357.375 973 m 1,11,-1
 357.375 199.021 l 1,12,-1
 856.375 973 l 1,13,-1
 357.375 973 l 1,11,-1
EndSplineSet
EndChar
StartChar: uni02AC
Encoding: 684 684 684
Width: 1233
Flags: W
TeX: 0 0 0 0
Fore
143.055 597.2 m 1,0,-1
 258.976 597.2 l 1,1,-1
 403.875 107.761 l 1,2,-1
 548.146 597.2 l 1,3,-1
 684.855 597.2 l 1,4,-1
 829.756 107.761 l 1,5,-1
 974.025 597.2 l 1,6,-1
 1089.95 597.2 l 1,7,-1
 905.355 -30 l 1,8,-1
 768.646 -30 l 1,9,-1
 616.814 484.08 l 1,10,-1
 464.355 -30 l 1,11,-1
 327.646 -30 l 1,12,-1
 143.055 597.2 l 1,0,-1
143.055 1311.2 m 1,0,-1
 258.976 1311.2 l 1,1,-1
 403.875 821.76 l 1,2,-1
 548.146 1311.2 l 1,3,-1
 684.855 1311.2 l 1,4,-1
 829.755 821.76 l 1,5,-1
 974.025 1311.2 l 1,6,-1
 1089.95 1311.2 l 1,7,-1
 905.355 684 l 1,8,-1
 768.646 684 l 1,9,-1
 616.815 1198.08 l 1,10,-1
 464.355 684 l 1,11,-1
 327.646 684 l 1,12,-1
 143.055 1311.2 l 1,0,-1
EndSplineSet
EndChar
StartChar: uni02AD
Encoding: 685 685 685
Width: 1233
Flags: W
TeX: 0 0 0 0
Fore
143 597 m 1,0,-1
 1090 597 l 1,1,-1
 1090 173 l 1,2,-1
 947 173 l 1,3,-1
 947 434 l 1,4,-1
 286 434 l 1,5,-1
 286 173 l 1,6,-1
 143 173 l 1,7,-1
 143 597 l 1,0,-1
143 1311 m 1,0,-1
 1090 1311 l 1,1,-1
 1090 887 l 1,2,-1
 947 887 l 1,3,-1
 947 1148 l 1,4,-1
 286 1148 l 1,5,-1
 286 887 l 1,6,-1
 143 887 l 1,7,-1
 143 1311 l 1,0,-1
EndSplineSet
EndChar
StartChar: uni02AE
Encoding: 686 686 686
Width: 1233
Flags: W
TeX: 0 0 0 0
Fore
489 1002 m 1,0,-1
 489 448 l 2,1,2
 489 288.999 489 288.999 535.5 210 c 0,3,4
 582.001 131 582.001 131 675 131 c 0,5,6
 786.751 131 786.751 131 851.25 226 c 0,7,8
 915.75 321.001 915.75 321.001 915.75 485 c 2,9,-1
 915.75 1118 l 1,10,-1
 1054.5 1118 l 1,11,-1
 1054.5 -438 l 1,12,-1
 915.75 -438 l 1,13,-1
 915.75 172 l 1,14,15
 866.252 71.0021 866.252 71.0021 799.5 21 c 0,16,17
 732.001 -29 732.001 -29 644.25 -29 c 0,18,19
 499.499 -29 499.499 -29 425.25 90 c 0,20,21
 351 210 351 210 351 442 c 2,22,-1
 351 1002 l 1,23,-1
 351 1118 l 1,24,-1
 351 1150 l 2,25,26
 351 1303 351 1303 322.5 1352 c 0,27,28
 294 1400 294 1400 215.25 1400 c 2,29,-1
 178.5 1400 l 1,30,-1
 178.5 1556 l 1,31,-1
 231 1556 l 2,32,33
 366.75 1556 366.75 1556 427.5 1460 c 0,34,35
 489 1364 489 1364 489 1150 c 2,36,-1
 489 1118 l 1,37,-1
 489 1002 l 1,0,-1
EndSplineSet
EndChar
StartChar: uni02AF
Encoding: 687 687 687
Width: 1233
Flags: W
TeX: 0 0 0 0
Fore
786.9 0 m 1,0,-1
 786.9 172 l 1,1,2
 747.301 71.0021 747.301 71.0021 693.9 21 c 0,3,4
 639.901 -29 639.901 -29 569.699 -29 c 0,5,6
 453.899 -29 453.899 -29 394.5 90 c 0,7,8
 335.1 210.002 335.1 210.002 335.1 442 c 2,9,-1
 335.1 1002 l 1,10,-1
 335.1 1118 l 1,11,-1
 335.1 1150 l 2,12,13
 335.1 1303 335.1 1303 312.301 1352 c 0,14,15
 289.499 1400 289.499 1400 226.5 1400 c 2,16,-1
 197.1 1400 l 1,17,-1
 197.1 1556 l 1,18,-1
 239.1 1556 l 2,19,20
 347.7 1556 347.7 1556 396.301 1460 c 0,21,22
 445.5 1364 445.5 1364 445.5 1150 c 2,23,-1
 445.5 1118 l 1,24,-1
 445.5 1002 l 1,25,-1
 445.5 448 l 2,26,27
 445.5 289.001 445.5 289.001 482.699 210 c 0,28,29
 519.901 131 519.901 131 594.301 131 c 0,30,31
 683.701 131 683.701 131 735.301 226 c 0,32,33
 786.9 321.005 786.9 321.005 786.9 485 c 2,34,-1
 786.9 1118 l 1,35,-1
 897.9 1118 l 1,36,-1
 897.9 0 l 1,37,-1
 897.9 -20 l 1,38,39
 895.501 -168 895.501 -168 920.699 -222 c 0,40,41
 943.501 -270 943.501 -270 1005.9 -270 c 2,42,-1
 1035.9 -270 l 1,43,-1
 1035.9 -426 l 1,44,-1
 993.9 -426 l 2,45,46
 884.701 -426 884.701 -426 835.5 -330 c 0,47,48
 790.5 -240.999 790.5 -240.999 787.5 -20 c 1,49,-1
 786.9 0 l 1,0,-1
EndSplineSet
EndChar
StartChar: uni02B0
Encoding: 688 688 688
Width: 1233
VWidth: 2716
Flags: W
TeX: 0 0 0 0
Fore
911.97 1046.56 m 2,0,-1
 911.97 668 l 1,1,-1
 796.05 668 l 1,2,-1
 796.05 1043.2 l 2,3,4
 796.05 1132.24 796.05 1132.24 756.99 1176.48 c 128,-1,5
 717.93 1220.72 717.93 1220.72 639.81 1220.72 c 0,6,7
 545.94 1220.72 545.94 1220.72 491.76 1167.52 c 128,-1,8
 437.58 1114.32 437.58 1114.32 437.58 1022.48 c 2,9,-1
 437.58 668 l 1,10,-1
 321.03 668 l 1,11,-1
 321.03 1539.36 l 1,12,-1
 437.58 1539.36 l 1,13,-1
 437.58 1197.76 l 1,14,15
 479.16 1254.32 479.16 1254.32 535.545 1282.32 c 128,-1,16
 591.93 1310.32 591.93 1310.32 665.64 1310.32 c 0,17,18
 787.23 1310.32 787.23 1310.32 849.6 1243.4 c 128,-1,19
 911.97 1176.48 911.97 1176.48 911.97 1046.56 c 2,0,-1
EndSplineSet
EndChar
StartChar: uni02B1
Encoding: 689 689 689
Width: 1233
VWidth: 2032
Flags: W
TeX: 0 0 0 0
Fore
436.95 1196.38 m 1,13,-1
 437.58 1196.4 l 1,14,15
 479.16 1252.96 479.16 1252.96 535.545 1280.96 c 128,-1,16
 591.93 1308.96 591.93 1308.96 665.64 1308.96 c 0,17,18
 787.23 1308.96 787.23 1308.96 849.6 1242.04 c 128,-1,19
 911.97 1175.12 911.97 1175.12 911.97 1045.2 c 2,0,-1
 911.97 666.64 l 1,1,-1
 796.05 666.64 l 1,2,-1
 796.05 1041.84 l 2,3,4
 796.05 1130.88 796.05 1130.88 756.99 1175.12 c 128,-1,5
 717.93 1219.36 717.93 1219.36 639.81 1219.36 c 0,6,7
 545.94 1219.36 545.94 1219.36 491.76 1166.16 c 128,-1,8
 437.58 1112.96 437.58 1112.96 437.58 1021.12 c 2,9,-1
 437.58 666.64 l 1,10,-1
 321.03 666.64 l 1,11,-1
 321.03 1227.76 l 1,12,-1
 321.03 1310.64 l 2,2,3
 321.03 1430.48 321.03 1430.48 372.69 1484.24 c 128,-1,4
 423.72 1538 423.72 1538 537.75 1538 c 2,5,-1
 697.77 1538 l 1,6,-1
 697.77 1450.64 l 1,7,-1
 550.98 1450.64 l 2,8,9
 484.83 1450.64 484.83 1450.64 460.89 1423.76 c 128,-1,10
 436.95 1396.3 436.95 1396.3 436.95 1310.64 c 2,11,-1
 436.95 1196.38 l 1,13,-1
EndSplineSet
EndChar
StartChar: uni02B2
Encoding: 690 690 690
Width: 1233
VWidth: 2032
Flags: W
TeX: 0 0 0 0
Fore
630.99 1295.2 m 1,0,-1
 746.91 1295.2 l 1,1,-1
 746.91 656.8 l 2,2,3
 746.91 536.96 746.91 536.96 695.564 483.2 c 128,-1,4
 644.22 429.44 644.22 429.44 530.189 429.44 c 2,5,-1
 486.09 429.44 l 1,6,-1
 486.09 516.8 l 1,7,-1
 516.959 516.8 l 2,8,9
 583.109 516.8 583.109 516.8 607.05 543.96 c 128,-1,10
 630.99 571.12 630.99 571.12 630.99 656.8 c 2,11,-1
 630.99 1295.2 l 1,0,-1
630.99 1539.36 m 1,12,-1
 746.91 1539.36 l 1,13,-1
 746.91 1408.88 l 1,14,-1
 630.99 1408.88 l 1,15,-1
 630.99 1539.36 l 1,12,-1
EndSplineSet
EndChar
StartChar: uni02B3
Encoding: 691 691 691
Width: 1233
VWidth: 2032
Flags: W
TeX: 0 0 0 0
Fore
823.14 1198.88 m 1,0,1
 803.61 1208.96 803.61 1208.96 780.615 1213.72 c 128,-1,2
 757.62 1218.48 757.62 1218.48 729.9 1218.48 c 0,3,4
 631.62 1218.48 631.62 1218.48 579.015 1161.64 c 128,-1,5
 526.41 1104.8 526.41 1104.8 526.41 998.4 c 2,6,-1
 526.41 668 l 1,7,-1
 409.86 668 l 1,8,-1
 409.86 1295.2 l 1,9,-1
 526.41 1295.2 l 1,10,-1
 526.41 1197.76 l 1,11,12
 562.95 1254.88 562.95 1254.88 621.54 1282.6 c 128,-1,13
 680.13 1310.32 680.13 1310.32 763.92 1310.32 c 0,14,15
 775.89 1310.32 775.89 1310.32 790.38 1308.92 c 128,-1,16
 804.87 1307.52 804.87 1307.52 822.51 1304.72 c 1,17,-1
 823.14 1198.88 l 1,0,1
EndSplineSet
EndChar
StartChar: uni02B4
Encoding: 692 692 692
Width: 1233
VWidth: 2032
Flags: W
TeX: 0 0 0 0
Fore
409.86 764.32 m 1,0,1
 429.39 754.24 429.39 754.24 452.385 749.48 c 128,-1,2
 475.38 744.72 475.38 744.72 503.1 744.72 c 0,3,4
 601.38 744.72 601.38 744.72 653.984 801.56 c 128,-1,5
 706.59 858.4 706.59 858.4 706.59 964.8 c 2,6,-1
 706.59 1295.2 l 1,7,-1
 823.14 1295.2 l 1,8,-1
 823.14 668 l 1,9,-1
 706.59 668 l 1,10,-1
 706.59 765.44 l 1,11,12
 670.05 708.32 670.05 708.32 611.46 680.6 c 128,-1,13
 552.87 652.88 552.87 652.88 469.08 652.88 c 0,14,15
 457.109 652.88 457.109 652.88 442.62 654.28 c 128,-1,16
 428.13 655.68 428.13 655.68 410.49 658.48 c 1,17,-1
 409.86 764.32 l 1,0,1
EndSplineSet
EndChar
StartChar: uni02B5
Encoding: 693 693 693
Width: 1233
VWidth: 2032
Flags: W
TeX: 0 0 0 0
Fore
337.41 764.32 m 1,0,1
 356.944 754.237 356.944 754.237 379.936 749.48 c 0,2,3
 402.926 744.721 402.926 744.721 430.648 744.721 c 0,4,5
 528.932 744.721 528.932 744.721 581.535 801.561 c 0,6,7
 634.141 858.399 634.141 858.399 634.141 964.801 c 2,8,-1
 634.141 1295.2 l 1,9,-1
 750.689 1295.2 l 1,10,-1
 750.689 739.68 l 1,11,-1
 750.689 668 l 1,12,-1
 750.689 656.801 l 2,13,14
 750.689 571.119 750.689 571.119 774.631 543.68 c 0,15,16
 798.568 516.801 798.568 516.801 864.721 516.801 c 2,17,-1
 895.59 516.801 l 1,18,-1
 895.59 429.439 l 1,19,-1
 851.49 429.439 l 2,20,21
 737.459 429.439 737.459 429.439 686.43 483.199 c 0,22,23
 634.77 536.96 634.77 536.96 634.77 656.801 c 2,24,-1
 634.77 668 l 1,25,-1
 634.141 668 l 1,26,-1
 634.141 765.439 l 1,27,28
 597.599 708.319 597.599 708.319 539.01 680.6 c 0,29,30
 480.423 652.881 480.423 652.881 396.631 652.881 c 0,31,32
 384.67 652.881 384.67 652.881 370.17 654.279 c 0,33,34
 355.685 655.679 355.685 655.679 338.039 658.48 c 1,35,-1
 337.41 764.32 l 1,0,1
EndSplineSet
EndChar
StartChar: uni02B6
Encoding: 694 694 694
Width: 1233
VWidth: 2032
Flags: W
TeX: 0 0 0 0
Fore
684.225 1001.2 m 1,0,1
 751.005 986.08 751.005 986.08 786.285 946.88 c 128,-1,2
 821.565 907.68 821.565 907.68 821.565 848.88 c 0,3,4
 821.565 758.16 821.565 758.16 754.155 712.8 c 0,5,6
 686.115 668 686.115 668 549.405 668 c 2,7,-1
 304.965 668 l 1,8,-1
 304.965 1295.2 l 1,9,-1
 421.515 1295.2 l 1,10,-1
 421.515 1030.32 l 1,11,-1
 527.985 1030.32 l 2,12,13
 589.095 1030.32 589.095 1030.32 626.265 1051.04 c 0,14,15
 663.435 1071.2 663.435 1071.2 703.125 1134.48 c 1,16,-1
 805.185 1295.2 l 1,17,-1
 928.035 1295.2 l 1,18,-1
 818.415 1123.84 l 1,19,20
 785.025 1071.2 785.025 1071.2 752.265 1040.96 c 0,21,22
 718.875 1010.72 718.875 1010.72 684.225 1001.2 c 1,0,1
421.515 754.8 m 1,23,-1
 546.255 754.8 l 2,24,25
 621.225 754.8 621.225 754.8 660.915 778.32 c 0,26,27
 701.235 801.84 701.235 801.84 701.235 848.88 c 0,28,29
 701.235 895.36 701.235 895.36 660.915 919.44 c 0,30,31
 621.225 943.52 621.225 943.52 546.255 943.52 c 2,32,-1
 421.515 943.52 l 1,33,-1
 421.515 754.8 l 1,23,-1
EndSplineSet
EndChar
StartChar: uni02B7
Encoding: 695 695 695
Width: 1233
VWidth: 2032
Flags: W
TeX: 0 0 0 0
Fore
143.055 1295.2 m 1,0,-1
 258.976 1295.2 l 1,1,-1
 403.875 805.76 l 1,2,-1
 548.146 1295.2 l 1,3,-1
 684.855 1295.2 l 1,4,-1
 829.755 805.76 l 1,5,-1
 974.025 1295.2 l 1,6,-1
 1089.95 1295.2 l 1,7,-1
 905.355 668 l 1,8,-1
 768.646 668 l 1,9,-1
 616.815 1182.08 l 1,10,-1
 464.355 668 l 1,11,-1
 327.646 668 l 1,12,-1
 143.055 1295.2 l 1,0,-1
EndSplineSet
EndChar
StartChar: uni02B8
Encoding: 696 696 696
Width: 1233
VWidth: 2032
Flags: W
TeX: 0 0 0 0
Fore
649.891 609.76 m 1,0,1
 600.75 497.76 600.75 497.76 554.13 463.6 c 128,-1,2
 507.51 429.44 507.51 429.44 429.391 429.44 c 2,3,-1
 336.78 429.44 l 1,4,-1
 336.78 515.68 l 1,5,-1
 404.82 515.68 l 2,6,7
 452.7 515.68 452.7 515.68 479.16 535.84 c 128,-1,8
 505.62 556 505.62 556 537.75 631.04 c 1,9,-1
 558.54 678.08 l 1,10,-1
 273.149 1295.2 l 1,11,-1
 396 1295.2 l 1,12,-1
 616.5 804.64 l 1,13,-1
 837 1295.2 l 1,14,-1
 959.851 1295.2 l 1,15,-1
 649.891 609.76 l 1,0,1
EndSplineSet
EndChar
StartChar: uni02BE
Encoding: 702 702 702
Width: 1233
Flags: W
TeX: 117 0 0 0
Fore
479.5 1007 m 9,0,1
 479.5 1068 479.5 1068 479.5 1130 c 1,2,3
 543.5 1130 543.5 1130 587.5 1174 c 128,-1,4
 631.5 1218 631.5 1218 631.5 1282 c 0,5,6
 631.5 1345 631.5 1345 587.5 1389 c 128,-1,7
 543.5 1433 543.5 1433 479.5 1433 c 1,8,9
 479.5 1494 479.5 1494 479.5 1556 c 17,10,11
 594.5 1556 594.5 1556 674.5 1476 c 0,12,13
 753.5 1397 753.5 1397 753.5 1282 c 128,-1,14
 753.5 1167 753.5 1167 674.5 1087 c 0,15,16
 594.5 1007 594.5 1007 479.5 1007 c 9,0,1
EndSplineSet
EndChar
StartChar: uni02BF
Encoding: 703 703 703
Width: 1233
Flags: W
TeX: 117 0 0 0
Fore
753.5 1007 m 17,0,1
 638.5 1007 638.5 1007 558.5 1087 c 0,15,16
 479.5 1167 479.5 1167 479.5 1282 c 128,-1,14
 479.5 1397 479.5 1397 558.5 1476 c 0,12,13
 638.5 1556 638.5 1556 753.5 1556 c 9,10,11
 753.5 1494 753.5 1494 753.5 1433 c 1,8,9
 689.5 1433 689.5 1433 645.5 1389 c 128,-1,7
 601.5 1345 601.5 1345 601.5 1282 c 0,5,6
 601.5 1218 601.5 1218 645.5 1174 c 128,-1,4
 689.5 1130 689.5 1130 753.5 1130 c 1,2,3
 753.5 1068 753.5 1068 753.5 1007 c 17,0,1
EndSplineSet
EndChar
StartChar: uni02C0
Encoding: 704 704 704
Width: 1233
VWidth: 1714
Flags: W
TeX: 0 0 0 0
Fore
509.085 1356.88 m 9,0,-1
 548.775 1356.88 l 1,1,2
 669.734 1356.88 669.734 1356.88 723.915 1420.72 c 0,3,4
 760.455 1463.28 760.455 1463.28 760.455 1518.16 c 0,5,6
 759.825 1592.64 759.825 1592.64 723.915 1629.04 c 0,7,8
 661.545 1692.88 661.545 1692.88 548.775 1692.88 c 0,9,10
 498.375 1692.88 498.375 1692.88 448.605 1680.56 c 0,11,12
 399.465 1668.8 399.465 1668.8 350.325 1644.72 c 1,13,-1
 350.325 1741.04 l 1,14,15
 398.205 1760.64 398.205 1760.64 449.235 1770.16 c 0,16,17
 500.264 1780.24 500.264 1780.24 553.815 1780.24 c 0,18,19
 727.064 1780.24 727.064 1780.24 814.005 1692.32 c 0,20,21
 882.674 1622.32 882.674 1622.32 882.675 1518.16 c 0,22,23
 882.675 1422.96 882.675 1422.96 814.635 1358.56 c 0,24,25
 744.076 1291.92 744.076 1291.92 636.974 1275.12 c 1,26,-1
 636.974 910 l 1,27,-1
 509.715 910 l 1,28,-1
 509.085 1356.88 l 9,0,-1
EndSplineSet
EndChar
StartChar: uni02C1
Encoding: 705 705 705
Width: 1233
VWidth: 1714
Flags: W
TeX: 0 0 0 0
Fore
723.285 1356.88 m 17,0,-1
 723.285 910 l 1,1,-1
 596.025 910 l 1,2,-1
 596.025 1275.12 l 1,3,4
 488.925 1291.92 488.925 1291.92 418.365 1358.56 c 0,5,6
 350.325 1422.96 350.325 1422.96 350.325 1518.16 c 0,7,8
 350.325 1622.32 350.325 1622.32 419.625 1692.32 c 0,9,10
 505.934 1780.24 505.934 1780.24 679.184 1780.24 c 0,11,12
 732.735 1780.24 732.735 1780.24 783.764 1770.16 c 0,13,14
 834.795 1760.64 834.795 1760.64 882.675 1741.04 c 1,15,-1
 882.675 1644.72 l 1,16,17
 833.535 1668.8 833.535 1668.8 783.764 1680.56 c 0,18,19
 734.625 1692.88 734.625 1692.88 684.224 1692.88 c 0,20,21
 571.455 1692.88 571.455 1692.88 509.085 1629.04 c 0,22,23
 473.175 1592.64 473.175 1592.64 472.545 1518.16 c 0,24,25
 472.545 1463.28 472.545 1463.28 509.085 1420.72 c 0,26,27
 563.264 1356.88 563.264 1356.88 684.224 1356.88 c 1,28,-1
 723.285 1356.88 l 17,0,-1
EndSplineSet
EndChar
StartChar: circumflex
Encoding: 710 710 710
Width: 1233
Flags: W
Fore
543 1638 m 1,0,-1
 690 1638 l 1,1,-1
 936 1262 l 1,2,-1
 797 1262 l 1,3,-1
 616 1507 l 1,4,-1
 436 1262 l 1,5,-1
 297 1262 l 1,6,-1
 543 1638 l 1,0,-1
EndSplineSet
EndChar
StartChar: caron
Encoding: 711 711 711
Width: 1233
Flags: W
Fore
543 1262 m 1,0,-1
 297 1638 l 1,1,-1
 436 1638 l 1,2,-1
 616 1393 l 1,3,-1
 797 1638 l 1,4,-1
 936 1638 l 1,5,-1
 690 1262 l 1,6,-1
 543 1262 l 1,0,-1
EndSplineSet
EndChar
StartChar: uni02C8
Encoding: 712 712 712
Width: 1233
Flags: W
TeX: 117 0 0 0
Fore
350 1554 m 1,0,-1
 350 999 l 1,1,-1
 214 999 l 1,2,-1
 214 1554 l 1,3,-1
 350 1554 l 1,0,-1
EndSplineSet
EndChar
StartChar: uni02CC
Encoding: 716 716 716
Width: 1233
Flags: W
TeX: 117 0 0 0
Fore
350 252 m 1,0,-1
 350 -303 l 1,1,-1
 214 -303 l 1,2,-1
 214 252 l 1,3,-1
 350 252 l 1,0,-1
EndSplineSet
EndChar
StartChar: uni02D0
Encoding: 720 720 720
Width: 1233
Flags: W
TeX: 0 0 0 0
Fore
616.5 728.801 m 1,0,-1
 438.204 1059 l 1,1,-1
 794.796 1059 l 1,2,-1
 616.5 728.801 l 1,0,-1
616.5 330.199 m 1,3,-1
 794.796 0 l 1,4,-1
 438.204 0 l 1,5,-1
 616.5 330.199 l 1,3,-1
EndSplineSet
EndChar
StartChar: uni02D1
Encoding: 721 721 721
Width: 1233
Flags: W
TeX: 0 0 0 0
Fore
616.5 728.801 m 1,0,-1
 438.204 1059 l 1,1,-1
 794.796 1059 l 1,2,-1
 616.5 728.801 l 1,0,-1
EndSplineSet
EndChar
